/* XPM */
static char *_0870_4c22fa59859a5cb3b24e35ee4230e85632f014ad3e45ad8e084e92c13aab689a[] = {
/* columns rows colors chars-per-pixel */
"50 50 201 2 ",
"   c #FB0102",
".  c #FC0000",
"X  c #FD0000",
"o  c #FD0100",
"O  c #FC0001",
"+  c #FD0001",
"@  c #FE0000",
"#  c #FE0100",
"$  c #FF0100",
"%  c #FF0101",
"&  c #FD0200",
"*  c #FE0200",
"=  c #FE0201",
"-  c #FD0002",
";  c #FE0002",
":  c #FE0003",
">  c #FE0103",
",  c #FF0103",
"<  c #FF0004",
"1  c #FF0105",
"2  c #FF0204",
"3  c #F50B0E",
"4  c #F50A0F",
"5  c #F40B0F",
"6  c #F20C0F",
"7  c #F40B11",
"8  c #F40A13",
"9  c #F50C10",
"0  c #F40E10",
"q  c #F50C12",
"w  c #EB151F",
"e  c #E8161F",
"r  c #EA171E",
"t  c #E9181E",
"y  c #EA191E",
"u  c #E91720",
"i  c #EA1720",
"p  c #E91722",
"a  c #E81623",
"s  c #EA1622",
"d  c #E71820",
"f  c #E61824",
"g  c #DE232C",
"h  c #DE2230",
"j  c #DE2231",
"k  c #DF2331",
"l  c #D22D3D",
"z  c #D32C3E",
"x  c #D12F3E",
"c  c #D12E3F",
"v  c #D42D3E",
"b  c #D52C3F",
"n  c #D42D3F",
"m  c #D32B42",
"M  c #D42B42",
"N  c #D02D40",
"B  c #D22C40",
"V  c #D32C40",
"C  c #D32D41",
"Z  c #D52C41",
"A  c #D62D40",
"S  c #D42F40",
"D  c #D42C43",
"F  c #D52E42",
"G  c #C9374C",
"H  c #C6384E",
"J  c #C73750",
"K  c #CA3753",
"L  c #C73854",
"P  c #BE435F",
"I  c #BC445D",
"U  c #BA4560",
"Y  c #BC4460",
"T  c #BD4560",
"R  c #BF4460",
"E  c #BF4463",
"W  c #B24D6F",
"Q  c #B24F6E",
"!  c #B3506F",
"~  c #B04F70",
"^  c #B24E70",
"/  c #A6587F",
"(  c #A55B7E",
")  c #A65A7E",
"_  c #A75B7F",
"`  c #A9597E",
"'  c #A85B7F",
"]  c #A75980",
"[  c #A75981",
"{  c #A55B80",
"}  c #A55A81",
"|  c #A65A80",
" . c #A65A81",
".. c #A75B81",
"X. c #A95980",
"o. c #A85A81",
"O. c #AA5A81",
"+. c #A85A82",
"@. c #9D668E",
"#. c #9D6690",
"$. c #9E6592",
"%. c #906F9C",
"&. c #936F9F",
"*. c #91709D",
"=. c #91709F",
"-. c #91729E",
";. c #946FA2",
":. c #857DAC",
">. c #867DAC",
",. c #897DAF",
"<. c #9171A2",
"1. c #887BB0",
"2. c #897BB0",
"3. c #7A87BB",
"4. c #7D86BD",
"5. c #7D86BF",
"6. c #7C87BF",
"7. c #7888BB",
"8. c #7C88BA",
"9. c #7B88BF",
"0. c #7C88BC",
"q. c #7C89BE",
"w. c #7C86C1",
"e. c #7D86C1",
"r. c #7D87C2",
"t. c #7E86C4",
"y. c #7D88C0",
"u. c #7C89C0",
"i. c #6F93CD",
"p. c #6F91CE",
"a. c #7093CD",
"s. c #7191CE",
"d. c #7292CF",
"f. c #7094CE",
"g. c #669BDF",
"h. c #649EDD",
"j. c #659CDF",
"k. c #679CDE",
"l. c #7291D1",
"z. c #7193D0",
"x. c #7092D1",
"c. c #669DE0",
"v. c #5DA7EE",
"b. c #5AA9EC",
"n. c #5AABED",
"m. c #5BAAEF",
"M. c #5DA8EC",
"N. c #5CA9ED",
"B. c #5CA9EF",
"V. c #5AA8F0",
"C. c #5BA8F0",
"Z. c #5AAAF1",
"A. c #5DAAF0",
"S. c #4DB3FB",
"D. c #4EB3FB",
"F. c #4FB4FA",
"G. c #4EB2FD",
"H. c #4DB3FE",
"J. c #4CB3FF",
"K. c #4EB2FE",
"L. c #4FB3FE",
"P. c #4EB3FF",
"I. c #4FB3FF",
"U. c #4DB5FC",
"Y. c #4EB4FC",
"T. c #4FB4FC",
"R. c #4FB5FD",
"E. c #4EB6FD",
"W. c #4DB5FE",
"Q. c #4DB4FF",
"!. c #4EB4FE",
"~. c #4EB4FF",
"^. c #4FB4FF",
"/. c #4EB5FF",
"(. c #4FB5FF",
"). c #4EB6FF",
"_. c #4FB6FF",
"`. c #51B3FA",
"'. c #50B2FB",
"]. c #50B5FB",
"[. c #51B3FC",
"{. c #50B2FD",
"}. c #51B3FE",
"|. c #51B2FF",
" X c #50B3FF",
".X c #52B2FE",
"XX c #52B2FF",
"oX c #53B2FF",
"OX c #52B3FF",
"+X c #53B3FF",
"@X c #50B5FD",
"#X c #52B4FD",
"$X c #50B4FF",
"%X c #51B4FF",
"&X c #51B5FF",
"*X c #52B4FF",
"=X c #53B4FF",
"-X c #53B5FF",
";X c #50B6FE",
":X c #51B6FE",
">X c #50B6FF",
/* pixels */
"$X$X$X$X$X$X$X$X$X$X$X$X$X$X$X$XOX(.*X#XI.&X|.(.*X~.I.(.!.(.L.@X^.$X*XQ.OX!.L.R.$X$X$X$X$X$X$X$X$X$X",
"$X$X$X$X$X$X$X$X$X$X$X$X$X$X$X$X$XY.$X(.&XI.$X$XL.$X$X}.$X$X$X$XT.L.L.(.$XOXL.OX$X$X$X$X$X$X$X$X$X$X",
"$X$X$X$X$X$X$X$X$X$X$X$X$X$X$X$X$XOX$X}.Q.=X*X(.(.}.[./.OX(.$X(.L.$X~.$XT.(.R.$X$X$X$X$X$X$X$X$X$X$X",
"$X$X$X$X$X$X$X$X$X$X$X$X$X$X$X$X$XT.!.$X$X9.P a @ @ t R 4.Q.@X}.$X).L.$X(.$XOX$X$X$X$X$X$X$X$X$X$X$X",
"$X$X$X$X$X$X$X$X$X$X$X$X$X$X$X$X(.*XOXa.c - , @ b C o ; % V x.$X!./.$XL.$X#X$X(.$X$X$X$X$X$X$X$X$X$X",
"$X$X$X$X$X$X$X$X$X$X$X$X$X$X$X$XL.P.o.@ ; q ] n.(.I.b.! @ , 3 1.I.OX#X$XI.R.(.I.$X$X$X$X$X$X$X$X$X$X",
"$X$X$X$X$X$X$X$X$X$X$X$X$X$X$X$X$XU @ $ 4 i.#X|.$X$X!.$X{ ; @ , 4.(.!.$X$XI.$X;X$X$X$X$X$X$X$X$X$X$X",
"$X$X$X$X$X$X$X$X$X$X$X$X$X$X$X$XQ $ @ % 5.(.$X(.(.(.|.$X(.Z * @ 7 h.OXI.(.*X(.L.$X$X$X$X$X$X$X$X$X$X",
"$X$X$X$X$X$X$X$X$X$XL.$X@X$X/.u.@ ; $ J (.T.OX~.$X$X(.$X~.0.; o ; v $XL.!.OXOXR.$X$X$X$X$X$X$X$X$X$X",
"$X$X$X$X$X$X$X$XW.+XL.^.(.}.B.r ; @ % u.I.*X(.}.L.$X$X$X(.T.h % % @ #.(.L.L.(.OX$X$X$X$X$X$X$X$X$X$X",
"$X$X$X$X$X$X$X$XL.$X&X}.$X(.} % * , w L.^.#X(.$X(.(.#X!.&X$X@.@ @ @ 7 v.$XOXT.$X$X$X$X$X$X$X$X$X$X$X",
"$X$X$X$X$X$X$X$X!.$XL.I.$XN.5 @ $ @ E $XI.$X}.L.$X!.*X$X|.Y.k.@ @ % o ..L.*X^.$X$X$X$X$X$X$X$X$X$X$X",
"$X$X$X$X$X$X$X$XI.`.*X(.OX&.2 @ ; 1 %.*X$X!.(.}.}.(.P.*X/.>X$Xe @ @ @ p |.(.|.$X$X$X$X$X$X$X$X$X$X$X",
"$X$X$X$X$X$X$X$X$X!.$XL.(.h X % @ @ x.(.>X@X$X$XQ.*X}.Y.&X'.&XH @ @ @ @ :.$XE..X$X$X$X$X$X$X$X$X$X$X",
"$X$X$X$X$X$X$X$X}.%XY.&Xj., @ @ @ @ ).OX|.OXL.$X}.L.@X!.L.&XG...@ $ % @ T I.$X$X$X$X$X$X$X$X$X$X$X$X",
"$X$X$X$X$X$X$X$X&XL.$X(.;.@ % ; ; j L.}.(.}.(.$X$X(.I.$XOXT.$Xw.; @ @ @ 8 $X$X(.$X$X$X$X$X$X$X$X$X$X",
"$X$X$X$X$X$X$X$XI.|.*XI.E ; @ @ @ B OX~.(.|.*X$XI.(.$X$XT.$XL.s.; @ X @ o l.$XY.$X$X$X$X$X$X$X$X$X$X",
"$X$X$X$X$X$X$X$XY.$XR.@Xe o , @ @ E ~.@XOX!.~.(.OX}.@XOX(.L.^.L.@ @ , @ % <.OX*X$X$X$X$X$X$X$X$X$X$X",
"$X$X$X$X$X$X$X$XOX!.!.$X@ % X , @ ..*X}.~.OX(.L.$X|.(.H.$X$XL.$X, X o % # / R.!.$X$X$X$X$X$X$X$X$X$X",
"$X$X$X$X$X$X$X$X$XP.$X9.< @ $ @ = ) $X$X$XI.I.}.~.L.+XR.$X$X(.T.r , @ @ X A L.$X$X$X$X$X$X$X$X$X$X$X",
"$X$X$X$X$X$X$X$X$X}.$Xu.X @ o ; ; ( /.$XY.(.$X$X$XR.|.).R.H.OX$Xz @ $ ;   M @X/.$X$X$X$X$X$X$X$X$X$X",
"$X$X$X$X$X$X$X$XQ.*XY.-.o , - o : y.OX|.>XI.(.!.$X$X|.|.+X(.@X$XD @ o @ , @ !.OX$X$X$X$X$X$X$X$X$X$X",
"$X$X$X$X$X$X$X$X*XI.OXO., X % @ ; 8.(.$X!.#X}.OX$XW.$XR.L.|.}.(.l % @ @ @ X $X!.$X$X$X$X$X$X$X$X$X$X",
"$X$X$X$X$X$X$X$XI.L.(.[ * % @ , o e.I.(.|.~.|.@XOX$X$X$X~.$XOXI.b ; , @ - % L.$X$X$X$X$X$X$X$X$X$X$X",
"$X$X$X$X$X$X$X$XL.(.#X] , @ ; @ @ t.$X|.*X}.(.$X$XU.(.$X(.~.OXL.n @ ; @ = @ |.(.$X$X$X$X$X$X$X$X$X$X",
"$X$X$X$X$X$X$X$X|.I.@X_ X ; % % % 7.(.=X).XX/.|.$XOXR.XXoX(.(.(.V < @ @ % . >X}.$X$X$X$X$X$X$X$X$X$X",
"$X$X$X$X$X$X$X$XR.^.(.X., # @ , @ w.+XW.$X@XL.$X$X$XW.(.!.#XI.$Xn o @ % : , |.(.$X$X$X$X$X$X$X$X$X$X",
"$X$X$X$X$X$X$X$XL.&XI.o.O $ @ $ @ 6.|.$X$X~.I.(.$X$X|.$XY.L.^.(.j % @ o @ y $XL.$X$X$X$X$X$X$X$X$X$X",
"$X$X$X$X$X$X$X$X*X~.:Xe.@ , @ ; ; r.I.*X*X~.$X(.(.$XOX$XOX^.(.[.@ @ * @ , N $XOX$X$X$X$X$X$X$X$X$X$X",
"$X$X$X$X$X$X$X$X*X$XI.e.@ @ % @ , 3.>XT./.(.$X#X$XI.(.L.$X$XL.$Xo < o # $ L (.(.$X$X$X$X$X$X$X$X$X$X",
"$X$X$X$X$X$X$X$X!.(.L.m.& o : * @ $.|.$X}.|.$X(.@XI.T.}.$X$X/.N.@ @ % $ @ ) OXI.$X$X$X$X$X$X$X$X$X$X",
"$X$X$X$X$X$X$X$XL.!.$X|.9 @ @ @ $  .$XL.OXR.W.+XL.OXR.^.$XI.L.w.@ @ @ @ o 1.L.$X$X$X$X$X$X$X$X$X$X$X",
"$X$X$X$X$X$X$X$XQ.Y.*X$Xl @ @ $ @ Q $X^.{.OXI.I.$XL.$XD.$XI.$X9.o @ o @ @ k.OX$X$X$X$X$X$X$X$X$X$X$X",
"$X$X$X$X$X$X$X$X*X*XI.$X] ; ; @ @ F Y.@X&X!.(.T.I.$X}.$X!.$X$X` : @ ; @ f F.P.$X$X$X$X$X$X$X$X$X$X$X",
"$X$X$X$X$X$X$X$X(.(.L.(.d.@ @ @ ; s OXT.@XOX(.(.$X^.!.$XI.@X*X^ o , X @ ~ $X$XY.$X$X$X$X$X$X$X$X$X$X",
"$X$X$X$X$X$X$X$X$XT.=X!.:Xd @ ; # @ Z.$XW.$X$XI.*X$X$X*X$X$X^.z @ @ $ % l.oX!.$X$X$X$X$X$X$X$X$X$X$X",
"$X$X$X$X$X$X$X$XT.OX(. XL.[ , o ; @ q.$XoXL.OX(.OX(.$XOX~.$X}.@ ; o @ i J.*XOX@X$X$X$X$X$X$X$X$X$X$X",
"$X$X$X$X$X$X$X$X$X^.L.T.*XA.6 ; X % ^ .X*X_.L.L.).I.).$XI.$Xz.@ @ @ > *.$XR.L.$X$X$X$X$X$X$X$X$X$X$X",
"$X$X$X$X$X$X$X$XOXT.(.*X~.K.+.@ ; @ h (.~.~.R.*XY.*XOX!.#X$XW % @ $ u I.$XL.&XL.$X$X$X$X$X$X$X$X$X$X",
"$X$X$X$X$X$X$X$X~.#XI.(.$X(.M.7 , ; % p.+XI.@X$X*X~.}.(.I.L.t X o @ 2.(.L.$XL.$X$X$X$X$X$X$X$X$X$X$X",
"$X$X$X$X$X$X$X$XR.I.].|.R.OXL.,.% , o I (.$X(.*XI.$X(.*X(.=.X , @ K [.R.$X$X$X(.$X$X$X$X$X$X$X$X$X$X",
"$X$X$X$X$X$X$X$X$X$X$X(.$XI.>XL.^ , @ @ d.!.^.|.(.I.$X-XV.u % X j m.I.%XS.OXOXL.$X$X$X$X$X$X$X$X$X$X",
"$X$X$X$X$X$X$X$X(.L.I.(.*X>XI.OX$XY o ; k C.).@X|.(.OXL.G $ + 0 f.!.OX|.}.^.(.$X$X$X$X$X$X$X$X$X$X$X",
"$X$X$X$X$X$X$X$X(.*XY.OXI.*X$XR.L.@XI @ ; k 4.$X(.$Xc.x @ - h g.~.}.@X!.(.$X!.|.$X$X$X$X$X$X$X$X$X$X",
"$X$X$X$X$X$X$X$XI.+X!.$XOX(.(.|.$XI.*X>.q ; @ u C g @ @ % | I.[.OX(.OXL.(.I.>X@X$X$X$X$X$X$X$X$X$X$X",
"$X$X$X$X$X$X$X$XL.).(.!.Y.I.$X].(.(.|.(.b.=.S 5 ; o m ' j.&X(.$X$X(.I.:X}.$XL.!.$X$X$X$X$X$X$X$X$X$X",
"$X$X$X$X$X$X$X$X$X~.).+X*XL.$XI.}.(.(.^.I.-XK.OXL.(.$X$X~.@X$XR.(.L.OX!.$X!.|.$X$X$X$X$X$X$X$X$X$X$X",
"$X$X$X$X$X$X$X$X(.$XL.I.(.(.$XR.(.*XT.$X}.L.$X$XL.T.(.~.$X#X$XI.L.$X!.(.$X$X$X$X$X$X$X$X$X$X$X$X$X$X",
"$X$X$X$X$X$X$X$X$X$X$X$X$X$X$X$X$X$X$X$X$X$X$X$X$X$X$X$X$X$X$X$X$X$X$X$X$X$X$X$X$X$X$X$X$X$X$X$X$X$X",
"$X$X$X$X$X$X$X$X$X$X$X$X$X$X$X$X$X$X$X$X$X$X$X$X$X$X$X$X$X$X$X$X$X$X$X$X$X$X$X$X$X$X$X$X$X$X$X$X$X$X"
};
