/* XPM */
static char *_0172_9822c715d8daff862ef018ad5b4233a37e06c1844a0647ebdd42e0468025714d[] = {
/* columns rows colors chars-per-pixel */
"50 50 77 1 ",
"  c #FD0000",
". c #FD0100",
"X c #FE0000",
"o c #FE0100",
"O c #FF0100",
"+ c #FF0101",
"@ c #FF0200",
"# c #FE0201",
"$ c #FD0002",
"% c #FE0002",
"& c #FE0003",
"* c #FF0103",
"= c #FF0204",
"- c #F40B0E",
"; c #F50B0E",
": c #F40B11",
"> c #DD212F",
", c #DE2230",
"< c #D32E3F",
"1 c #D52C3F",
"2 c #D42D3F",
"3 c #D32B42",
"4 c #D32D41",
"5 c #C93650",
"6 c #B34E6C",
"7 c #9C658F",
"8 c #956F9E",
"9 c #92719E",
"0 c #877EAD",
"q c #7C87BD",
"w c #7D86BF",
"e c #7C87BF",
"r c #7B88BD",
"t c #7B88BF",
"y c #7D88BE",
"u c #7B85C0",
"i c #7B87C1",
"p c #7D86C1",
"a c #7E87C0",
"s c #7D87C2",
"d c #7D88C0",
"f c #6F91D0",
"g c #669DE0",
"h c #649DE2",
"j c #59A9EE",
"k c #5BA8F0",
"l c #5CA9F1",
"z c #4FB6FB",
"x c #4DB3FD",
"c c #4EB2FD",
"v c #4FB3FE",
"b c #4FB3FF",
"n c #4EB4FC",
"m c #4FB4FC",
"M c #4FB5FD",
"N c #4EB6FD",
"B c #4DB5FE",
"V c #4DB4FF",
"C c #4EB4FE",
"Z c #4EB4FF",
"A c #4FB4FF",
"S c #4EB5FF",
"D c #4FB5FF",
"F c #4EB6FF",
"G c #51B3FE",
"H c #51B2FF",
"J c #52B2FE",
"K c #52B2FF",
"L c #52B3FF",
"P c #53B3FF",
"I c #54B2FC",
"U c #50B5FD",
"Y c #52B4FD",
"T c #50B4FF",
"R c #51B5FF",
"E c #52B4FF",
"W c #54B4FF",
/* pixels */
"TTTTTTTTTTTTTTTTbTnLLCLCTTvTTmTDTTTTTTTTTTTTTTTTTT",
"TTTTTTTTTTTTTTTTTTDMTCvLTmDZvTTbTTTTTTTTTTTTTTTTTT",
"TTTTTTTTTTTTTTTTDTTTEEDvBDEDLbnLTTTTTTTTTTTTTTTTTT",
"TTTTTTTTTTTTTTTTvTTbDTGTWcAHUDvCTTTTTTTTTTTTTTTTTT",
"TTTTTTTTTTTTTTTTbbbEUDbvvTq<XDvTTTTTTTTTTTTTTTTTTT",
"TTTTTTTTTTTTTTTTTFCTTbTUr3X%$vDZTTTTTTTTTTTTTTTTTT",
"TTTTTTTTTTTTTTTTZEYTvDp1+%XXXTPvTTTTTTTTTTTTTTTTTT",
"TTTTTTTTTTTTTTTTTDGSq2%#X%X%%DDTTTTTTTTTTTTTTTTTTT",
"TTTTTTTTTTTTTTTTHCd4%XX%XXXXXTTTTTTTTTTTTTTTTTTTTT",
"TTTTTTTTTTTTTTTTET56tTe-XXXXXTTTTTTTTTTTTTTTTTTTTT",
"TTTTTTTTTTTTTTTTDDbTvZU7XXXXXTTTTTTTTTTTTTTTTTTTTT",
"TTTTTTTTTTTTTTTTvCTHPDbqXXXXXTTTTTTTTTTTTTTTTTTTTT",
"TTTTTTTTTTTTTTTTEDvNTDTlXXXXXTTTTTTTTTTTTTTTTTTTTT",
"TTTTTTTTTTTTTTTTvGRvTvTTXXXXXTTTTTTTTTTTTTTTTTTTTT",
"TTTTTTTTTTTTTTTTDDDGZTJNXXXXXTTTTTTTTTTTTTTTTTTTTT",
"TTTTTTTTTTTTTTTTDTvECCLCXXXXXTTTTTTTTTTTTTTTTTTTTT",
"TTTTTTTTTTTTTTTTTTTTTTTTXXXXXTTTTTTTTTTTTTTTTTTTTT",
"TTTTTTTTTTTTTTTTTTTTTTTTXXXXXTTTTTTTTTTTTTTTTTTTTT",
"TTTTTTTTTTTTTTTTTTTTTTTTXXXXXTTTTTTTTTTTTTTTTTTTTT",
"TTTTTTTTTTTTTTTTTTTTTTTTXXXXXTTTTTTTTTTTTTTTTTTTTT",
"TTTTTTTTTTTTTTTTTTTTTTTTXXXXXTTTTTTTTTTTTTTTTTTTTT",
"TTTTTTTTTTTTTTTTTTTTTTTTXXXXXTTTTTTTTTTTTTTTTTTTTT",
"TTTTTTTTTTTTTTTTTTTTTTTTXXXXXTTTTTTTTTTTTTTTTTTTTT",
"TTTTTTTTTTTTTTTTTTTTTTTTXXXXXTTTTTTTTTTTTTTTTTTTTT",
"TTTTTTTTTTTTTTTTTTTTTTTTXXXXXTTTTTTTTTTTTTTTTTTTTT",
"TTTTTTTTTTTTTTTTTTTTTTTTXXXXXTTTTTTTTTTTTTTTTTTTTT",
"TTTTTTTTTTTTTTTTTTTTTTTTXXXXXTTTTTTTTTTTTTTTTTTTTT",
"TTTTTTTTTTTTTTTTTTTTTTTTXXXXXTTTTTTTTTTTTTTTTTTTTT",
"TTTTTTTTTTTTTTTTTTTTTTTTXXXXXTTTTTTTTTTTTTTTTTTTTT",
"TTTTTTTTTTTTTTTTTTTTTTTTXXXXXTTTTTTTTTTTTTTTTTTTTT",
"TTTTTTTTTTTTTTTTTTTTTTTTXXXXXTTTTTTTTTTTTTTTTTTTTT",
"TTTTTTTTTTTTTTTTTTTTTTTTXXXXXTTTTTTTTTTTTTTTTTTTTT",
"TTTTTTTTTTTTTTTTTTTTTTTTXXXXXTTTTTTTTTTTTTTTTTTTTT",
"TTTTTTTTTTTTTTTTTTTTTTTTXXXXXTTTTTTTTTTTTTTTTTTTTT",
"TTTTTTTTTTTTTTTTTTTTTTTTXXXXXTTTTTTTTTTTTTTTTTTTTT",
"TTTTTTTTTTTTTTTTTTTTTTTTXXXXXTTTTTTTTTTTTTTTTTTTTT",
"TTTTTTTTTTTTTTTTTTTTTTTTXXXXXTTTTTTTTTTTTTTTTTTTTT",
"TTTTTTTTTTTTTTTTTTTTTTTTXXXXXTTTTTTTTTTTTTTTTTTTTT",
"TTTTTTTTTTTTTTTTTTTTTTTTXXXXXTTTTTTTTTTTTTTTTTTTTT",
"TTTTTTTTTTTTTTTTTTTTTTTTXXXXXTTTTTTTTTTTTTTTTTTTTT",
"TTTTTTTTTTTTTTTTDTbTEDTvOXXXXTCMVTbTDLDvTTTTTTTTTT",
"TTTTTTTTTTTTTTTTvmTFDTLmX+oX=vTLLmSnDIMvTTTTTTTTTT",
"TTTTTTTTTTTTTTTTTMHTTGThX%X+ gEbUPTbvTDTTTTTTTTTTT",
"TTTTTTTTTTTTTTTTTLCLTHC9+X%X@8nTmTCNbFLvTTTTTTTTTT",
"TTTTTTTTTTTTTTTTDmTzDTa;XX+X&:0bDZELGvDETTTTTTTTTT",
"TTTTTTTTTTTTTTTTHDf4,%+*@X%%.+X+><fGCRCbTTTTTTTTTT",
"TTTTTTTTTTTTTTTTTZkeqarueiwrettswyjvLxDLTTTTTTTTTT",
"TTTTTTTTTTTTTTTTDGEvMbBYTDvHMKDTTvTTCELNTTTTTTTTTT",
"TTTTTTTTTTTTTTTTTTTTTTTTTTTTTTTTTTTTTTTTTTTTTTTTTT",
"TTTTTTTTTTTTTTTTTTTTTTTTTTTTTTTTTTTTTTTTTTTTTTTTTT"
};
