/* XPM */
static char *_8614_5c30326c6142019fd1393d2a3e2dc7680c19f3014909b938b116bc2135a428a0[] = {
/* columns rows colors chars-per-pixel */
"50 50 186 2 ",
"   c #FB0200",
".  c #FC0000",
"X  c #FD0000",
"o  c #FD0100",
"O  c #FD0001",
"+  c #FE0000",
"@  c #FE0100",
"#  c #FF0100",
"$  c #FF0101",
"%  c #FD0200",
"&  c #FE0200",
"*  c #FF0200",
"=  c #FF0300",
"-  c #FE0201",
";  c #FD0002",
":  c #FE0002",
">  c #FE0003",
",  c #FF0103",
"<  c #FF0004",
"1  c #FF0204",
"2  c #FE0106",
"3  c #F6090F",
"4  c #F40B0E",
"5  c #F40B0F",
"6  c #F10D0E",
"7  c #F20C0F",
"8  c #F50C0F",
"9  c #F20B11",
"0  c #F40B11",
"q  c #F60B12",
"w  c #F50C10",
"e  c #F50C12",
"r  c #E8171D",
"t  c #EA171E",
"y  c #E91720",
"u  c #DC222D",
"i  c #DD222D",
"p  c #DD232E",
"a  c #DD2130",
"s  c #DD2330",
"d  c #DE2230",
"f  c #D22D3D",
"g  c #D02D3E",
"h  c #D22D3E",
"j  c #D32E3F",
"k  c #D42D3E",
"l  c #D42D3F",
"z  c #D32B42",
"x  c #D42B40",
"c  c #D32C40",
"v  c #D32D41",
"b  c #D42D41",
"n  c #C7374E",
"m  c #C7394F",
"M  c #CA3751",
"N  c #C73951",
"B  c #C93952",
"V  c #C83853",
"C  c #C83A52",
"Z  c #BD425E",
"A  c #BE435F",
"S  c #BC445F",
"D  c #BE4360",
"F  c #BC4362",
"G  c #BB4460",
"H  c #BD4560",
"J  c #BF4461",
"K  c #B24F6E",
"L  c #B3506F",
"P  c #B24E70",
"I  c #B24E72",
"U  c #A75A7E",
"Y  c #A85B7F",
"T  c #C04363",
"R  c #C04460",
"E  c #A75980",
"W  c #A75981",
"Q  c #A55B80",
"!  c #A55A81",
"~  c #A65A80",
"^  c #A75B81",
"/  c #A75B82",
"(  c #A85A81",
")  c #A95883",
"_  c #A85A82",
"`  c #9C658F",
"'  c #9F6490",
"]  c #936F9F",
"[  c #90709F",
"{  c #92719E",
"}  c #93729F",
"|  c #94709E",
" . c #956FA0",
".. c #946FA2",
"X. c #8F72A2",
"o. c #9171A0",
"O. c #9271A0",
"+. c #9270A2",
"@. c #857DB0",
"#. c #867CB0",
"$. c #7D86BD",
"%. c #7C87BD",
"&. c #7F86BD",
"*. c #7D86BF",
"=. c #7C87BF",
"-. c #7B88BC",
";. c #7B88BD",
":. c #7B88BF",
">. c #7D86C1",
",. c #7C89C0",
"<. c #7E88C3",
"1. c #6F93CD",
"2. c #7391CD",
"3. c #7093CD",
"4. c #7191CE",
"5. c #7092CF",
"6. c #7393CE",
"7. c #7292CF",
"8. c #7490CF",
"9. c #7194CE",
"0. c #6F91D0",
"q. c #669DDE",
"w. c #659FDF",
"e. c #7291D1",
"r. c #7092D1",
"t. c #7392D2",
"y. c #7491D3",
"u. c #649DE0",
"i. c #669DE0",
"p. c #5BAAED",
"a. c #59A9EE",
"s. c #5CA9ED",
"d. c #5CA9EF",
"f. c #5AA8F0",
"g. c #5BA8F0",
"h. c #5BA9F1",
"j. c #5DAAF0",
"k. c #5CA8F3",
"l. c #5FA9F4",
"z. c #4FB6FB",
"x. c #4DB3FD",
"c. c #4EB2FD",
"v. c #4FB3FE",
"b. c #4EB3FF",
"n. c #4FB3FF",
"m. c #4DB5FC",
"M. c #4CB4FD",
"N. c #4EB4FC",
"B. c #4FB4FC",
"V. c #4FB5FD",
"C. c #4EB6FD",
"Z. c #4DB5FE",
"A. c #4DB4FF",
"S. c #4EB4FE",
"D. c #4EB4FF",
"F. c #4FB4FF",
"G. c #4EB5FF",
"H. c #4FB5FF",
"J. c #4EB6FF",
"K. c #51B3FA",
"L. c #50B2FB",
"P. c #50B5FB",
"I. c #52B4FB",
"U. c #51B3FC",
"Y. c #50B2FD",
"T. c #53B3FD",
"R. c #50B1FE",
"E. c #52B1FF",
"W. c #51B3FE",
"Q. c #51B2FF",
"!. c #52B2FE",
"~. c #52B2FF",
"^. c #52B3FF",
"/. c #53B3FF",
"(. c #54B1FF",
"). c #50B5FD",
"_. c #52B4FD",
"`. c #50B4FF",
"'. c #50B5FF",
"]. c #51B5FF",
"[. c #52B4FF",
"{. c #53B4FF",
"}. c #53B5FF",
"|. c #51B6FE",
" X c #50B6FF",
".X c #54B4FF",
/* pixels */
"`.`.`.`.`.`.`.`.`.`.`.`.`.`.`.`.B.N.W.H.`.`.^.`.`.V.F.S.[.).(.D.v.Q.H.!.N.A.`.W.`.`.`.`.`.`.`.`.`.`.",
"`.`.`.`.`.`.`.`.`.`.`.`.`.`.`.`.Q.S.^.W.].B.F.H.`.`.H.Q.`.H.`.H.D.`.J.H.`.Q.H.v.`.`.`.`.`.`.`.`.`.`.",
"`.`.`.`.`.`.`.`.`.`.`.`.`.`.`.`.`.H.U.`.Z.[.v.W.H.[.B.H.H.H.|.v.H.`._.[.W.`.).H.`.`.`.`.`.`.`.`.`.`.",
"`.`.`.`.`.`.`.`.`.`.`.`.`.`.`.`.V.`.`.S.`.H.H.b.n.].`.).`.`.n._.v.Q.v.Z.`.`.H.B.`.`.`.`.`.`.`.`.`.`.",
"`.`.`.`.`.`.`.`.`.`.`.`.`.`.`.`.`.n.V.[.3.K c # + X q z P 7.`.F.).`.B.`.S.^.H.`.`.`.`.`.`.`.`.`.`.`.",
"`.`.`.`.`.`.`.`.`.`.`.`.`.`.`.`.R.].4.x - : * + + < X = + & b %.^.D.].v.`.S.`.v.`.`.`.`.`.`.`.`.`.`.",
"`.`.`.`.`.`.`.`.`.`.`.`.`.`.`.`.[.` : $ + o : + : + $ + ; $ + $ _ K.Q.[.H.B.^.H.`.`.`.`.`.`.`.`.`.`.",
"`.`.`.`.`.`.`.`.`.`.`.`.`.`.`.`.E : $ + $ + + + $ + , , 1 + , + o A v.`.S._.S.^.`.`.`.`.`.`.`.`.`.`.",
"`.`.`.`.`.`.`.`.B.`.`.n.).H.n.#.+ + + + : 7 j l s + + # + + # : + + E `.).`.C./.`.`.`.`.`.`.`.`.`.`.",
"`.`.`.`.`.`.`.`.`.~.n.H.`.Q.d.5 $ X 4 ( i.`.^.`.`.j.] 0 + + : # @ $ : ;.^.`.n. X`.`.`.`.`.`.`.`.`.`.",
"`.`.`.`.`.`.`.`.H.v.`.`.H.H.U , + B a.Q.z.S.Q.H.`.M.H.s.N , + , + + $ f H.D.[.n.`.`.`.`.`.`.`.`.`.`.",
"`.`.`.`.`.`.`.`.V.].v.`. XE.e + D ).`. XW.^.V.`.n.H.`.V.W.m $ + : : . , 9.n._.`.`.`.`.`.`.`.`.`.`.`.",
"`.`.`.`.`.`.`.`.[.A.I.v.`.@.+ p ).D.D.n.W.`.).`.v.S.v.{.{.p.r , o + , + U `.).H.`.`.`.`.`.`.`.`.`.`.",
"`.`.`.`.`.`.`.`.Q.S.{.b.S.L < i.F.W.`.S.H.Q.H.[.).`.^.D.J.D.o., : + o < M H.V.D.`.`.`.`.`.`.`.`.`.`.",
"`.`.`.`.`.`.`.`.^.v.W.n.`.k G W.U.).V.Z.v.`.n.`.`.^.v.).n. XQ.4 + + * + b ^.n.}.`.`.`.`.`.`.`.`.`.`.",
"`.`.`.`.`.`.`.`.n.V.H.`.v.v 8.H.H.W.E.`.[.n.Q.B.`.H.`.`._.Q.H.j : # o : v H.`.S.`.`.`.`.`.`.`.`.`.`.",
"`.`.`.`.`.`.`.`.`.`.`.`.`.`.`.`.`.`.`.`.`.`.`.`.v.H.Q.J.H./.v.^ $ : + @ N ^.H.`.`.`.`.`.`.`.`.`.`.`.",
"`.`.`.`.`.`.`.`.`.`.`.`.`.`.`.`.`.`.`.`.`.`.`.`.`.`.J.`.`.v.`.E , $ + : / S._.H.`.`.`.`.`.`.`.`.`.`.",
"`.`.`.`.`.`.`.`.`.`.`.`.`.`.`.`.`.`.`.`.`.`.`.`.`.n.`.`.`.[.[.Q # + $ + ;.`.`.H.`.`.`.`.`.`.`.`.`.`.",
"`.`.`.`.`.`.`.`.`.`.`.`.`.`.`.`.`.`.`.`.`.`.`.`.H.`.`.S.`.D.v.T o < : 3 ^.W.`.v.`.`.`.`.`.`.`.`.`.`.",
"`.`.`.`.`.`.`.`.`.`.`.`.`.`.`.`.`.`.`.`.`.`.`.`.[.`.[.).H._.].i $ $ + H W. Xv.v.`.`.`.`.`.`.`.`.`.`.",
"`.`.`.`.`.`.`.`.`.`.`.`.`.`.`.`.`.`.`.`.`.`.`.`.H.`.B.H.Q.H.f., + + 2 w.`.N.[.F.`.`.`.`.`.`.`.`.`.`.",
"`.`.`.`.`.`.`.`.`.`.`.`.`.`.`.`.`.`.`.`.`.`.`.`.`.D.W.H.^.].O.X : # G c.`.`.T.n.`.`.`.`.`.`.`.`.`.`.",
"`.`.`.`.`.`.`.`.`.`.`.`.`.`.`.`.`.`.`.`.`.`.`.`.!.H.n.`.P.H.c + + + q.[.S.n.H.W.`.`.`.`.`.`.`.`.`.`.",
"`.`.`.`.`.`.`.`.`.`.`.`.`.`.`.`.`.`.`.`.`.`.`.`.`.H.Q.H.`.r.+ $ : ~ v..XQ.D.U.`.`.`.`.`.`.`.`.`.`.`.",
"`.`.`.`.`.`.`.`.`.`.`.`.`.`.`.`.`.`.`.`.`.`.`.`.V.`.}.x.B.V + > p Q.).n.V.H.v.n.`.`.`.`.`.`.`.`.`.`.",
"`.`.`.`.`.`.`.`.`.`.`.`.`.`.`.`.`.`.`.`.`.`.`.`./.H.v._.,.O + + 6.n.).Y.H.D.n.H.`.`.`.`.`.`.`.`.`.`.",
"`.`.`.`.`.`.`.`.`.`.`.`.`.`.`.`.`.`.`.`.`.`.`.`.n.`.D.[.a * + ' n.`.A. XS./.^.[.`.`.`.`.`.`.`.`.`.`.",
"`.`.`.`.`.`.`.`.`.`.`.`.`.`.`.`.`.`.`.`.`.`.`.`.B.A.`.W # + n G.S.v.`.Q.H.v.`.H.`.`.`.`.`.`.`.`.`.`.",
"`.`.`.`.`.`.`.`.`.`.`.`.`.`.`.`.`.`.`.`.`.`.`.`.[.v.2.: : d l.Q.v.n.`.`.`.`.S.F.`.`.`.`.`.`.`.`.`.`.",
"`.`.`.`.`.`.`.`.`.`.`.`.`.`.`.`.`.`.`.`.`.`.`.`.N.k.y + 8 i.v.V.`.`.D.H.`.`.`.^.`.`.`.`.`.`.`.`.`.`.",
"`.`.`.`.`.`.`.`.`.`.`.`.`.`.`.`.`.`.`.`.`.`.`.`.`.c $ 5 7.`.H.Q.n.`.[.).n.`.Q.v.`.`.`.`.`.`.`.`.`.`.",
"`.`.`.`.`.`.`.`.`.`.`.`.`.`.`.`.H.n.H.Q.H.S.[.S.I # , 7.B.`.n.v.^.H.`.Q.~.`.`.`.`.`.`.`.`.`.`.`.`.`.",
"`.`.`.`.`.`.`.`.`.`.`.`.`.`.`.`.Q.`.H.^.H.U.H...+ # X.v.^.S.J.`.`.H.v.Z.D.).b.P.`.`.`.`.`.`.`.`.`.`.",
"`.`.`.`.`.`.`.`.`.`.`.`.`.`.`.`.S.].Q.`.).^.[ + +  .`.!.H.H.^.`.S.`.^.[.^.`.`.Q.`.`.`.`.`.`.`.`.`.`.",
"`.`.`.`.`.`.`.`.`.`.`.`.`.`.`.`.n.H.[.H.B.1.e + +.n.H.^.H.L..X`.H.D.U.H.Q.H.H.`.`.`.`.`.`.`.`.`.`.`.",
"`.`.`.`.`.`.`.`.`.`.`.`.`.`.`.`.`.W.H.B.y.0 X J D.`.H.H.Q.].v.Z.n.D.H.v.^.[.n.`.`.`.`.`.`.`.`.`.`.`.",
"`.`.`.`.`.`.`.`.`.`.`.`.`.`.`.`.S.S./.7.6 , A `.[.v.S.`.m.`.D.^.[._.v.n.H.D.H.v.`.`.`.`.`.`.`.`.`.`.",
"`.`.`.`.`.`.`.`.`.`.`.`.`.`.`.`.n.^.0.w # Z '.H.v.^.{.v.}.S.C.n.n.`.v.W.H.*.h h.`.`.`.`.`.`.`.`.`.`.",
"`.`.`.`.`.`.`.`.`.`.`.`.`.`.`.`.`.5.5 o F I.S.W.n.S.I.F.Q.`.Q.v.H.`.).F.g.t u `.`.`.`.`.`.`.`.`.`.`.",
"`.`.`.`.`.`.`.`._.v.`.v.`.`.n._.e.5 + R F.).H.n.`.`.`.`.`.`.`.`.).H.Q.+.4 : { S.`.`.`.`.`.`.`.`.`.`.",
"`.`.`.`.`.`.`.`.G.^.n.[.n.`.S.5.5 $ 9 ! U W ^ Y ~ ~ ~ ~ ~ ~ ~ ~ ) g t + + + s.^.`.`.`.`.`.`.`.`.`.`.",
"`.`.`.`.`.`.`.`.v.^.Z.`.).S.t.0 $ + + $ $ + o : + + + + + + + + o $ + + ; C v.`.`.`.`.`.`.`.`.`.`.`.",
"`.`.`.`.`.`.`.`.`.`.).n.H.} O $ + * : $ : @ : @ + + + + + + + + + ; : : + ] /.S.`.`.`.`.`.`.`.`.`.`.",
"`.`.`.`.`.`.`.`.`.Q.N.H.| > # % , X , $ + # + : + + + + + + + + # + + + w Q.B.^.`.`.`.`.`.`.`.`.`.`.",
"`.`.`.`.`.`.`.`.D.F.G.`.: $ + :   $ + X # + + + + + + + + + + + + + : , S `.V.D.`.`.`.`.`.`.`.`.`.`.",
"`.`.`.`.`.`.`.`.|.W.~.).*.:.%.=.&.*.:.*.>.:.*.=.=.=.=.=.=.=.=.=.:.<.-.$.u.[.).H.`.`.`.`.`.`.`.`.`.`.",
"`.`.`.`.`.`.`.`.v.H.`.F.`.`.v.`.`.S.`.S.Z.[.Q.H.`.`.`.`.`.`.`.`./.Z.[.S.].[.F.Q.`.`.`.`.`.`.`.`.`.`.",
"`.`.`.`.`.`.`.`.`.`.`.`.`.`.`.`.`.`.`.`.`.`.`.`.`.`.`.`.`.`.`.`.`.`.`.`.`.`.`.`.`.`.`.`.`.`.`.`.`.`.",
"`.`.`.`.`.`.`.`.`.`.`.`.`.`.`.`.`.`.`.`.`.`.`.`.`.`.`.`.`.`.`.`.`.`.`.`.`.`.`.`.`.`.`.`.`.`.`.`.`.`."
};
