/* XPM */
static char *_5946_b0457634b5699b63adc36863f5dde5550ca4e6fcbcba46f9d6cba4efb51e1331[] = {
/* columns rows colors chars-per-pixel */
"50 50 184 2 ",
"   c #FC0000",
".  c #FD0000",
"X  c #FD0100",
"o  c #FC0001",
"O  c #FD0001",
"+  c #FE0000",
"@  c #FE0100",
"#  c #FF0100",
"$  c #FF0101",
"%  c #FD0200",
"&  c #FE0200",
"*  c #FF0200",
"=  c #FE0201",
"-  c #FD0002",
";  c #FE0002",
":  c #FE0003",
">  c #FE0103",
",  c #FF0103",
"<  c #FF0202",
"1  c #FF0004",
"2  c #F6090F",
"3  c #F50B0E",
"4  c #F50A0F",
"5  c #F20C0F",
"6  c #F40C0C",
"7  c #F20B11",
"8  c #F50A11",
"9  c #F40B11",
"0  c #F30D10",
"q  c #F50C12",
"w  c #E8161F",
"e  c #E9161F",
"r  c #EA171E",
"t  c #E7181E",
"y  c #EB181F",
"u  c #E91521",
"i  c #E81621",
"p  c #E71820",
"a  c #EA1821",
"s  c #DD212F",
"d  c #DE232E",
"f  c #DD2331",
"g  c #DE2230",
"h  c #DE2231",
"j  c #DF2331",
"k  c #DE2431",
"l  c #D22D3D",
"z  c #D02E3D",
"x  c #D32E3C",
"c  c #D22D3E",
"v  c #D12E3F",
"b  c #D32E3F",
"n  c #D42D3E",
"m  c #D42D3F",
"M  c #E0202D",
"N  c #E0222E",
"B  c #D32D41",
"V  c #D52C41",
"C  c #D42D41",
"Z  c #D52E40",
"A  c #C7394F",
"S  c #C73953",
"D  c #C83851",
"F  c #C83853",
"G  c #BE435F",
"H  c #BA455F",
"J  c #BD455E",
"K  c #BC445F",
"L  c #BB4462",
"P  c #BC4460",
"I  c #BC4561",
"U  c #BD4561",
"Y  c #BF4461",
"T  c #B24F6C",
"R  c #B04F6E",
"E  c #B34D72",
"W  c #B24E72",
"Q  c #B54D70",
"!  c #B34F75",
"~  c #A65B7C",
"^  c #A75A7E",
"/  c #A85B7F",
"(  c #A65A80",
")  c #A65C81",
"_  c #A85A81",
"`  c #9D648D",
"'  c #9C658D",
"]  c #9D668D",
"[  c #9D648F",
"{  c #9E658E",
"}  c #9D6491",
"|  c #9F6490",
" . c #9E6590",
".. c #936F9F",
"X. c #8E719F",
"o. c #91709D",
"O. c #867CAE",
"+. c #887CAE",
"@. c #9271A0",
"#. c #9272A1",
"$. c #9470A0",
"%. c #867CB0",
"&. c #867CB1",
"*. c #897AB1",
"=. c #887BB1",
"-. c #7A87BE",
";. c #7C87BF",
":. c #7D88BE",
">. c #7B87C1",
",. c #7D86C1",
"<. c #7E87C0",
"1. c #7C86C3",
"2. c #7D88C0",
"3. c #7C88C2",
"4. c #6F93CD",
"5. c #6F91CE",
"6. c #7093CD",
"7. c #7092CF",
"8. c #7292CF",
"9. c #7490CF",
"0. c #639DDD",
"q. c #659CDC",
"w. c #659CDD",
"e. c #679CDE",
"r. c #669DDE",
"t. c #649EDE",
"y. c #7092D1",
"u. c #7291D2",
"i. c #649DE0",
"p. c #679CE0",
"a. c #669DE0",
"s. c #679DE3",
"d. c #5AA7EF",
"f. c #5DA7EE",
"g. c #59AAEC",
"h. c #5AA9EE",
"j. c #5BAAEF",
"k. c #5CA9ED",
"l. c #5CA9EF",
"z. c #5AA8F0",
"x. c #5BA8F0",
"c. c #5DAAF0",
"v. c #4FB4FA",
"b. c #4EB2FD",
"n. c #4EB2FE",
"m. c #4FB3FE",
"M. c #4EB3FF",
"N. c #4FB3FF",
"B. c #4DB5FC",
"V. c #4EB4FC",
"C. c #4FB4FC",
"Z. c #4FB5FD",
"A. c #4EB6FD",
"S. c #4DB5FE",
"D. c #4DB4FF",
"F. c #4EB4FE",
"G. c #4EB4FF",
"H. c #4FB4FF",
"J. c #4EB5FF",
"K. c #4FB5FF",
"L. c #4EB6FF",
"P. c #50B5FB",
"I. c #52B4FB",
"U. c #51B3FC",
"Y. c #50B1FE",
"T. c #51B3FE",
"R. c #51B2FF",
"E. c #52B2FE",
"W. c #52B2FF",
"Q. c #53B2FF",
"!. c #52B3FF",
"~. c #53B3FF",
"^. c #50B5FD",
"/. c #52B4FD",
"(. c #50B4FF",
"). c #50B5FF",
"_. c #51B5FF",
"`. c #53B5FE",
"'. c #52B4FF",
"]. c #53B4FF",
"[. c #53B5FF",
"{. c #50B6FE",
"}. c #51B6FE",
"|. c #50B6FF",
/* pixels */
"(.(.(.(.(.(.(.(.(.(.(.(.(.(.(.(.!.G.'.m.H.K.m.m.(.D.T.N.^.N.~.G.K.N.(.T.L.(.V.(.(.(.(.(.(.(.(.(.(.(.",
"(.(.(.(.(.(.(.(.(.(.(.(.(.(.(.(.m.|./.|.N./.(.N.G.(.K.!.K.K.F.!.m.K.F.(.'.G.!.(.(.(.(.(.(.(.(.(.(.(.",
"(.(.(.(.(.(.(.(.(.(.(.(.(.(.(.(.'.K.(.F.(.N.~.(./.m.K.N.(.T.(.T.(.(.R.V.V./.(.K.(.(.(.(.(.(.(.(.(.(.",
"(.(.(.(.(.(.(.(.(.(.(.(.(.(.(.(.m.(.N.(.m.K.m.K.F.K.m.^.M.'.L.L.(.m.K.H.(.(.F.'.(.(.(.(.(.(.(.(.(.(.",
"(.(.(.(.(.(.(.(.(.(.(.(.(.(.(.(.(.m.'.(.q.` b 2 , + + x T s.N.T.(.(.'.(.^.(.(.m.(.(.(.(.(.(.(.(.(.(.",
"(.(.(.(.(.(.(.(.(.(.(.(.(.(.(.(.G.^.z.W * $ ; : + @ : + > + F l.H.V.T._.M.'.(.m.(.(.(.(.(.(.(.(.(.(.",
"(.(.(.(.(.(.(.(.(.(.(.(.(.(.(.(.(.y.j + 1 + + @ , + , + + ; X p 7.{.m.K.J.Z.T.(.(.(.(.(.(.(.(.(.(.(.",
"(.(.(.(.(.(.(.(.(.(.(.(.(.(.(.(.p.0 + , X ; # + # + ; + + + ; + r d.(.C.'.F.'.G.(.(.(.(.(.(.(.(.(.(.",
"(.(.(.(.(.(.(.(.(.N.'.^.K.N.(.K.f X @ w E %.;.<. .c # ; # $ + + + J M.(.(.!.K.K.(.(.(.(.(.(.(.(.(.(.",
"(.(.(.(.(.(.(.(.m.L.R.F.(.P.C.( + 9 ] (.N.F.N.(.N._.,.t X $ $ # = + a.N.'.(.(.m.(.(.(.(.(.(.(.(.(.(.",
"(.(.(.(.(.(.(.(.L.!.(.G.(.m.t.$ q u.N.m.(.(.Z.R.K.n.(.l.N + $ : ; O _ J.m.C.(.'.(.(.(.(.(.(.(.(.(.(.",
"(.(.(.(.(.(.(.(.K.K.U.K.T.|.P 4 4.m.K.L.m.m.K.'./.H./.m.8.+ $ X . < c !.Z.R.G.(.(.(.(.(.(.(.(.(.(.(.",
"(.(.(.(.(.(.(.(.(.N./.V.(.x.$ 3.'.N.F.K.N.W.G.N.(.G./.H.!.S @ ; , O x (.N.L.V.U.(.(.(.(.(.(.(.(.(.(.",
"(.(.(.(.(.(.(.(.!.(.m.m.|.T.j.m.S.(.(.R.F._.m.(.K.K.(.T.K.} + + ; $ S T.m.!.K.(.(.(.(.(.(.(.(.(.(.(.",
"(.(.(.(.(.(.(.(.(.G.Z.T.U.`.F.S.m.(.F._.C.K._.C.^.R.Z.(.!.;.+ ; + . ' (.H.C.(.'.(.(.(.(.(.(.(.(.(.(.",
"(.(.(.(.(.(.(.(.R.C.N.(.K.F.(.!.(.'.K.m.(.m.'.(.N.(.m.(.G.:.+ + ; - e.(.v.N.G.!.(.(.(.(.(.(.(.(.(.(.",
"(.(.(.(.(.(.(.(.(.(.(.(.(.(.(.(.!.m.m.|.K.(.(.(.'.K.F.K.F.O.+ ; + L m.!.S.(./.R.(.(.(.(.(.(.(.(.(.(.",
"(.(.(.(.(.(.(.(.(.(.(.(.(.(.(.(.m.!.N.G.N.(.Z.K.K.P.N.(.m.R $ + 5 c.^.(.B.(.G.J.(.(.(.(.(.(.(.(.(.(.",
"(.(.(.(.(.(.(.(.(.(.(.(.(.(.(.(.m.N.m.'.(.(.m.!.K.T.G.N.H.e + $ ;.G.(.n.'.'.F.R.(.(.(.(.(.(.(.(.(.(.",
"(.(.(.(.(.(.(.(.(.(.(.(.(.(.(.(.|.G.'.Z.K.!.L.S.m.F.(.K.;.$ * X.~.F.F.}.C.G.(.(.(.(.(.(.(.(.(.(.(.(.",
"(.(.(.(.(.(.(.(.(.(.(.(.(.(.(.(.K.N.(.K.(.K.Z.T.'.H.C.x.y o $.K.N.K.R.G.(.V.K.R.(.(.(.(.(.(.(.(.(.(.",
"(.(.(.(.(.(.(.(.(.(.(.(.(.(.(.(.(.(.(.!.K.V.W.!.(.m.k.k ;  .(.R.`.m.(.N.m.!.K.m.(.(.(.(.(.(.(.(.(.(.",
"(.(.(.(.(.(.(.(.(.(.(.(.(.(.(.(.(.Z.m.L.Z.W.(.V.(.2.i ; %   U h.(.(.m.C.K.N.(.(.(.(.(.(.(.(.(.(.(.(.",
"(.(.(.(.(.(.(.(.(.(.(.(.(.(.(.(.(.K.!.S.T.!.V.t.K + ; + + , . q =.(.G.K.b.'.m.(.(.(.(.(.(.(.(.(.(.(.",
"(.(.(.(.(.(.(.(.(.(.(.(.(.(.(.(.(.G.(.m.5._ d ; + + ; + , $ % + # ..C.(.N.(.!.K.(.(.(.(.(.(.(.(.(.(.",
"(.(.(.(.(.(.(.(.(.(.(.(.(.(.(.(.(.P.F.Q.! z h + # X + + + ; $ ; ; + #.R.K.^.m.m.(.(.(.(.(.(.(.(.(.(.",
"(.(.(.(.(.(.(.(.(.(.(.(.(.(.(.(.m.N.(.Z.T.V.H.G.=.P ; + + , $ X : & 6 p.(.K.m.!.(.(.(.(.(.(.(.(.(.(.",
"(.(.(.(.(.(.(.(.(.(.(.(.(.(.(.(.G.'.H.N.K.!.N./.(.I.0.I + . + # + $ . Y N.F.'.F.(.(.(.(.(.(.(.(.(.(.",
"(.(.(.(.(.(.(.(.(.(.(.(.(.(.(.(.'.(.Z.V.!.S.].F.K.!.Z.D.+.3 , + = ; $ + w.(.R.(.(.(.(.(.(.(.(.(.(.(.",
"(.(.(.(.(.(.(.(.(.(.(.(.(.(.(.(.K.(.(.(.m._./.N.(.N./.R.|.9.O $ + - . ; #.G.(.(.(.(.(.(.(.(.(.(.(.(.",
"(.(.(.(.(.(.(.(.(.(.(.(.(.(.(.(.T.!.L.'.(.m.K.H.K.G.(.(.U.K.) + $ + = $ Q ~.'.^.(.(.(.(.(.(.(.(.(.(.",
"(.(.(.(.(.(.(.(.(.(.(.(.(.(.(.(.K.m.K.T.K.(.T.m.!.(.(.(.L.!.h.# + , + + v m.J.K.(.(.(.(.(.(.(.(.(.(.",
"(.(.(.(.(.(.(.(.(.(.(.(.(.(.(.(.(.(.(.(.(.(.(.(.(.(.N.N.'.(.K.G $ : = + B Z.(.!.(.(.(.(.(.(.(.(.(.(.",
"(.(.(.(.(.(.(.(.(.(.(.(.(.(.(.(.(.(.(.(.(.(.(.(.(.N.C.N.(.m._.&.+ + + + C R.H.m.(.(.(.(.(.(.(.(.(.(.",
"(.(.(.(.(.(.(.(.(.(.(.(.(.(.(.(.(.(.(.(.(.(.(.(.m.K.U.B.m.(.m.r.+ + $ + U F.m.(.(.(.(.(.(.(.(.(.(.(.",
"(.(.(.(.(.(.(.(.(.(.(.(.(.(.(.(.(.(.(.(.(.(.(.(.E.m.K.K.R.[.(.C.$ + ; $ ~ (.!.K.(.(.(.(.(.(.(.(.(.(.",
"(.(.(.(.(.(.(.(.(.(.(.(.(.(.(.(.(.(.(.(.(.(.(.(.N.(.N.H.F.V.R.|.+ + ; , >.K.K.m.(.(.(.(.(.(.(.(.(.(.",
"(.(.(.(.(.(.(.(.(.(.(.(.(.(.(.(.(.(.(.(.(.(.(.(.m.(.'.N.'.(.K.g.+ + + u K.F.C.!.(.(.(.(.(.(.(.(.(.(.",
"(.(.(.(.(.(.(.(.(.(.(.(.(.(.(.(.(.(.(.(.(.(.(.(.J.(.(.(.K.F.!.*.+ + + ) Z.'._.(.(.(.(.(.(.(.(.(.(.(.",
"(.(.(.(.(.(.(.(.(.(.(.(.(.(.(.(.(.(.(.(.(.(.(.(.C.(.!.K.'.(.C.A + $ 8 h.(.!.J.F.(.(.(.(.(.(.(.(.(.(.",
"(.(.(.(.(.(.(.(.m.K.N.K.T.K.(.(.G.K.(.G.(.(.C.K.K.(.(.(.'.F.1.@ , + o.K.W.(.^.(.(.(.(.(.(.(.(.(.(.(.",
"(.(.(.(.(.(.(.(.N.F.(.T.(.'.>./ { e.(.}.C.m.R.(.Z.N.(.Z.F.j.w ; + U (.Z.(.T.Z.R.(.(.(.(.(.(.(.(.(.(.",
"(.(.(.(.(.(.(.(.^.!.m.(.T.%.$ # + , n -.).F.[.m.^.H.Y.(.i.M + $ A (.K.N.(.G.F.(.(.(.(.(.(.(.(.(.(.(.",
"(.(.(.(.(.(.(.(.L.N.N.'.K.v + ; + ; + ; l ;.m.Z.F.(.j.^ 8 + + H M.(.~.~.G.'.'.N.(.(.(.(.(.(.(.(.(.(.",
"(.(.(.(.(.(.(.(.G.|.^.F.(.K + $ X $ ; + + $ 7 V m g + + = 9 O.(.^.N.G.(.Z.K.T.(.(.(.(.(.(.(.(.(.(.(.",
"(.(.(.(.(.(.(.(.!.!.m.D.K.f.Z X , + + + + X , X ; + = a [ l.T.N.^.K.K.!.N.(.G.K.(.(.(.(.(.(.(.(.(.(.",
"(.(.(.(.(.(.(.(.F.K.m.^.K.!.N.@.U s & + $ X + B D | 6.T.A.R.(.F.(.~.U.R.L.T.|.(.(.(.(.(.(.(.(.(.(.(.",
"(.(.(.(.(.(.(.(.(.~.K.(.(.!.K.!.(.K.R.(.m./.'.m.K.m.K.N.!.K.m.K.G.K.(.N.(.R.m.(.(.(.(.(.(.(.(.(.(.(.",
"(.(.(.(.(.(.(.(.(.(.(.(.(.(.(.(.(.(.(.(.(.(.(.(.(.(.(.(.(.(.(.(.(.(.(.(.(.(.(.(.(.(.(.(.(.(.(.(.(.(.",
"(.(.(.(.(.(.(.(.(.(.(.(.(.(.(.(.(.(.(.(.(.(.(.(.(.(.(.(.(.(.(.(.(.(.(.(.(.(.(.(.(.(.(.(.(.(.(.(.(.(."
};
