/* XPM */
static char *_976_80eb5d974a06a57aae72c266838726e9fdf10dbd86a76563303a4d983de9e700[] = {
/* columns rows colors chars-per-pixel */
"50 50 171 2 ",
"   c #FB0200",
".  c #FC0000",
"X  c #FD0000",
"o  c #FD0100",
"O  c #FC0001",
"+  c #FD0001",
"@  c #FE0000",
"#  c #FE0100",
"$  c #FF0100",
"%  c #FF0101",
"&  c #FD0200",
"*  c #FE0200",
"=  c #FF0200",
"-  c #FE0201",
";  c #FD0002",
":  c #FE0002",
">  c #FE0003",
",  c #FE0103",
"<  c #FF0103",
"1  c #FF0202",
"2  c #FF0004",
"3  c #FF0006",
"4  c #F6090F",
"5  c #F40B0E",
"6  c #F50B0E",
"7  c #F20C0F",
"8  c #F50C0F",
"9  c #F20B11",
"0  c #F40B11",
"q  c #F60B10",
"w  c #F30D10",
"e  c #F50C10",
"r  c #E6171F",
"t  c #E8161F",
"y  c #E9181E",
"u  c #E81621",
"i  c #EA1720",
"p  c #EB1821",
"a  c #DD2130",
"s  c #D32C3E",
"d  c #D22D3E",
"f  c #D12E3F",
"g  c #D32E3E",
"h  c #D32E3F",
"j  c #D42D3F",
"k  c #D42B40",
"l  c #D22C40",
"z  c #D32C40",
"x  c #D12E41",
"c  c #D22C42",
"v  c #D42D41",
"b  c #D42C43",
"n  c #C6394C",
"m  c #C8384F",
"M  c #BB435F",
"N  c #BB455F",
"B  c #BC445F",
"V  c #BF4260",
"C  c #BE4360",
"Z  c #BF4262",
"A  c #BC4561",
"S  c #BD4561",
"D  c #BF4460",
"F  c #BF4461",
"G  c #B34E6E",
"H  c #B24E70",
"J  c #B34F71",
"K  c #B24E72",
"L  c #B34F73",
"P  c #A75C7B",
"I  c #A65A7E",
"U  c #B15071",
"Y  c #A65A80",
"T  c #A75B81",
"R  c #A85A81",
"E  c #9B678E",
"W  c #936F9F",
"Q  c #90719D",
"!  c #90709F",
"~  c #92719E",
"^  c #946FA2",
"/  c #867CAE",
"(  c #9171A0",
")  c #9271A0",
"_  c #9270A2",
"`  c #9470A0",
"'  c #867CB1",
"]  c #887BB0",
"[  c #7B86BC",
"{  c #7C87BD",
"}  c #7F86BD",
"|  c #7D86BF",
" . c #7C87BF",
".. c #7B88BC",
"X. c #7B88BD",
"o. c #7B88BF",
"O. c #7C88BC",
"+. c #7D88BE",
"@. c #7B87C1",
"#. c #7E87C0",
"$. c #7D88C0",
"%. c #6F93CF",
"&. c #7292CF",
"*. c #6F91D0",
"=. c #679DDD",
"-. c #649EDE",
";. c #679EDF",
":. c #7291D1",
">. c #7193D2",
",. c #679CE0",
"<. c #679EE1",
"1. c #5AABED",
"2. c #5BA8EE",
"3. c #5BAAEF",
"4. c #5CA9EF",
"5. c #5EA8EF",
"6. c #5BA8F0",
"7. c #5BA9F1",
"8. c #5BA8F6",
"9. c #4EB3FB",
"0. c #4FB4FA",
"q. c #4FB6FB",
"w. c #4EB2FD",
"e. c #4DB3FE",
"r. c #4EB2FE",
"t. c #4FB3FE",
"y. c #4FB2FF",
"u. c #4EB3FF",
"i. c #4FB3FF",
"p. c #4DB5FC",
"a. c #4EB4FC",
"s. c #4FB4FC",
"d. c #4FB5FD",
"f. c #4EB6FD",
"g. c #4DB5FE",
"h. c #4DB4FF",
"j. c #4EB4FE",
"k. c #4EB4FF",
"l. c #4FB4FF",
"z. c #4EB5FF",
"x. c #4FB5FF",
"c. c #4CB7FF",
"v. c #4EB6FF",
"b. c #4FB6FF",
"n. c #4FB7FF",
"m. c #50B5FB",
"M. c #52B4FB",
"N. c #51B3FC",
"B. c #52B2FC",
"V. c #53B3FD",
"C. c #50B1FE",
"Z. c #51B3FE",
"A. c #51B2FF",
"S. c #50B3FF",
"D. c #52B2FE",
"F. c #52B2FF",
"G. c #52B3FF",
"H. c #53B3FF",
"J. c #50B5FD",
"K. c #52B4FD",
"L. c #51B6FC",
"P. c #50B4FF",
"I. c #50B5FF",
"U. c #51B5FF",
"Y. c #52B4FF",
"T. c #53B4FF",
"R. c #53B5FF",
"E. c #50B6FE",
"W. c #51B6FE",
"Q. c #50B6FF",
"!. c #54B6FF",
/* pixels */
"P.P.P.P.P.P.P.P.P.P.P.P.P.P.P.P.P.x.A.P.t.x.J.P.P.P.P.P.P.P.P.P.P.P.Y.x.a.P.Y.Y.P.P.P.P.P.P.P.P.P.P.",
"P.P.P.P.P.P.P.P.P.P.P.P.P.P.P.P.P.j.x.A.L.i.Q.t.P.P.P.P.P.P.P.P.i.k.i.Z.Y.Z.k.P.P.P.P.P.P.P.P.P.P.P.",
"P.P.P.P.P.P.P.P.P.P.P.P.P.P.P.P.P.k.J.P.J.Y.A.P.P.P.P.P.P.P.P.P.A.P.t.d.N.U.P.t.P.P.P.P.P.P.P.P.P.P.",
"P.P.P.P.P.P.P.P.P.P.P.P.P.P.P.P.P.t.Y.j.l.x.t.a.P.P.P.P.P.P.P.P.P.Z.i.U.A.c.s.P.P.P.P.P.P.P.P.P.P.P.",
"P.P.P.P.P.P.P.P.P.P.P.P.P.P.P.P.P.P.s.Y.P.H.s.$.{ { { { { { { { @.@. .[ #.*.P.D.P.P.P.P.P.P.P.P.P.P.",
"P.P.P.P.P.P.P.P.P.P.P.P.P.P.P.P.x.P.Y.x.x.P.( @ @ @ @ @ @ @ @ @ @ @ & @   ^ s.x.P.P.P.P.P.P.P.P.P.P.",
"P.P.P.P.P.P.P.P.P.P.P.P.P.P.P.P.Y.P.u.A.E.i.t @ @ @ @ @ @ @ @ @ @ : < % 9 4.Z.P.P.P.P.P.P.P.P.P.P.P.",
"P.P.P.P.P.P.P.P.P.P.P.P.P.P.P.P.i.P.d.J.k.^ @ @ @ @ @ @ @ @ @ @ @ @ ; @ P i.P.x.P.P.P.P.P.P.P.P.P.P.",
"P.P.P.P.P.P.P.P.P.P.P.P.P.P.P.P.x.P.t.W.P.i @ - @ @ @ @ @ @ @ @ @ @ @ . 3.t.P.a.P.P.P.P.P.P.P.P.P.P.",
"P.P.P.P.P.P.P.P.P.P.P.P.P.P.P.P.t.G.l.P.o.@ : @ @ @ @ @ @ @ @ @ % @ : F t.k.P.j.P.P.P.P.P.P.P.P.P.P.",
"P.P.P.P.P.P.P.P.P.P.P.P.P.P.P.P.Y.x.d.i.b - c P.P.P.P.P.P.P.P.P.P.P.d.P.t.R.9.G.P.P.P.P.P.P.P.P.P.P.",
"P.P.P.P.P.P.P.P.P.P.P.P.P.P.P.P.P.x.P.$.@ X +.P.P.P.P.P.P.P.P.P.P.t.x.A.t.a.U.j.P.P.P.P.P.P.P.P.P.P.",
"P.P.P.P.P.P.P.P.P.P.P.P.P.P.P.P.k.M.T.k o f x.i.P.P.P.P.P.P.P.P.P.i.Y.i.P.v.H.x.P.P.P.P.P.P.P.P.P.P.",
"P.P.P.P.P.P.P.P.P.P.P.P.P.P.P.P.P.j. .@ % #.i.P.P.P.P.P.P.P.P.P.A.G.0.P.A.P.P.j.P.P.P.P.P.P.P.P.P.P.",
"P.P.P.P.P.P.P.P.P.P.P.P.P.P.P.P.h.P.h , s P.P.Y.P.P.P.P.P.P.P.P.v.j.Y.x.Y.Y.P.P.P.P.P.P.P.P.P.P.P.P.",
"P.P.P.P.P.P.P.P.P.P.P.P.P.P.P.P.t.} @ : #.k.Z.k.P.P.P.P.P.P.P.P.H.x.t.j.Y.P.s.t.P.P.P.P.P.P.P.P.P.P.",
"P.P.P.P.P.P.P.P.P.i.x.D.P.s.x.Z.k.j + : @ x G ' 6.Y.a.x.C.P.d.i.A.d.P.i.P.t.x.i.P.P.P.P.P.P.P.P.P.P.",
"P.P.P.P.P.P.P.P.i.P.j.i.j.i.P.x.&.+ # @ : @ o @ % n ~ C.U.t.a.G.J.i.x.k.d.P.N.t.P.P.P.P.P.P.P.P.P.P.",
"P.P.P.P.P.P.P.P.P.t.l.z.G.J.A.j.V o $ % : o % @ @ : : p W x.U.j.i.Q.t.P.h.Y.i.x.P.P.P.P.P.P.P.P.P.P.",
"P.P.P.P.P.P.P.P.j.U.a.H.w.G.x.=.= < + @ < < @ o @ @ @ @ , y  .x.i.d.P.J.J.t.P.i.P.P.P.P.P.P.P.P.P.P.",
"P.P.P.P.P.P.P.P.d.A.J.a.P.i.j.N @ @ @ @ @ @ @ : % @ < @ @ < @ R Y.e.Y.J.A.s.x.N.P.P.P.P.P.P.P.P.P.P.",
"P.P.P.P.P.P.P.P.P.P.i.t.P.P.P.A.P.&.X.W I g < o @ @ :   : @ % @ B P.P.x.I.t.P.x.P.P.P.P.P.P.P.P.P.P.",
"P.P.P.P.P.P.P.P.M.z.Z.U.a.P.j.P.x.t.P.j.P.P.t.] h % : : @ o @ O % S k.Y.A.P.P.Y.P.P.P.P.P.P.P.P.P.P.",
"P.P.P.P.P.P.P.P.k.Y.x.a.H.P.x.i.t.K.P.x.P.P.P.x.P. .f @ @ % @ $ @ : T Y.d.t.x.t.P.P.P.P.P.P.P.P.P.P.",
"P.P.P.P.P.P.P.P.P.P.P.P.P.P.P.P.P.P.P.P.P.P.P.P.N.P.v.E 4 < @ : @ @ $ o.x.Q.P.d.P.P.P.P.P.P.P.P.P.P.",
"P.P.P.P.P.P.P.P.P.P.P.P.P.P.P.P.P.P.P.P.P.P.P.P.P.U.t.i.>.6 @ % < @ @ v d.A.P.G.P.P.P.P.P.P.P.P.P.P.",
"P.P.P.P.P.P.P.P.P.P.P.P.P.P.P.P.P.P.P.P.P.P.P.P.x.Z.P.d.F.%.5 @ o % % : $.t.K.t.P.P.P.P.P.P.P.P.P.P.",
"P.P.P.P.P.P.P.P.P.P.P.P.P.P.P.P.P.P.P.P.P.P.P.P.P.J.t.i.W.i.X.> % @ : < D t.P.h.P.P.P.P.P.P.P.P.P.P.",
"P.P.P.P.P.P.P.P.P.P.P.P.P.P.P.P.P.P.P.P.P.P.P.P.Y.P.J.b.r.P.Z.H # @ @ : r T.t.A.P.P.P.P.P.P.P.P.P.P.",
"P.P.P.P.P.P.P.P.P.P.P.P.P.P.P.P.P.P.P.P.P.P.P.P.x.i.t.x.P.j.P.1.w < : o 1 2.z.m.P.P.P.P.P.P.P.P.P.P.",
"P.P.P.P.P.P.P.P.P.P.P.P.P.P.P.P.P.P.P.P.P.P.P.P.t.x.J.A.Y.P.Y.G.K @ % : @  .P.P.P.P.P.P.P.P.P.P.P.P.",
"P.P.P.P.P.P.P.P.P.P.P.P.P.P.P.P.P.P.P.P.P.P.P.P.j.P.P.P.x.A.P.x.&.: @ % : ..i.P.P.P.P.P.P.P.P.P.P.P.",
"P.P.P.P.P.P.P.P.P.P.P.P.P.P.P.P.P.P.P.P.P.P.P.P.t.P.G.A.x.P.Y.P.i.e % @ - { K.i.P.P.P.P.P.P.P.P.P.P.",
"P.P.P.P.P.P.P.P.P.P.P.P.P.P.P.P.P.P.P.P.P.P.P.P.P.x.P.G.P.P.P.j.k.s < @ X <.h.P.P.P.P.P.P.P.P.P.P.P.",
"P.P.P.P.P.P.P.P.P.P.P.P.P.P.P.P.P.P.P.P.P.P.P.P.G.P.P.Y.P.x.P.x.x.d X & % j.R.s.P.P.P.P.P.P.P.P.P.P.",
"P.P.P.P.P.P.P.P.P.P.P.P.P.P.P.P.P.P.P.P.P.P.P.P.A.G.Y.t.x.x.P.Y.A.s % > m P.t.k.P.P.P.P.P.P.P.P.P.P.",
"P.P.P.P.P.P.P.P.P.P.P.P.P.P.P.P.P.P.P.P.P.P.P.P.x.P.P.x.P.G.A.i.i.u = @ ) Z.P.P.P.P.P.P.P.P.P.P.P.P.",
"P.P.P.P.P.P.P.P.P.P.P.P.P.P.P.P.P.P.P.P.P.P.P.P.P.P.x.x.G.G.x.n.;.@ $ 7 3.G.d.P.P.P.P.P.P.P.P.P.P.P.",
"P.P.P.P.P.P.P.P.P.P.P.P.P.P.P.P.P.P.P.P.P.P.P.P.Y.P.P.P.A.x.x.B.I 3 : Y x.v.s.P.P.P.P.P.P.P.P.P.P.P.",
"P.P.P.P.P.P.P.P.P.P.P.P.P.P.P.P.P.P.P.P.P.P.P.P.P.j.x.Y.i.n.B.8.5 @ a J.P.P.x.P.P.P.P.P.P.P.P.P.P.P.",
"P.P.P.P.P.P.P.P.j.l.i.K.G.x.P.<.X.-.j.P.z.P.Z.x.j.P.A.P.P.s.P.m : 8 :.x.G.P.x.G.P.P.P.P.P.P.P.P.P.P.",
"P.P.P.P.P.P.P.P.!.r.P.P.i.P.` @ % @ J 3.d.t.G.G.A.x.x.x.i.P.Z @ < Q x.Z.P.k.J.t.P.P.P.P.P.P.P.P.P.P.",
"P.P.P.P.P.P.P.P.i.U.J.j.j.G.e @ : o % i | P.x.P.P.j.P.P.,.f @ ; ^ K.Y.s.P.G.P.u.P.P.P.P.P.P.P.P.P.P.",
"P.P.P.P.P.P.P.P.G.k.Z.P.g.P.0 @ $ @ o X : l _ -.j.4./ C < X q O.t.P.i.S.x.P.t.h.P.P.P.P.P.P.P.P.P.P.",
"P.P.P.P.P.P.P.P.Y.P.J.P.Z.P.I - @ @ X @ @ $ X @ % > @ $ @ A 7.Z.U.g.V.a.P.P.K.Y.P.P.P.P.P.P.P.P.P.P.",
"P.P.P.P.P.P.P.P.f.i.d.P.x.s.G.L : ; < @ o 2 * @ @ % $ M ;.j.Q.P.P.P.P.T.i.w.x.J.P.P.P.P.P.P.P.P.P.P.",
"P.P.P.P.P.P.P.P.G.P.G.P.D.Y.J.i.X.U z @ $ @ > j F ! 5.x.y.Z.Z.P.s.P.i.t.t.Y.G.p.P.P.P.P.P.P.P.P.P.P.",
"P.P.P.P.P.P.P.P.J.t.P.v.Y.z.x.P.G.P.P.x.x.P.x.Y.i.q.k.x.Z.x.t.i.x.s.G.k.f.P.t.P.P.P.P.P.P.P.P.P.P.P.",
"P.P.P.P.P.P.P.P.P.P.P.P.P.P.P.P.P.P.P.P.P.P.P.P.P.P.P.P.P.P.P.P.P.P.P.P.P.P.P.P.P.P.P.P.P.P.P.P.P.P.",
"P.P.P.P.P.P.P.P.P.P.P.P.P.P.P.P.P.P.P.P.P.P.P.P.P.P.P.P.P.P.P.P.P.P.P.P.P.P.P.P.P.P.P.P.P.P.P.P.P.P."
};
