/* XPM */
static char *_5729_791fe21f508dbb0824e6f63b335e3d30df6101f4858a5501a099a5fc7d949ebc[] = {
/* columns rows colors chars-per-pixel */
"50 50 215 2 ",
"   c #FA0100",
".  c #FC0000",
"X  c #FD0000",
"o  c #FD0100",
"O  c #FD0001",
"+  c #FE0000",
"@  c #FE0100",
"#  c #FF0100",
"$  c #FF0101",
"%  c #FE0200",
"&  c #FF0200",
"*  c #FE0300",
"=  c #FE0201",
"-  c #FD0002",
";  c #FE0002",
":  c #FE0003",
">  c #FE0103",
",  c #FF0103",
"<  c #FF0004",
"1  c #F10B0E",
"2  c #F30A0E",
"3  c #F6090F",
"4  c #F50B0E",
"5  c #F50A0F",
"6  c #F40B0F",
"7  c #F30D0F",
"8  c #F20B11",
"9  c #F10A12",
"0  c #F60911",
"q  c #F50A11",
"w  c #F40B11",
"e  c #F60B10",
"r  c #F70A12",
"t  c #F10C11",
"y  c #F30C12",
"u  c #F50C10",
"i  c #F50C12",
"p  c #E6171D",
"a  c #E9161F",
"s  c #EA171E",
"d  c #E9181E",
"f  c #EB181F",
"g  c #E91720",
"h  c #E81621",
"j  c #E91722",
"k  c #EB1723",
"l  c #ED1723",
"z  c #E71822",
"x  c #DD212F",
"c  c #DC242E",
"v  c #DF2030",
"b  c #DD2331",
"n  c #DE2230",
"m  c #DE2231",
"M  c #D32C3E",
"N  c #D22D3E",
"B  c #D12E3F",
"V  c #D32E3F",
"C  c #D42D3E",
"Z  c #D42D3F",
"A  c #E02131",
"S  c #D02D40",
"D  c #D32D41",
"F  c #D12E41",
"G  c #D22C42",
"H  c #D12E43",
"J  c #D52C41",
"K  c #C7394F",
"L  c #CA3753",
"P  c #C73951",
"I  c #C83851",
"U  c #CB3852",
"Y  c #BE435F",
"T  c #BB455D",
"R  c #BB455F",
"E  c #BE4360",
"W  c #BB4460",
"Q  c #BC4460",
"!  c #BD4561",
"~  c #BF4461",
"^  c #BF4463",
"/  c #B1506F",
"(  c #B04F70",
")  c #B24E70",
"_  c #B34E70",
"`  c #B34F71",
"'  c #B34D72",
"]  c #B04F72",
"[  c #A65A7E",
"{  c #A75B7F",
"}  c #B15071",
"|  c #B15073",
" . c #A75980",
".. c #A65A80",
"X. c #A65A81",
"o. c #A75983",
"O. c #A75B82",
"+. c #A95980",
"@. c #AA5A81",
"#. c #9B648B",
"$. c #9C638E",
"%. c #9D648D",
"&. c #9C658D",
"*. c #9D648F",
"=. c #936F9D",
"-. c #936F9F",
";. c #91709D",
":. c #91709F",
">. c #A16392",
",. c #877AAF",
"<. c #857DAE",
"1. c #867EAF",
"2. c #897DAF",
"3. c #9271A0",
"4. c #9171A2",
"5. c #9270A2",
"6. c #867CB0",
"7. c #867CB1",
"8. c #877DB1",
"9. c #887BB0",
"0. c #897BB0",
"q. c #897CB1",
"w. c #7A87BE",
"e. c #7D86BD",
"r. c #7C87BD",
"t. c #7D86BF",
"y. c #7B88BD",
"u. c #7B88BF",
"i. c #7D88BE",
"p. c #7B87C1",
"a. c #7B87C3",
"s. c #7D86C1",
"d. c #7E87C0",
"f. c #7D88C0",
"g. c #6F93CD",
"h. c #7393CC",
"j. c #7292CD",
"k. c #7191CE",
"l. c #7092CF",
"z. c #7393CE",
"x. c #7292CF",
"c. c #639DDD",
"v. c #659CDD",
"b. c #669DDD",
"n. c #679CDE",
"m. c #689DDF",
"M. c #7291D1",
"N. c #7092D1",
"B. c #7492D0",
"V. c #649DE0",
"C. c #669DE0",
"Z. c #689DE1",
"A. c #5BA8EC",
"S. c #5AA9EC",
"D. c #5AABED",
"F. c #59A9EE",
"G. c #5BA8EE",
"H. c #5AA9EE",
"J. c #5BAAEF",
"K. c #5CA9ED",
"L. c #5CA9EF",
"P. c #5FAAEE",
"I. c #59A9F0",
"U. c #5BA9F1",
"Y. c #5CA9F1",
"T. c #5BA8F6",
"R. c #5DA9F4",
"E. c #4EB3FB",
"W. c #4FB4FA",
"Q. c #4FB6FB",
"!. c #4DB3FE",
"~. c #4EB2FE",
"^. c #4FB3FE",
"/. c #4EB3FF",
"(. c #4FB3FF",
"). c #4DB5FC",
"_. c #4CB4FD",
"`. c #4EB4FC",
"'. c #4FB4FC",
"]. c #4FB5FD",
"[. c #4EB6FD",
"{. c #4DB5FE",
"}. c #4DB4FF",
"|. c #4EB4FE",
" X c #4EB4FF",
".X c #4FB4FF",
"XX c #4EB5FF",
"oX c #4FB5FF",
"OX c #4EB6FF",
"+X c #4FB6FF",
"@X c #4FB7FF",
"#X c #50B5FB",
"$X c #51B3FC",
"%X c #50B2FD",
"&X c #52B2FC",
"*X c #50B1FE",
"=X c #52B1FF",
"-X c #51B3FE",
";X c #51B2FF",
":X c #50B3FF",
">X c #52B2FE",
",X c #53B2FF",
"<X c #52B3FF",
"1X c #53B3FF",
"2X c #50B5FD",
"3X c #52B4FD",
"4X c #50B4FF",
"5X c #50B5FF",
"6X c #51B5FF",
"7X c #53B5FE",
"8X c #52B4FF",
"9X c #53B4FF",
"0X c #51B6FE",
"qX c #50B6FF",
"wX c #8086C2",
/* pixels */
"4X4X4X4X4X4X4X4X4X4X4X4X4X4X4X4XoXoX;X|.4X;X4X XoX8X4X X2X8X4XoX8X^.oX2X4X(.oX4X4X4X4X4X4X4X4X4X4X4X",
"4X4X4X4X4X4X4X4X4X4X4X4X4X4X4X4X^.].4X4X^.oX X4X(.].-XoX/. X6X8X(.6X~.8XXX7X;X4X4X4X4X4X4X4X4X4X4X4X",
"4X4X4X4X4X4X4X4X4X4X4X4X4X4X4X4X3X<X!.^.`.'.-X2X2X4X].'.8X4X}.oX4X|.oX4X4X|.].-X4X4X4X4X4X4X4X4X4X4X",
"4X4X4X4X4X4X4X4X4X4X4X4X4X4X4X4X^._.6X-X>X4X6X4XOX^.4X4X(.OX9.@.Z h + + # s.|.oX4X4X4X4X4X4X4X4X4X4X",
"4X4X4X4X4X4X4X4X4X4X4X4X4X4X4X4X4XoX;X'.4X{.2X4X'.6X^.i.Q i % $ + j I  .1.I.;X4X4X4X4X4X4X4X4X4X4X4X",
"4X4X4X4X4X4X4X4X4X4X4X4X4X4X4X4X4XoX8X6X^.oX8X;X(.M.D + & ; 6 } l.[.8X[.oXoX4X<X4X4X4X4X4X4X4X4X4X4X",
"4X4X4X4X4X4X4X4X4X4X4X4X4X4X4X4X`.^.4X X4X;XoX4X+., # ; # o.S.4X,X^.<X8XQ.4X2X4X4X4X4X4X4X4X4X4X4X4X",
"4X4X4X4X4X4X4X4X4X4X4X4X4X4X4X4X;X4X(.2X2X2XJ.m * + = g N.4XoX-X4XoX X4X4X^.2XoX4X4X4X4X4X4X4X4X4X4X",
"4X4X4X4X4X4X4X4X^.4X<X;XoX4X8X4X4X1X[. X2Xk.y # + ; x L.(.4X4X(.4X4X4X4X4X4X4X4X4X4X4X4X4X4X4X4X4X4X",
"4X4X4X4X4X4X4X4X4XoX4X<X4X4X4X|.|.;X(.8XN.r , ; ; n J.(.+X4X].2X4X4X4X4X4X4X4X4X4X4X4X4X4X4X4X4X4X4X",
"4X4X4X4X4X4X4X4X<X4X4X8X4XoX4XoX4X`.2Xz.q + + : x J.4X4X^.8X(.<X4X4X4X4X4X4X4X4X4X4X4X4X4X4X4X4X4X4X",
"4X4X4X4X4X4X4X4X;X<X8X^.oXoX4X8X(.4Xl.2 $ - o 6 L.(.4XOX^.4X(.4X4X4X4X4X4X4X4X4X4X4X4X4X4X4X4X4X4X4X",
"4X4X4X4X4X4X4X4XoX4X4XoX4X<X;X(.<XJ.a # + ; ; r.(.+X^.^.<X4X4X`.4X4X4X4X4X4X4X4X4X4X4X4X4X4X4X4X4X4X",
"4X4X4X4X4X4X4X4X4X4XoXoX<X<XoX@X4XN $ ; : # ) oX4X4X8X4X4X|.4X<X4X4X4X4X4X4X4X4X4X4X4X4X4X4X4X4X4X4X",
"4X4X4X4X4X4X4X4X8X4X4X4X;XoXoX&X*.$ ; < @ t A.4X4X].(.(.4X4X&XoX4X4X4X4X4X4X4X4X4X4X4X4X4X4X4X4X4X4X",
"4X4X4X4X4X4X4X4X4X|.oX8X(.@X&XT.7 + # + + %.6X4X(.2X<X4X`.<XoXoX4X4X4X4X4X4X4X4X4X4X4X4X4X4X4X4X4X4X",
"4X4X4X4X4X4X4X4X^.oX4X4X4XoX^.R ; + # ; 5 R.].4X2X;X^.oX|.<X4XoX<X4X^.oXoX(.'.4X4X4X4X4X4X4X4X4X4X4X",
"4X4X4X4X4X4X4X4X4X1X4X^.qX-XC.+ % $ + + | ^.2X X(.oX4X|.8X X4X<XXX4XoX4X4X4X4X X4X4X4X4X4X4X4X4X4X4X",
"4X4X4X4X4X4X4X4X4X{.oX4X^. X_ + + , $ + c.8X#X;X8X4X].4X4X].8XoX4X X X8X4X-X4X4X4X4X4X4X4X4X4X4X4X4X",
"4X4X4X4X4X4X4X4X4XOX;X|.8X].1 $ $ + . A 4X X4Xp.( C ; + : p E a.-X<XoX8XoXoX3XoX4X4X4X4X4X4X4X4X4X4X",
"4X4X4X4X4X4X4X4X(.oX<X-X4X:.$ + # @ $ %.4X5.d + + o ; , $ - + + S m.2X4X6X-X(.2X4X4X4X4X4X4X4X4X4X4X",
"4X4X4X4X4X4X4X4XW.-X|.oX;XL # - + + ; &.c + ; 0 B G u + o ; & + $ 8 j.(.4XOXoX^.4X4X4X4X4X4X4X4X4X4X",
"4X4X4X4X4X4X4X4X4XoX(.oXQ.6 + + : ; @ + o Y g.|.(.6X#X<.k ; $ + + + e B. X8X}.1X4X4X4X4X4X4X4X4X4X4X",
"4X4X4X4X4X4X4X4X4X`.4X8Xx.$ o + + + + V n. XoX8X4X).4X<XS.n + > + + + 9 P.^.3XoX4X4X4X4X4X4X4X4X4X4X",
"4X4X4X4X4X4X4X4X(.(.4X4X-.+ ; + , + ` 2X(.4XoX4X<X'.4X2X<XD.q $ + + < + Y 4X-X^.4X4X4X4X4X4X4X4X4X4X",
"4X4X4X4X4X4X4X4X4X4X'.4XO.$ + + + + :.4XoX-X].6X].4X<X4X<X^.4.+ + + + $ o V.oX(.4X4X4X4X4X4X4X4X4X4X",
"4X4X4X4X4X4X4X4XoX'.4X4XW + + # ; ; d.'.oX4X4X^.2X4XoX|.`.oX'.l ; $ O @ O / 4XoX4X4X4X4X4X4X4X4X4X4X",
"4X4X4X4X4X4X4X4X4XoX8X^.H ; + ; $ o r.oX;X{..X4X8X4X'.8X^.<X5X#.$ . $ + , v 3X(.4X4X4X4X4X4X4X4X4X4X",
"4X4X4X4X4X4X4X4XoX|.<X`.J ; + + + $ 4X4X4X4X^.(.4XoX|.<XoX<X!.Z.# + , +   # 8X4X4X4X4X4X4X4X4X4X4X4X",
"4X4X4X4X4X4X4X4XoX'.oXoXZ . + + + + 4XoX4X^.4X6X<X4X4X^.8XoX8X`.A + + + $ + j.oX4X4X4X4X4X4X4X4X4X4X",
"4X4X4X4X4X4X4X4X=X6X`..XM $ > : ; ; 8X`.oX4X<XoXoX'.6X|.oX/.oX(.~ O $ . + , u.<X4X4X4X4X4X4X4X4X4X4X",
"4X4X4X4X4X4X4X4X4X'.4X^.~ + + + $ + ;XoX4X<X`.oX4X4X-X4X|.<X4X^.[ , X ; ; # y.^.4X4X4X4X4X4X4X4X4X4X",
"4X4X4X4X4X4X4X4X(.4X4X-XX.+ + , + + 2X4X X6X'.8X^.4X<X;XoX4X8X4X,.+ ; > @ $ wX|.4X4X4X4X4X4X4X4X4X4X",
"4X4X4X4X4X4X4X4X`.<X4X$X8.+ + + + ; t.^.4X|.4X}.4XoX4X<X4X4X4X|.p.$ + + $ , F.4X4X4X4X4X4X4X4X4X4X4X",
"4X4X4X4X4X4X4X4X8XoX|.qXv.< o + ; X 0.4X3X<X^.4X<X4X4X8X4XoX4XoXf.+ , + = 3 oX-X4X4X4X4X4X4X4X4X4X4X",
"4X4X4X4X4X4X4X4X4X<XoX`.4Xb + ; + % ) |.2XOX4X^.;X<X8X^.oXoX4X8Xe., o X + K 4X X4X4X4X4X4X4X4X4X4X4X",
"4X4X4X4X4X4X4X4XoX-XOX4X(.$.$ $ $ + A  X6X4X!.1XoX4X4XoX4X<X;X(.7.; + ; $ 3.{.^.4X4X4X4X4X4X4X4X4X4X",
"4X4X4X4X4X4X4X4X4X^.4X;X].K.; + # + & b.XX;X4X^.4X4XoXoX<X<XoX@X[ $ + + 5 Y.:X^.4X4X4X4X4X4X4X4X4X4X",
"4X4X4X4X4X4X4X4X;XoX$XoX4X^.` $ + > + >.|.qX3XoX8X4X4X4X;XoXoX&XP + $ + { |.^.4X4X4X4X4X4X4X4X4X4X4X",
"4X4X4X4X4X4X4X4XoX^.1XOX X<XL.6 $ # : s (.;X4XoX4X|.oX8X(.@X&XT.+ , ; q U.oX^.4X4X4X4X4X4X4X4X4X4X4X",
"4X4X4X4X4X4X4X4X].(.#X;X].<X^.2.+ : # o *.^.8X4X4X<X%X4XoX4X4X..+ # ; 6.XX2X'.4X4X4X4X4X4X4X4X4X4X4X",
"4X4X4X4X4X4X4X4X4X4X4XoX4X(.qX^.} ; + ; u j.|.XXXX|.1XE.(.2Xh.3 + @ ' 8X4X;XoX4X4X4X4X4X4X4X4X4X4X4X",
"4X4X4X4X4X4X4X4XoX^.(.oX8XqX(.<X$X^ $ ; O m G.<X-X4X4X{.oXl.6 , + ! <X).oX4X4X-X4X4X4X4X4X4X4X4X4X4X",
"4X4X4X4X4X4X4X4XoX8X`.<X(.8X4X].4X-XT # + + g :.4X4X(.4X;.6 + ; ] |.8X3XoX(.8XoX4X4X4X4X4X4X4X4X4X4X",
"4X4X4X4X4X4X4X4X(.1X|.4X<XoXoX;X X(.oXq.6 > ; & 4 C F w , + f w.^.<XXX4XoX;X1X{.4X4X4X4X4X4X4X4X4X4X",
"4X4X4X4X4X4X4X4X^.OXoX|.`.(.4X#X-XoX4X-XH.=.U z + + + C ) r.(.3X8XoX(.<X^.(.$X4X4X4X4X4X4X4X4X4X4X4X",
"4X4X4X4X4X4X4X4X4X XOX1X8X^.4X(.<X(.#X^.4X4X^.|.4X4XoX4XoX X(.8X4X/.0X'.6X^.oX;X4X4X4X4X4X4X4X4X4X4X",
"4X4X4X4X4X4X4X4XoX4X^.(.oXoX4X].].^.XX<X4XXX4X$X4X;X-X|.*X4X(.oX|.8X(.4X X9X|.4X4X4X4X4X4X4X4X4X4X4X",
"4X4X4X4X4X4X4X4X4X4X4X4X4X4X4X4X4X4X4X4X4X4X4X4X4X4X4X4X4X4X4X4X4X4X4X4X4X4X4X4X4X4X4X4X4X4X4X4X4X4X",
"4X4X4X4X4X4X4X4X4X4X4X4X4X4X4X4X4X4X4X4X4X4X4X4X4X4X4X4X4X4X4X4X4X4X4X4X4X4X4X4X4X4X4X4X4X4X4X4X4X4X"
};
