/* XPM */
static char *_7035_7a3da1a762fd8a0f3e2962974ca412828a26fc31be4082ef7b2a7668573554b6[] = {
/* columns rows colors chars-per-pixel */
"50 50 154 2 ",
"   c #FD0000",
".  c #FD0100",
"X  c #FD0001",
"o  c #FE0000",
"O  c #FE0100",
"+  c #FF0100",
"@  c #FF0101",
"#  c #FD0200",
"$  c #FC0300",
"%  c #FE0200",
"&  c #FE0201",
"*  c #FD0002",
"=  c #FE0002",
"-  c #FE0003",
";  c #FF0103",
":  c #FF0004",
">  c #FE0104",
",  c #FF0204",
"<  c #F10B0E",
"1  c #F50B0E",
"2  c #F40B0F",
"3  c #F50A11",
"4  c #F40B11",
"5  c #F50C10",
"6  c #E8171D",
"7  c #E9181E",
"8  c #E91521",
"9  c #E91720",
"0  c #EA1720",
"q  c #E91722",
"w  c #EB1821",
"e  c #DE232E",
"r  c #DF2030",
"t  c #DC2230",
"y  c #DD2330",
"u  c #DC2331",
"i  c #DD2331",
"p  c #DE2230",
"a  c #D22C40",
"s  c #D32D41",
"d  c #D42D41",
"f  c #C7374E",
"g  c #C8384F",
"h  c #CA384F",
"j  c #C83851",
"k  c #C83853",
"l  c #BE435F",
"z  c #BC445F",
"x  c #BF4260",
"c  c #BE4362",
"v  c #BB4460",
"b  c #BC4460",
"n  c #BF4460",
"m  c #B04F6E",
"M  c #B24F6E",
"N  c #B1506F",
"B  c #B34F71",
"V  c #B24E72",
"C  c #A75A7C",
"Z  c #A65A7E",
"A  c #A65A80",
"S  c #AA5A81",
"D  c #A85A82",
"F  c #9C648B",
"G  c #9D648D",
"H  c #9E6590",
"J  c #9F6691",
"K  c #9D6592",
"L  c #9E6592",
"P  c #936F9F",
"I  c #946E9D",
"U  c #94709E",
"Y  c #936EA1",
"T  c #867CAE",
"R  c #847EAE",
"E  c #857FAF",
"W  c #9271A0",
"Q  c #857DB0",
"!  c #857CB1",
"~  c #867CB0",
"^  c #887BB0",
"/  c #7D86BD",
"(  c #7C87BD",
")  c #7C85BE",
"_  c #7D86BF",
"`  c #7C87BF",
"'  c #7B88BF",
"]  c #7A8ABE",
"[  c #7C86C1",
"{  c #7E87C0",
"}  c #7C88C2",
"|  c #6E92CC",
" . c #6F91CE",
".. c #7292CD",
"X. c #7391CF",
"o. c #7092CF",
"O. c #6F91D1",
"+. c #6F93D1",
"@. c #669DDE",
"#. c #649EDE",
"$. c #679EDE",
"%. c #649DE0",
"&. c #669DE0",
"*. c #679EE1",
"=. c #679CE2",
"-. c #649FE3",
";. c #5AABED",
":. c #5AA9EE",
">. c #5AAAEF",
",. c #5BAAEF",
"<. c #5CA9EF",
"1. c #5EA8EF",
"2. c #5CA9F1",
"3. c #4FB6FB",
"4. c #4EB7FB",
"5. c #4DB3FD",
"6. c #4EB2FD",
"7. c #4EB2FE",
"8. c #4FB3FE",
"9. c #4EB3FF",
"0. c #4FB3FF",
"q. c #4DB5FC",
"w. c #4EB4FC",
"e. c #4FB4FC",
"r. c #4FB5FD",
"t. c #4EB6FD",
"y. c #4DB5FE",
"u. c #4DB4FF",
"i. c #4EB4FE",
"p. c #4EB4FF",
"a. c #4FB4FF",
"s. c #4EB5FF",
"d. c #4FB5FF",
"f. c #4EB6FF",
"g. c #50B5FB",
"h. c #52B4FB",
"j. c #51B3FC",
"k. c #52B1FF",
"l. c #51B3FE",
"z. c #51B2FF",
"x. c #52B2FF",
"c. c #52B3FF",
"v. c #53B3FF",
"b. c #50B5FD",
"n. c #52B4FD",
"m. c #50B4FF",
"M. c #50B5FF",
"N. c #51B5FF",
"B. c #52B4FF",
"V. c #53B4FF",
"C. c #53B5FF",
"Z. c #50B6FE",
"A. c #51B6FE",
"S. c #50B6FF",
/* pixels */
"m.m.m.m.m.m.m.m.c.8.8.S.d.m.m.m.m.8.i.m.w.m.e.m.m.m.m.m.m.m.m.m.8.0.d.0.B.d.m.i.m.m.m.m.m.m.m.m.m.m.",
"m.m.m.m.m.m.m.m.8.c.0.p.0.m.r.d.b.B.m.m.m.8.m.0.m.m.m.m.m.m.m.m.b.b.8.b.a.n.0.8.m.m.m.m.m.m.m.m.m.m.",
"m.m.m.m.m.m.m.m.8.0.8.B.m.m.8.c.f.l.m.e.0.c.q.b.m.m.m.m.m.m.m.m.c.d.m.l.p.f.8.0.m.m.m.m.m.m.m.m.m.m.",
"m.m.m.m.m.m.m.m.S.p.B.r.d.c.f.y.0.l.B.M.m.i.m.d.m.m.m.m.m.m.m.m.m.u.d.B.c.9.m.r.m.m.m.m.m.m.m.m.m.m.",
"m.m.m.m.m.m.m.m.d.0.m.d.m.d.r.l.m.] ' ) / ` ' _ ( ( ( ( ( ( ( ( ( { [ ( [ } ..c.m.m.m.m.m.m.m.m.m.m.",
"m.m.m.m.m.m.m.m.m.m.m.c.d.w.x.c.~ o o @ o * o o o o o o o o o o . o o @ + + d u.m.m.m.m.m.m.m.m.m.m.",
"m.m.m.m.m.m.m.m.m.r.8.f.r.x.m.w.k o . o @ . % = o o o o o o o o + = @   ; = b m.m.m.m.m.m.m.m.m.m.m.",
"m.m.m.m.m.m.m.m.m.d.c.y.l.c.w.#.o = o ; o + o o o o o o o o o o o o X $ o . ^ j.m.m.m.m.m.m.m.m.m.m.",
"m.m.m.m.m.m.m.m.m.8.m.8.d.l.B.H o @ o o o o o = o o o o o o o o o . o o o 1 m.e.m.m.m.m.m.m.m.m.m.m.",
"m.m.m.m.m.m.m.m.i.B.i.r.0.V.5.7 @ ; = y h C S A A A A A A A A A Z A 6 o @ v 0.c.m.m.m.m.m.m.m.m.m.m.",
"m.m.m.m.m.m.m.m.m.d.x.c.m.m.' o o a $.z.z.s.m.i.m.m.m.m.m.m.m.m.b.:.; o @ P m.d.m.m.m.m.m.m.m.m.m.m.",
"m.m.m.m.m.m.m.m.d.i.m.d.m.8.n = l n.y.B.i.c.l.g.m.m.m.m.m.m.m.m.m.I o ; o 1.3.d.m.m.m.m.m.m.m.m.m.m.",
"m.m.m.m.m.m.m.m.j.i.l.8.e.,.= b m.d.m.l.e.m.m.B.m.m.m.m.m.m.m.m.p.j o . g d.c.8.m.m.m.m.m.m.m.m.m.m.",
"m.m.m.m.m.m.m.m.m.m.m.z.m.K t b.d.l.d.m.m.7.d.0.m.m.m.m.m.m.m.m.;.@ o o W 0.8.c.m.m.m.m.m.m.m.m.m.m.",
"m.m.m.m.m.m.m.m.m.l.p.m.p.E / c.0.v.p.0.n.d.d.d.m.m.m.m.m.m.m.m.U o ,   >.d.j.t.m.m.m.m.m.m.m.m.m.m.",
"m.m.m.m.m.m.m.m.m.b.m.c.m.B.B.u.i.d.l.m.8.m.8.m.m.m.m.m.m.m.m.m.f ; o g 0.0.l.m.m.m.m.m.m.m.m.m.m.m.",
"m.m.m.m.m.m.m.m.m.m.m.m.m.m.m.m.m.m.m.m.m.m.m.m.8.m.j.m.0.8.d.2.o + = Y y.e.0.c.m.m.m.m.m.m.m.m.m.m.",
"m.m.m.m.m.m.m.m.m.m.m.m.m.m.m.m.m.m.m.m.m.m.m.m.b.m.c.m.c.m.w.U ; X . <.m.a.d.d.m.m.m.m.m.m.m.m.m.m.",
"m.m.m.m.m.m.m.m.m.m.m.m.m.m.m.m.m.m.m.m.m.m.m.m.d.c.m.i.d.e.d.j . o g m.8.m.c.B.m.m.m.m.m.m.m.m.m.m.",
"m.m.m.m.m.m.m.m.m.m.m.m.m.m.m.m.m.m.m.m.m.m.m.m.m.8.m.m.n.B.m.3 - o G p.m.8.d.d.m.m.m.m.m.m.m.m.m.m.",
"m.m.m.m.m.m.m.m.m.m.m.m.m.m.m.m.m.m.m.m.m.m.m.m.m.m.b.0.p.d.^ = = o *.8.m.c.l.0.m.m.m.m.m.m.m.m.m.m.",
"m.m.m.m.m.m.m.m.m.m.m.m.m.m.m.m.m.m.m.m.m.m.m.m.m.u.m.B.d.k.z o o e 6.S.p.i.0.B.m.m.m.m.m.m.m.m.m.m.",
"m.m.m.m.m.m.m.m.m.m.m.m.m.m.m.m.m.m.m.m.m.m.m.m.v.0.8.f.l.A.2 o . J b.p.n.d.m.8.m.m.m.m.m.m.m.m.m.m.",
"m.m.m.m.m.m.m.m.m.m.m.m.m.m.m.m.m.m.m.m.m.m.m.m.i.m.B.p.c.R o o o %.m.8.b.k.d.d.m.m.m.m.m.m.m.m.m.m.",
"m.m.m.m.m.m.m.m.m.m.m.m.m.m.m.m.m.m.m.m.m.m.m.m.m.m.8.d.p.c o o u c.l.f.z.8.d.8.m.m.m.m.m.m.m.m.m.m.",
"m.m.m.m.m.m.m.m.m.m.m.m.m.m.m.m.m.m.m.m.m.m.m.m.d.b.c.i.n.2 # o F d.l.m.m.m.m.c.m.m.m.m.m.m.m.m.m.m.",
"m.m.m.m.m.m.m.m.m.m.m.m.m.m.m.m.m.m.m.m.m.m.m.m.B.d.0.m.~ o o + -.0.m.m.m.m.m.m.m.m.m.m.m.m.m.m.m.m.",
"m.m.m.m.m.m.m.m.m.m.m.m.m.m.m.m.m.m.m.m.m.m.m.m.d.8.v.d.b ; = p z.z.m.m.B.i.d.d.m.m.m.m.m.m.m.m.m.m.",
"m.m.m.m.m.m.m.m.m.m.m.m.m.m.m.m.m.m.m.m.m.m.m.m.s.B.4.c.0 o o D m.d.B.z.b.0.d.l.m.m.m.m.m.m.m.m.m.m.",
"m.m.m.m.m.m.m.m.m.m.m.m.m.m.m.m.m.m.m.m.m.m.m.m.d.c.d.| @ o @  .B.r.d.m.r.c.m.c.m.m.m.m.m.m.m.m.m.m.",
"m.m.m.m.m.m.m.m.m.m.m.m.m.m.m.m.m.m.m.m.m.m.m.m.B.m.8.V o o 9 a.z.e.d.d.d.c.0.d.m.m.m.m.m.m.m.m.m.m.",
"m.m.m.m.m.m.m.m.m.m.m.m.m.m.m.m.m.m.m.m.m.m.m.m.S.m.d.8 o o M m.8.m.B.m.B.3.d.m.m.m.m.m.m.m.m.m.m.m.",
"m.m.m.m.m.m.m.m.m.m.m.m.m.m.m.m.m.m.m.m.m.m.m.m.w.m.X.= . + o.0.m.m.m.m.m.m.m.m.m.m.m.m.m.m.m.m.m.m.",
"m.m.m.m.m.m.m.m.m.m.m.m.m.m.m.m.m.m.m.m.m.m.m.m.a.0.B + : 8 Z.m.m.m.m.m.m.m.m.m.m.m.m.m.m.m.m.m.m.m.",
"m.m.m.m.m.m.m.m.m.m.m.m.m.m.m.m.m.m.m.m.m.m.m.m.z.m.q . . N b.n.m.m.m.m.m.m.m.m.m.m.m.m.m.m.m.m.m.m.",
"m.m.m.m.m.m.m.m.m.m.m.m.m.m.m.m.m.m.m.m.m.m.m.m.m.+.o @ o O.C.m.m.m.m.m.m.m.m.m.m.m.m.m.m.m.m.m.m.m.",
"m.m.m.m.m.m.m.m.m.m.m.m.m.m.m.m.m.m.m.m.m.m.m.m.m.m o   w d.0.d.m.m.m.m.m.m.m.m.m.m.m.m.m.m.m.m.m.m.",
"m.m.m.m.m.m.m.m.m.m.m.m.m.m.m.m.m.m.m.m.m.m.m.m.m.i ; o m N.j.d.m.m.m.m.m.m.m.m.m.m.m.m.m.m.m.m.m.m.",
"m.m.m.m.m.m.m.m.m.m.m.m.m.m.m.m.m.m.m.m.m.m.m.m.@.O   ; Q c.d.l.m.m.m.m.m.m.m.m.m.m.m.m.m.m.m.m.m.m.",
"m.m.m.m.m.m.m.m.m.m.m.m.m.m.m.m.m.m.m.m.m.m.m.m.H - + < h.0.m.d.m.m.m.m.m.m.m.m.m.m.m.m.m.m.m.m.m.m.",
"m.m.m.m.m.m.m.m.m.m.m.m.m.m.m.m.m.m.d.m.b.d.m.d.r ; . n m.d.d.m.m.m.m.m.m.m.m.m.m.m.m.m.m.m.m.m.m.m.",
"m.m.m.m.m.m.m.m.m.m.m.m.m.m.m.m.l.S.0.m.8.d.z.&.& o o T d.j.m.m.m.m.m.m.m.m.m.m.m.m.m.m.m.m.m.m.m.m.",
"m.m.m.m.m.m.m.m.m.m.m.m.m.m.m.m.m.7.N.d.m.6.B.H = = 4 8.m.m.p.m.m.m.m.m.m.m.m.m.m.m.m.m.m.m.m.m.m.m.",
"m.m.m.m.m.m.m.m.m.m.m.m.m.m.m.m.n.d.e.d.m.r.B.p O > l d.m.0.B.d.m.m.m.m.m.m.m.m.m.m.m.m.m.m.m.m.m.m.",
"m.m.m.m.m.m.m.m.m.m.m.m.m.m.m.m.m.8.v.m.p.b.=.. o = ! m.m.i.m.0.m.m.m.m.m.m.m.m.m.m.m.m.m.m.m.m.m.m.",
"m.m.m.m.m.m.m.m.m.m.m.m.m.m.m.m.f.d.n.l.m.m.L o o 5 c.z.d.y.j.S.m.m.m.m.m.m.m.m.m.m.m.m.m.m.m.m.m.m.",
"m.m.m.m.m.m.m.m.m.m.m.m.m.m.m.m.B.f.n.0.i.d.s = o x w.m.8.c.d.8.m.m.m.m.m.m.m.m.m.m.m.m.m.m.m.m.m.m.",
"m.m.m.m.m.m.m.m.m.m.m.m.m.m.m.m.0.v.9.m.0.m.m.3.i.m.i.a.B.s.x.f.m.m.m.m.m.m.m.m.m.m.m.m.m.m.m.m.m.m.",
"m.m.m.m.m.m.m.m.m.m.m.m.m.m.m.m.m.m.m.m.m.m.m.m.m.m.m.m.m.m.m.m.m.m.m.m.m.m.m.m.m.m.m.m.m.m.m.m.m.m.",
"m.m.m.m.m.m.m.m.m.m.m.m.m.m.m.m.m.m.m.m.m.m.m.m.m.m.m.m.m.m.m.m.m.m.m.m.m.m.m.m.m.m.m.m.m.m.m.m.m.m."
};
