/* XPM */
static char *_9327_91ee3c24e1eeaec760c6a78c1818dde8e82b6b49ecfa64ef9c7ea50925024585[] = {
/* columns rows colors chars-per-pixel */
"50 50 226 2 ",
"   c #FC0000",
".  c #FD0000",
"X  c #FD0100",
"o  c #FD0001",
"O  c #FE0000",
"+  c #FE0100",
"@  c #FF0100",
"#  c #FF0101",
"$  c #FC0301",
"%  c #FE0200",
"&  c #FF0200",
"*  c #FE0300",
"=  c #FF0300",
"-  c #FE0201",
";  c #FD0002",
":  c #FE0002",
">  c #FE0003",
",  c #FF0103",
"<  c #FF0004",
"1  c #F5090B",
"2  c #F30A0E",
"3  c #F40B0E",
"4  c #F50A0F",
"5  c #F40B0F",
"6  c #F60A0E",
"7  c #F20C0E",
"8  c #F20C0F",
"9  c #F40C0C",
"0  c #F30A10",
"q  c #F40B11",
"w  c #F60B10",
"e  c #F50913",
"r  c #F30C12",
"t  c #F50C10",
"y  c #F60D11",
"u  c #F50C12",
"i  c #E8161F",
"p  c #E9161F",
"a  c #EA171E",
"s  c #E7181E",
"d  c #E91521",
"f  c #EA1720",
"g  c #EA1622",
"h  c #DF202F",
"j  c #DD232E",
"k  c #DC222F",
"l  c #DC2230",
"z  c #DD2330",
"x  c #DE2230",
"c  c #DE2231",
"v  c #DD2233",
"b  c #DF2332",
"n  c #DC2430",
"m  c #D32C3D",
"M  c #D02E3D",
"N  c #D32C3E",
"B  c #D22D3E",
"V  c #D32E3F",
"C  c #D42D3E",
"Z  c #D42D3F",
"A  c #E0222E",
"S  c #E02130",
"D  c #D32D41",
"F  c #D12E41",
"G  c #D22C42",
"H  c #D42D41",
"J  c #D42F40",
"K  c #D62D42",
"L  c #C73A4D",
"P  c #C7394F",
"I  c #C8384F",
"U  c #CA384F",
"Y  c #CA3751",
"T  c #C83853",
"R  c #BE435F",
"E  c #BB455D",
"W  c #BB455F",
"Q  c #BE445D",
"!  c #BC465C",
"~  c #BC445F",
"^  c #AF4E6F",
"/  c #BF4260",
"(  c #BC4460",
")  c #BC4561",
"_  c #BD4561",
"`  c #BC4660",
"'  c #BC4563",
"]  c #B24F6E",
"[  c #B0516F",
"{  c #B24E72",
"}  c #B34F73",
"|  c #B44E73",
" . c #A65B7C",
".. c #A65A7E",
"X. c #A75A7E",
"o. c #A75B7F",
"O. c #A9597E",
"+. c #A55B80",
"@. c #A55A81",
"#. c #A65A80",
"$. c #A65A81",
"%. c #A75B81",
"&. c #A65B82",
"*. c #A95980",
"=. c #A85A81",
"-. c #9B678E",
";. c #9C658D",
":. c #9E648C",
">. c #9E658E",
",. c #9D668E",
"<. c #9C6390",
"1. c #9F6693",
"2. c #936F9F",
"3. c #91709D",
"4. c #90719D",
"5. c #90709F",
"6. c #92719E",
"7. c #867CAE",
"8. c #877DAF",
"9. c #9171A0",
"0. c #9271A0",
"q. c #9270A2",
"w. c #9470A0",
"e. c #867BB3",
"r. c #867CB0",
"t. c #887BB0",
"y. c #887BB1",
"u. c #7E85BC",
"i. c #7C87BF",
"p. c #7B88BF",
"a. c #7E87C0",
"s. c #7D87C2",
"d. c #7A89C0",
"f. c #7A89C2",
"g. c #6F94CB",
"h. c #6F91CE",
"j. c #6E92CE",
"k. c #7391CD",
"l. c #7292CD",
"z. c #7191CE",
"x. c #7290CE",
"c. c #7391CF",
"v. c #7092CF",
"b. c #7393CE",
"n. c #7292CF",
"m. c #7194CC",
"M. c #7194CE",
"N. c #669DDD",
"B. c #649EDD",
"V. c #669DDE",
"C. c #7391D1",
"Z. c #7092D1",
"A. c #7393D0",
"S. c #7193D2",
"D. c #7193D3",
"F. c #7392D2",
"G. c #7392D3",
"H. c #679CE0",
"J. c #669DE0",
"K. c #659EE1",
"L. c #679EE1",
"P. c #679DE3",
"I. c #59A8EB",
"U. c #5BAAED",
"Y. c #5AABED",
"T. c #5AA9EE",
"R. c #5AAAEF",
"E. c #5BAAEF",
"W. c #5CA9ED",
"Q. c #5CA9EF",
"!. c #5DAAEE",
"~. c #59A9F0",
"^. c #5AA8F0",
"/. c #5BA8F0",
"(. c #5BA9F1",
"). c #5AAAF3",
"_. c #4FB4FA",
"`. c #4FB6FB",
"'. c #4EB2FD",
"]. c #4FB3FE",
"[. c #4FB2FF",
"{. c #4EB3FF",
"}. c #4FB3FF",
"|. c #4DB5FC",
" X c #4EB4FC",
".X c #4FB4FC",
"XX c #4FB5FD",
"oX c #4EB6FD",
"OX c #4DB5FE",
"+X c #4DB4FF",
"@X c #4EB4FE",
"#X c #4EB4FF",
"$X c #4FB4FF",
"%X c #4EB5FF",
"&X c #4FB5FF",
"*X c #4FB7FE",
"=X c #4EB6FF",
"-X c #4FB7FF",
";X c #51B1FB",
":X c #50B2FB",
">X c #50B5FB",
",X c #52B4FB",
"<X c #51B3FC",
"1X c #50B2FD",
"2X c #52B2FC",
"3X c #53B3FD",
"4X c #52B1FF",
"5X c #51B3FE",
"6X c #51B2FF",
"7X c #50B3FF",
"8X c #52B2FE",
"9X c #52B2FF",
"0X c #53B2FF",
"qX c #52B3FF",
"wX c #53B3FF",
"eX c #50B5FD",
"rX c #52B4FD",
"tX c #50B4FF",
"yX c #50B5FF",
"uX c #51B5FF",
"iX c #52B4FF",
"pX c #53B4FF",
"aX c #50B6FE",
"sX c #51B6FE",
"dX c #50B6FF",
"fX c #54B4FF",
/* pixels */
"tXtXtXtXtXtXtXtXtXtXtXtXtXtXtXtXeX&XtXiXtX&X}.eX&X%X}.tX&XtX@XtXXX}.tX&X&XiX&X].tXtXtXtXtXtXtXtXtXtX",
"tXtXtXtXtXtXtXtXtXtXtXtXtXtXtXtXqX$X<XtX5XqXsX&XtX}.tX}.].&X}.qX}.tX].iXiX#X<X$XtXtXtXtXtXtXtXtXtXtX",
"tXtXtXtXtXtXtXtXtXtXtXtXtXtXtXtX&X&XtXiX#X&X}.&X&X&X5X&X&X'.tXtXtX@X>XuX5X@XuXtXtXtXtXtXtXtXtXtXtXtX",
"tXtXtXtXtXtXtXtXtXtXtXtXtXtXtXtXtX].tX].&X5XtX}.}.eXtX:X].aX5XtX}.iXuX].pX@XiXtXtXtXtXtXtXtXtXtXtXtX",
"tXtXtXtXtXtXtXtXtXtXtXtXtXtXtXtX6X&X6X&X].g.*.H 6 : ; $ d Y ;.J.&XtX@XtXiX}.&X&XtXtXtXtXtXtXtXtXtXtX",
"tXtXtXtXtXtXtXtXtXtXtXtXtXtXtXtXwX{.tXb.D X O O X V C B O O O # ~ V.tXqX#X&X5X3XtXtXtXtXtXtXtXtXtXtX",
"tXtXtXtXtXtXtXtXtXtXtXtXtXtXtXtX#X}.0.- > > Z 7.}.}.&X}.rXe.B O O e a.#XiX}.%XrXtXtXtXtXtXtXtXtXtXtX",
"tXtXtXtXtXtXtXtXtXtXtXtXtXtXtXtXtXw.O @ O ] tXtX].tX6XtXXX6X&XR X : O t.&XqX&X}.tXtXtXtXtXtXtXtXtXtX",
"tXtXtXtXtXtXtXtXtXtX5X$X].eX].&X8.: : O ~ tXtXtXtXtXtXtXtXtXtXtXj : O q N.].uX].tXtXtXtXtXtXtXtXtXtX",
"tXtXtXtXtXtXtXtX@XtX&XtX%X'.pX Xa @ O 6 !.@XtX&XtXtXtXtXtXtXtXtXy.# # O _ tX.XuXtXtXtXtXtXtXtXtXtXtX",
"tXtXtXtXtXtXtXtXqX&XtX@XeXtX6Xw.: @ X ( {.tXtX].tXtXtXtXtXtXtXtX&X. O O @ P.tX5XtXtXtXtXtXtXtXtXtXtX",
"tXtXtXtXtXtXtXtXtX#XrXqXtX#X#XP # O O  .}.].&XtXtXtXtXtXtXtXtXtX&XD @ O > 9.}.tXtXtXtXtXtXtXtXtXtXtX",
"tXtXtXtXtXtXtXtX#XtXtX{.&XtX.X9 O # : =.#XiX&X5XtXtXtXtXtXtXtXtXeXK o @ # #.rXqXtXtXtXtXtXtXtXtXtXtX",
"tXtXtXtXtXtXtXtX&X4X@X0XtX@XtX> # * O D qXtX}.tXtXtXtXtXtXtXtXtX#XH # . O $.+XoXtXtXtXtXtXtXtXtXtXtX",
"tXtXtXtXtXtXtXtXiX@XtXtX.XdXqXX : # + : V.tX=X}.tXtXtXtXtXtXtXtX&X8 : # : 7.6XtXtXtXtXtXtXtXtXtXtXtX",
"tXtXtXtXtXtXtXtXtX&XtX&XwX&X Xg # O O : ) 8X&XtXtXtXtXtXtXtXtXtXk.; # O u <XtX#XtXtXtXtXtXtXtXtXtXtX",
"tXtXtXtXtXtXtXtX].&XiX&X].uX].Q : O O : # r.].tX}.qXXX6XXXeX6X.X| O O O @.XXqXtXtXtXtXtXtXtXtXtXtXtX",
"tXtXtXtXtXtXtXtX}.iXiX6XtX X}.i.O : - > O 5 D.#X X}._.uXtX}.tXH.7 + : p Q.tXiX}.tXtXtXtXtXtXtXtXtXtX",
"tXtXtXtXtXtXtXtXtXtXeXqXtXeX}.].M # O = O > 3 6.}.@XtX$X#X&XW.S > > 5 c.}..X}.tXtXtXtXtXtXtXtXtXtXtX",
"tXtXtXtXtXtXtXtXtX+X@XtX].qXtX&XG.O O   # O O # ..qX.X].3XiXT O # 1 v.&XtX}.iX|.tXtXtXtXtXtXtXtXtXtX",
"tXtXtXtXtXtXtXtX5X&X#X}.&XtXtX5XtX3.O X O O O O , E T.%XiX~ : O h S.tX].tX#XuX}.tXtXtXtXtXtXtXtXtXtX",
"tXtXtXtXtXtXtXtX}.eX}.].tX].tX&XiX{.] ; O O : , O # b J.z # : W E.#XXXqX}.rX].tXtXtXtXtXtXtXtXtXtXtX",
"tXtXtXtXtXtXtXtX&XeXtXeXtXqXeX.X&X&X#X%., O & O # ; # @ O t r.wXtXtX5X{.rXeX}.iXtXtXtXtXtXtXtXtXtXtX",
"tXtXtXtXtXtXtXtXtX5X.XiX#XtX&X&XtX].qX].w.O O , O O O O # <.&XtXtX@XqX&XeX@XqX].tXtXtXtXtXtXtXtXtXtX",
"tXtXtXtXtXtXtXtXtXtXtXtXtXtXtXtX{.rXtXtXtXq.w O O : # O # O { tXeX{.5XtXtX@XtXtXtXtXtXtXtXtXtXtXtXtX",
"tXtXtXtXtXtXtXtXtXtXtXtXtXtXtXtX#X].&X&X].].[ O @ O # : O O , C Q.].uXtX].aX&X}.tXtXtXtXtXtXtXtXtXtX",
"tXtXtXtXtXtXtXtXtXtXtXtXtXtXtXtXiX8X$X@X^.U O 3 H O ; # @ # O ; x L.%X6XfX[.tX&XtXtXtXtXtXtXtXtXtXtX",
"tXtXtXtXtXtXtXtXtXtXtXtXtXtXtXtXiXqX XC.n # 2 F.&X^ # o O - O # # q m.-X}.eXeX6XtXtXtXtXtXtXtXtXtXtX",
"tXtXtXtXtXtXtXtXtXtXtXtXtXtXtXtX%XuXj.r . : Z.].tXwX4.# X - , O : # 0 l.}.uX].XXtXtXtXtXtXtXtXtXtXtX",
"tXtXtXtXtXtXtXtXtXtXtXtXtXtXtXtX.Xz.y   - >.5XXX$X>X&Xn.u . O O . @ : A U.5X7X6XtXtXtXtXtXtXtXtXtXtX",
"tXtXtXtXtXtXtXtXtXtXtXtXtXtXtXtX).3 O , c {.eX&XqX#XtXqXl.f O O # : O # P ].tX#XtXtXtXtXtXtXtXtXtXtX",
"tXtXtXtXtXtXtXtXtXtXtXtXtXtXtXtXB # ; O 7.+X9XtXrX&X].&X].(.x O O O @ : O i. XiXtXtXtXtXtXtXtXtXtXtX",
"tXtXtXtXtXtXtXtXtX@XtX].&X'.&X6.O # : 5 iX].}.&X6XtXiXtX5XuXI.v O X : O O L tXtXtXtXtXtXtXtXtXtXtXtX",
"tXtXtXtXtXtXtXtXqXtX].uX].tX&Xl O + : ' ].tX}.tXtXOX}.qX&X5XuXx.4 # # O o O R.tXtXtXtXtXtXtXtXtXtXtX",
"tXtXtXtXtXtXtXtXXX@XtXtXiXtXv.O O X O :.&X'.tX}.].}.tXiX&X&X].iXd.. % , @ : t.tXtXtXtXtXtXtXtXtXtXtX",
"tXtXtXtXtXtXtXtXtX@X].5X&X#X2.@ . O : u.eX$X&X@XqXoXXXtX<XtX%XeX6X/ : # : : O.uXtXtXtXtXtXtXtXtXtXtX",
"tXtXtXtXtXtXtXtX6XtX}.tX}.&X&.O # : : f.}.'.&XqX{.tX6XtX&X5XqX]..XB., @ : O o.}.tXtXtXtXtXtXtXtXtXtX",
"tXtXtXtXtXtXtXtX@X].qXtX6XrX..< O @ . p.&XqX5XXX`.qXtX.XtX&X&X].tX6Xs O O : +.}.tXtXtXtXtXtXtXtXtXtX",
"tXtXtXtXtXtXtXtX&X].].tX XtXy.O : O O 0.}.<X&XqXtX&XtX&X&XeXtXtX}.uXN # O O s.tXtXtXtXtXtXtXtXtXtXtX",
"tXtXtXtXtXtXtXtXqX.X$X#XwX@XV.O : O O ( tXiX&X@XtXtX#XiX@XwX5XtXtX].J O X O (..XtXtXtXtXtXtXtXtXtXtX",
"tXtXtXtXtXtXtXtX].tX].uX].&X@XI : O O 8 iX&X].rX&XiXtX@XtX].8X.XtX&Xq # X R qXtXtXtXtXtXtXtXtXtXtXtX",
"tXtXtXtXtXtXtXtXtX@XtXtXtX}.qXn.# X @ O -.}.yX#X&X}.tXuX6X=XtX}.6X5.@ : O K..X*XtXtXtXtXtXtXtXtXtXtX",
"tXtXtXtXtXtXtXtXtX&XwX}.eXtX].=X=.o , : 5 A.1XtX6XtX&XXXuX}.#X&XY.g O + ,.}.pX6XtXtXtXtXtXtXtXtXtXtX",
"tXtXtXtXtXtXtXtX}.tX}.tXXX_.tX5X5X! . @ : q M.,X&XtX}.tX;XtXeX/.k : : ` @X5X].&XtXtXtXtXtXtXtXtXtXtX",
"tXtXtXtXtXtXtXtXiX.XtX].}.tX}.%XtX}.} X @ O t $.V.].@XtXqX~.X.t O O >.$X.XtX}.tXtXtXtXtXtXtXtXtXtXtX",
"tXtXtXtXtXtXtXtXtXtXeX.X&XtX@X2X#XtXtXi.H O # : : p F G i , X O H S.].tXiX$XtXtXtXtXtXtXtXtXtXtXtXtX",
"tXtXtXtXtXtXtXtX%XtX XqX=X].tXtXtX5XeXiX=Xh.{ Z 3 : O # a m 1.J.tX&X&X].-X}.`.tXtXtXtXtXtXtXtXtXtXtX",
"tXtXtXtXtXtXtXtXqXXXtXtXqXpX.X&X].%X=X9X}.tX<XtXtX&X5XqX&X=X5XtXtXtXiXeX}.iXtX}.tXtXtXtXtXtXtXtXtXtX",
"tXtXtXtXtXtXtXtXtXtXtXtXtXtXtXtXtXtXtXtXtXtXtXtXtXtXtXtXtXtXtXtXtXtXtXtXtXtXtXtXtXtXtXtXtXtXtXtXtXtX",
"tXtXtXtXtXtXtXtXtXtXtXtXtXtXtXtXtXtXtXtXtXtXtXtXtXtXtXtXtXtXtXtXtXtXtXtXtXtXtXtXtXtXtXtXtXtXtXtXtXtX"
};
