/* XPM */
static char *_84_29924b27509d18ae165751467ad55174be459193413c21dd74c5e8d3d12d22d5[] = {
/* columns rows colors chars-per-pixel */
"50 50 202 2 ",
"   c #FD0000",
".  c #FD0100",
"X  c #FC0001",
"o  c #FD0001",
"O  c #FE0000",
"+  c #FE0100",
"@  c #FF0100",
"#  c #FF0101",
"$  c #FD0200",
"%  c #FC0301",
"&  c #FE0200",
"*  c #FF0200",
"=  c #FE0300",
"-  c #FE0201",
";  c #FD0002",
":  c #FE0002",
">  c #FE0003",
",  c #FE0103",
"<  c #FF0103",
"1  c #FF0004",
"2  c #FC0204",
"3  c #FF0204",
"4  c #F10B0D",
"5  c #F40B0E",
"6  c #F50B0E",
"7  c #F50A0F",
"8  c #F40B0F",
"9  c #F60A0E",
"0  c #F20C0E",
"q  c #F20C0F",
"w  c #F30A10",
"e  c #F20B11",
"r  c #F40B11",
"t  c #F60B12",
"y  c #F30D10",
"u  c #F50C10",
"i  c #F50C12",
"p  c #E8171D",
"a  c #EB151F",
"s  c #E8161F",
"d  c #E9161F",
"f  c #EA171E",
"g  c #E7181E",
"h  c #E9181E",
"j  c #E91720",
"k  c #E81621",
"l  c #EA1720",
"z  c #E91722",
"x  c #E71820",
"c  c #E71822",
"v  c #DF202F",
"b  c #DD2330",
"n  c #DD2331",
"m  c #DE2230",
"M  c #D22D3D",
"N  c #D22D3E",
"B  c #D02F3F",
"V  c #D32E3F",
"C  c #D52C3F",
"Z  c #D42D3F",
"A  c #E0202D",
"S  c #E0222E",
"D  c #E02131",
"F  c #D32C40",
"G  c #D32D41",
"H  c #D32D43",
"J  c #D52C41",
"K  c #D42D41",
"L  c #D42F40",
"P  c #D62D42",
"I  c #D42E42",
"U  c #C6384E",
"Y  c #C8384F",
"T  c #C73750",
"R  c #CA3751",
"E  c #C73951",
"W  c #C83851",
"Q  c #BE435F",
"!  c #BC445F",
"~  c #BC4362",
"^  c #BC4561",
"/  c #BD4561",
"(  c #BF4461",
")  c #B24F6C",
"_  c #B04F6E",
"`  c #B04F70",
"'  c #B24E70",
"]  c #B34F71",
"[  c #B04F72",
"{  c #B44F71",
"}  c #B04E74",
"|  c #B34F75",
" . c #A65B7C",
".. c #A75A7E",
"X. c #A85B7F",
"o. c #B15071",
"O. c #A75980",
"+. c #A75981",
"@. c #A85A81",
"#. c #AA5A81",
"$. c #9D648D",
"%. c #9C658D",
"&. c #9C658F",
"*. c #9D668E",
"=. c #9C688F",
"-. c #9F6490",
";. c #9D6690",
":. c #906F9E",
">. c #91709D",
",. c #91709F",
"<. c #94709E",
"1. c #A1648D",
"2. c #9271A0",
"3. c #9470A0",
"4. c #9571A1",
"5. c #867CB0",
"6. c #867CB1",
"7. c #877DB2",
"8. c #7A87BE",
"9. c #7D86BD",
"0. c #7C87BD",
"q. c #7D86BF",
"w. c #7C87BF",
"e. c #7B88BD",
"r. c #7C88BC",
"t. c #7D88BE",
"y. c #7D88C0",
"u. c #7292CD",
"i. c #7391CF",
"p. c #7092CF",
"a. c #7292CF",
"s. c #6F93D1",
"d. c #679DDD",
"f. c #659CDF",
"g. c #669DDE",
"h. c #659FDE",
"j. c #7291D1",
"k. c #7193D2",
"l. c #7492D0",
"z. c #649DE0",
"x. c #669DE0",
"c. c #659EE1",
"v. c #669CE2",
"b. c #679CE2",
"n. c #59A9EE",
"m. c #5BA8EE",
"M. c #5AA9EE",
"N. c #5AAAEF",
"B. c #5BAAEF",
"V. c #5CA9ED",
"C. c #5CAAEC",
"Z. c #5CA9EF",
"A. c #5BA8F0",
"S. c #5BA9F1",
"D. c #5CA9F1",
"F. c #5DAAF2",
"G. c #4DB3FB",
"H. c #4EB3FB",
"J. c #4FB4FA",
"K. c #4EB5FA",
"L. c #4EB2FD",
"P. c #4FB3FE",
"I. c #4FB2FF",
"U. c #4EB3FF",
"Y. c #4FB3FF",
"T. c #4EB4FC",
"R. c #4FB4FC",
"E. c #4FB5FD",
"W. c #4EB6FD",
"Q. c #4DB5FE",
"!. c #4DB4FF",
"~. c #4EB4FE",
"^. c #4EB4FF",
"/. c #4FB4FF",
"(. c #4EB5FF",
"). c #4FB5FF",
"_. c #4EB6FF",
"`. c #51B3FA",
"'. c #52B4FB",
"]. c #51B3FC",
"[. c #50B2FD",
"{. c #51B3FE",
"}. c #51B2FF",
"|. c #50B3FF",
" X c #52B2FE",
".X c #52B2FF",
"XX c #53B2FF",
"oX c #52B3FF",
"OX c #53B3FF",
"+X c #50B5FD",
"@X c #53B5FC",
"#X c #52B4FD",
"$X c #50B4FF",
"%X c #51B5FF",
"&X c #53B5FE",
"*X c #52B4FF",
"=X c #53B4FF",
"-X c #53B5FF",
";X c #50B6FE",
":X c #51B6FE",
">X c #50B6FF",
",X c #54B4FF",
/* pixels */
"$X$X$X$X$X$X$X$X$X$X$X$X$X$X$X$X$X).{.$X$X~.$X+X$XY.Y.$XJ.OX$XP.$XR.$X$XY.$X}.).$X$X$X$X$X$X$X$X$X$X",
"$X$X$X$X$X$X$X$X$X$X$X$X$X$X$X$X}.:X~.^.+XOXP.Y.P._.^.#X).P.(.*X}.%X}.$X'.).{.P.$X$X$X$X$X$X$X$X$X$X",
"$X$X$X$X$X$X$X$X$X$X$X$X$X$X$X$X$XY.>XoX~.$XP.).{.#X}.$X%XY.).Y.).P.(.$XoXR.%X$X$X$X$X$X$X$X$X$X$X$X",
"$X$X$X$X$X$X$X$X$X$X$X$X$X$X$X$XP.).E.$X$X$X).$X).}.).Y.~.$XY.$XoXP.R.$X).$X^.oX$X$X$X$X$X$X$X$X$X$X",
"$X$X$X$X$X$X$X$X$X$X$X$X$X$X$X$X).$X^.*XoXz.-.Z q # O y C 1.h.~.#X).oX$XY.{.+X+X$X$X$X$X$X$X$X$X$X$X",
"$X$X$X$X$X$X$X$X$X$X$X$X$X$X$X$X}.$X].F.! = : $ v P n . : > O | B.^.Y.).$X*XY.$X$X$X$X$X$X$X$X$X$X$X",
"$X$X$X$X$X$X$X$X$X$X$X$X$X$X$X$X>X$X0.w < O E x.).{.$Xv.W : . + s k.P.K.).~.^.{.$X$X$X$X$X$X$X$X$X$X",
"$X$X$X$X$X$X$X$X$X$X$X$X$X$X$X$X^.<.O & : >.Y.*XY.$XP.OXR.4.O ; O 9 a.$X~.oX$X$X$X$X$X$X$X$X$X$X$X$X",
"$X$X$X$X$X$X$X$XP.$XY.$X~.P.Y.^.u.r O # ' +X}.).$X*XY.Y.$X$X{ : O # 0 d.).].*X$X$X$X$X$X$X$X$X$X$X$X",
"$X$X$X$X$X$X$X$X$X$X$XP.).oXR.n.c # O j S.P.).$X).$XL.$XY.~.).g < O : n Y.$X^.$X$X$X$X$X$X$X$X$X$X$X",
"$X$X$X$X$X$X$X$X$X~.Y.%X$X~.$XO.#   < O.$X).E.*X/.!.%XG.oX@XP.3.# < O O X.P.T.P.$X$X$X$X$X$X$X$X$X$X",
"$X$X$X$X$X$X$X$XQ.oXY.*XY.oXg.O O # . j.K./.*X$X&X}.Y.$X$X^.oXY.8 O ; # q V.}.+X$X$X$X$X$X$X$X$X$X$X",
"$X$X$X$X$X$X$X$X).R.J.~.W.{.` O O O > %X$X$X!.$XP.+XoX).*X~._.P.( O # O # #.P.$X$X$X$X$X$X$X$X$X$X$X",
"$X$X$X$X$X$X$X$X}.}.).~.*X$Xt O O : b $X$XXX).$X-X).Y.$X$X X{.).6.O . < O 4 $X~.$X$X$X$X$X$X$X$X$X$X",
"$X$X$X$X$X$X$X$X$XR.).-X$Xp.  : # : V P.:X*XR.$X).Y.:X^.).Y.$XY.B.O @ o * O 5.$X$X$X$X$X$X$X$X$X$X$X",
"$X$X$X$X$X$X$X$XP./.+XoX$X%.@ O : @ V $X^.^.Y.$X^.*X X).{.$X~.*XoXd O < O , _ {.$X$X$X$X$X$X$X$X$X$X",
"$X$X$X$X$X$X$X$X$X*XY.).~.] : O O O H +X$XOX~.oX$X$X$X$X$X$X$X$XY.G O < O O D (.$X$X$X$X$X$X$X$X$X$X",
"$X$X$X$X$X$X$X$X$X+X~. X%XM O . # # V ).P.).*XP.$X$X$X$X$X$X$X$X$Xo.@ O < #   *X$X$X$X$X$X$X$X$X$X$X",
"$X$X$X$X$X$X$X$X).P.).$XY.J O : : # i }.$X*XP.$X$X$X$X$X$X$X$X$XY.O.. @ O   - x.$X$X$X$X$X$X$X$X$X$X",
"$X$X$X$X$X$X$X$X/..X].E.$XV # O @ < O ).Y.).$X$X$X$X$X$X$X$X$X$XoX+.+ < ; #   w.$X$X$X$X$X$X$X$X$X$X",
"$X$X$X$X$X$X$X$XT.OX$X).$XN # : O : # q.).!.*XE.$X$X$X$X$X$X$X$X$X#.< O : O O w.$X$X$X$X$X$X$X$X$X$X",
"$X$X$X$X$X$X$X$X+X$X~.P.=X .# + : . O O.E.OX*X$X$X$X$X$X$X$X$X$X_...O # O @ ; 9.$X$X$X$X$X$X$X$X$X$X",
"$X$X$X$X$X$X$X$XY.$X%X*X~.7.O O < O # D $X$X$XY.$X$X$X$X$X$X$X$X).G : < O O < e.$X$X$X$X$X$X$X$X$X$X",
"$X$X$X$X$X$X$X$X$X).T.$XOXZ.O O O O o # r.$X^.+X$X$X$X$X$X$X$X$XY.F O . O . O u.$X$X$X$X$X$X$X$X$X$X",
"$X$X$X$X$X$X$X$X!.*X*XoXT.$XR O O O # o K Y.-X^.$X^.$XY.$X$XR.T.$XD O O O < O $X$X$X$X$X$X$X$X$X$X$X",
"$X$X$X$X$X$X$X$X*X$XP.$X$XH.e.< O 2   : . <.`.oX%XP.$X>XY.{.$XoXD.O # O O ; f ].$X$X$X$X$X$X$X$X$X$X",
"$X$X$X$X$X$X$X$XP.).).Y.).+X$X) : : # O   u s.$X*X).H.*XT.%XQ.t.x # O . * O Y $X$X$X$X$X$X$X$X$X$X$X",
"$X$X$X$X$X$X$X$X$X].$XoXY.P.$X$XS O : O O O O @.n.oXoX{.C.:.L O O < , 1 O O *.~.$X$X$X$X$X$X$X$X$X$X",
"$X$X$X$X$X$X$X$XP.).$XT.{.=XP.+XN.W O O O O < O O N B k * O : ] W @ O O 1 O a.$X$X$X$X$X$X$X$X$X$X$X",
"$X$X$X$X$X$X$X$X$XoX).#X/.~.$XP.).+XO.i % O O # : O < : O / c.~.a : O O . l $XoX$X$X$X$X$X$X$X$X$X$X",
"$X$X$X$X$X$X$X$XP._.$X{.oX$XP.$X$X[.%XA.;.C r O O h Y 2.m.*X*Xp.. o 3   # O.$X$X$X$X$X$X$X$X$X$X$X$X",
"$X$X$X$X$X$X$X$X*X^.~.oX$X~.*XP.$X>XP.R.$X$X$X$X).*X}.).$XoX$X[   @ X < $ b.$X+X$X$X$X$X$X$X$X$X$X$X",
"$X$X$X$X$X$X$X$X$X$X$X$X$X$X$X$X$X$X$X$X$X$X$X$XOXY.:XP.^.$X$X5 # O O O ^ P.E.Y.$X$X$X$X$X$X$X$X$X$X",
"$X$X$X$X$X$X$X$X$X$X$X$X$X$X$X$X$X$X$X$X$X$X$X$X).^.Q.oX$X$X>.; : - O O f.+X{.%X$X$X$X$X$X$X$X$X$X$X",
"$X$X$X$X$X$X$X$X$X$X$X$X$X$X$X$X$X$X$X$X$X$X$X$X$XR.oX+XR.).d O @ O # } ^.oX).}.$X$X$X$X$X$X$X$X$X$X",
"$X$X$X$X$X$X$X$X$X$X$X$X$X$X$X$X$X$X$X$X$X$X$X$X$X$X$XY._.&.# O O < p M.>X{.W.).$X$X$X$X$X$X$X$X$X$X",
"$X$X$X$X$X$X$X$X$X$X$X$X$X$X$X$X$X$X$X$X$X$X$X$XoX].~.$XD.6 O O : O y.$XP.=X$XP.$X$X$X$X$X$X$X$X$X$X",
"$X$X$X$X$X$X$X$X$X$X$X$X$X$X$X$X$X$X$X$X$X$X$X$XT.~.%X^.U O # O O O.$XoX$X^.$X+X$X$X$X$X$X$X$X$X$X$X",
"$X$X$X$X$X$X$X$X$X$X$X$X$X$X$X$X$X$X$X$X$X$X$X$X|.$X`.3.O O O O Q E.!.).$X(.#X$X$X$X$X$X$X$X$X$X$X$X",
"$X$X$X$X$X$X$X$X$X$X$X$X$X$X$X$X$X$X$X$X$X$X$X$XR.$Xi.e O O : W P.Y.P.$X}.R.).).$X$X$X$X$X$X$X$X$X$X",
"$X$X$X$X$X$X$X$X{.$X).}.$X).{.$XY.).^.$XR.$X).P.Y.N.8 < O O / R.$X$X$X$X$X$X$X$X$X$X$X$X$X$X$X$X$X$X",
"$X$X$X$X$X$X$X$X$X^.$X$XQ.oXQ.Y.*XE.$X{.P.^.R.*XS.A # ; . ~ P.$X$X$X$X$X$X$X$X$X$X$X$X$X$X$X$X$X$X$X",
"$X$X$X$X$X$X$X$XP.*XY.#XP.oX$X$X}.*XE.U.>X*XU.a.l : O + ,.E.$XT.$X$X$X$X$X$X$X$X$X$X$X$X$X$X$X$X$X$X",
"$X$X$X$X$X$X$X$X$XP.$XI.).P.).$X).$X$X$X~.oX$.7 O O b p.}.$XY.$X$X$X$X$X$X$X$X$X$X$X$X$X$X$X$X$X$X$X",
"$X$X$X$X$X$X$X$XY._.$XP.$X>X}.oX+XY.P.~.2.z o O w =.oX$X$X_.).T.$X$X$X$X$X$X$X$X$X$X$X$X$X$X$X$X$X$X",
"$X$X$X$X$X$X$X$X}.].$X_./.$X).E.8.3.! 8 O O j *.B.~.Y.*X%X^.,XP.$X$X$X$X$X$X$X$X$X$X$X$X$X$X$X$X$X$X",
"$X$X$X$X$X$X$X$X{.~.)..X$X+XI O O O m T *.l.Y.$XP.%X*XoX{.>XY.$X$X$X$X$X$X$X$X$X$X$X$X$X$X$X$X$X$X$X",
"$X$X$X$X$X$X$X$XQ.oXY.;XP.oX~.$X(.T.$X}./.P.*X$X$X}.~.).oXW.oXW.$X$X$X$X$X$X$X$X$X$X$X$X$X$X$X$X$X$X",
"$X$X$X$X$X$X$X$X$X$X$X$X$X$X$X$X$X$X$X$X$X$X$X$X$X$X$X$X$X$X$X$X$X$X$X$X$X$X$X$X$X$X$X$X$X$X$X$X$X$X",
"$X$X$X$X$X$X$X$X$X$X$X$X$X$X$X$X$X$X$X$X$X$X$X$X$X$X$X$X$X$X$X$X$X$X$X$X$X$X$X$X$X$X$X$X$X$X$X$X$X$X"
};
