/* XPM */
static char *_4523_9c9a31f08080ced6e52cdaba6980bf9d3bfa8533392713f2abeadc7826dd6fa8[] = {
/* columns rows colors chars-per-pixel */
"50 50 176 2 ",
"   c #2C150D",
".  c #2C190F",
"X  c #301A0D",
"o  c #2D1B14",
"O  c #2D1E1A",
"+  c #271D14",
"@  c #311C13",
"#  c #311F1A",
"$  c #2F211B",
"%  c #31211C",
"&  c #352116",
"*  c #2F2120",
"=  c #3D2B23",
"-  c #372C2A",
";  c #342520",
":  c #2F3239",
">  c #402F28",
",  c #402C25",
"<  c #45342C",
"1  c #533F35",
"2  c #077224",
"3  c #1A7A3C",
"4  c #27793B",
"5  c #54423A",
"6  c #5B463D",
"7  c #4F523D",
"8  c #59513E",
"9  c #604A3F",
"0  c #436A3E",
"q  c #373C42",
"w  c #3C4049",
"e  c #327C49",
"r  c #5D4941",
"t  c #424951",
"y  c #47515A",
"u  c #634E43",
"i  c #665045",
"p  c #695246",
"a  c #675348",
"s  c #6B5549",
"d  c #6E584C",
"f  c #635E4A",
"g  c #715A4D",
"h  c #745D50",
"j  c #426C44",
"k  c #5A6F4E",
"l  c #4C784A",
"z  c #58704C",
"x  c #5D6D52",
"c  c #537F50",
"v  c #5A7D53",
"b  c #796156",
"n  c #7D665A",
"m  c #786A5C",
"M  c #6C7956",
"N  c #727C5E",
"B  c #7F6B60",
"V  c #797478",
"C  c #856957",
"Z  c #826A5E",
"A  c #8A6D5E",
"S  c #866757",
"D  c #96715E",
"F  c #806760",
"G  c #856D62",
"H  c #896E62",
"J  c #877163",
"K  c #8B7265",
"L  c #8D7569",
"P  c #8C7B6B",
"I  c #877766",
"U  c #927667",
"Y  c #917669",
"T  c #937B6D",
"R  c #9A7C6D",
"E  c #987967",
"W  c #877974",
"Q  c #8C7D78",
"!  c #977C71",
"~  c #997E71",
"^  c #A27C69",
"/  c #5B8158",
"(  c #638259",
")  c #7B8366",
"_  c #8C826E",
"`  c #848365",
"'  c #928669",
"]  c #9C816D",
"[  c #868870",
"{  c #948273",
"}  c #9C8374",
"|  c #948973",
" . c #9F8876",
".. c #9E8579",
"X. c #9E8A7D",
"o. c #96837D",
"O. c #A5856F",
"+. c #AC856E",
"@. c #A28575",
"#. c #A98674",
"$. c #A48976",
"%. c #AA8975",
"&. c #A28779",
"*. c #A48A7B",
"=. c #AA8C7C",
"-. c #3B7782",
";. c #467392",
":. c #777D83",
">. c #807D84",
",. c #5F9391",
"<. c #7C818B",
"1. c #788B9E",
"2. c #798694",
"3. c #4382AE",
"4. c #5B9CA2",
"5. c #4B89B6",
"6. c #4986B5",
"7. c #6A8DAD",
"8. c #728CA3",
"9. c #7A95AD",
"0. c #7D99AF",
"q. c #6699B8",
"w. c #7599B5",
"e. c #7B9DBC",
"r. c #41A3AE",
"t. c #53A4B9",
"y. c #79A2BE",
"u. c #5D9DCB",
"i. c #639AC4",
"p. c #6A9BC5",
"a. c #769EC4",
"s. c #48AACF",
"d. c #5BA1C3",
"f. c #5DA4DA",
"g. c #57A1D6",
"h. c #66A1CD",
"j. c #6EA1CC",
"k. c #75A1C3",
"l. c #78A6C8",
"z. c #6AA5D2",
"x. c #6AA8D7",
"c. c #6AA7DA",
"v. c #66A9DC",
"b. c #69AADC",
"n. c #5DA7E3",
"m. c #5DABE5",
"M. c #56AEED",
"N. c #5BACEA",
"B. c #57B1EE",
"V. c #59AFF1",
"C. c #4EB4FF",
"Z. c #4CB9FE",
"A. c #4DB3F3",
"S. c #54B1F5",
"D. c #5AB0F5",
"F. c #50B4FF",
"G. c #52B9FF",
"H. c #62ABE3",
"J. c #60ACE8",
"K. c #54C2FF",
"L. c #878383",
"P. c #958A87",
"I. c #9D8C83",
"U. c #958D8C",
"Y. c #9B8D8B",
"T. c #99918D",
"R. c #96918E",
"E. c #848B98",
"W. c #988F90",
"Q. c #89959D",
"!. c #919295",
"~. c #A38C82",
"^. c #B08A81",
"/. c #8A96A2",
"(. c #8499AC",
"). c #819BB2",
/* pixels */
"F.F.F.F.F.F.F.F.F.F.C.F.F.F.F.F.C.F.C.F.F.F.F.F.F.C.F.F.F.F.F.F.F.F.F.C.F.F.F.F.F.F.C.F.F.F.F.F.F.F.",
"F.F.F.F.F.C.F.F.F.F.F.F.C.F.F.F.C.C.F.F.F.F.F.F.F.F.F.F.F.C.F.C.F.C.F.F.F.F.C.F.F.F.F.F.F.F.C.F.F.F.",
"C.F.F.C.F.F.F.F.F.F.F.F.F.F.F.F.F.F.C.F.F.F.F.C.C.C.F.F.F.F.F.F.F.F.F.F.F.F.F.F.F.F.F.F.C.F.F.F.C.F.",
"F.F.F.F.F.F.F.C.C.F.F.F.F.F.F.C.F.F.F.F.F.F.C.F.F.F.C.F.F.C.A.F.F.F.F.C.F.C.F.F.F.F.C.F.F.F.F.F.F.F.",
"F.F.C.F.F.F.F.F.F.F.F.F.F.F.F.F.F.F.C.C.C.C.C.F.F.F.F.F.F.F.F.F.F.F.F.F.F.F.F.F.F.F.F.F.F.C.F.C.F.F.",
"F.F.F.F.C.F.F.F.F.F.C.F.F.C.F.F.F.F.F.F.C.F.F.F.F.F.C.F.F.F.F.F.C.F.F.F.C.F.F.C.F.C.F.F.F.F.F.F.C.F.",
"F.C.F.F.F.F.C.F.C.F.F.F.F.F.F.F.F.C.F.S.x.j.~.&.*.k.z.N.Z.Z.C.F.F.F.C.F.F.F.F.F.F.F.F.F.F.F.C.F.F.F.",
"F.F.F.F.C.F.F.F.F.F.F.F.C.F.C.F.S.H.).!.&.$.&.*.*.&.&.U.1.f.F.C.F.F.F.F.F.F.F.F.F.F.C.F.F.F.F.F.F.F.",
"F.F.C.F.F.F.F.F.F.F.F.C.C.F.F.Z.H.Y.#.$.$.&.*.*.&.*.*.R C F i.G.C.C.F.F.C.F.F.F.F.F.C.F.F.F.F.F.F.F.",
"F.F.F.F.F.F.C.F.F.F.F.F.F.C.F.C.v.&.&.&.*.*.$.~.*.*.} G G C <.Z.Z.C.F.F.F.C.C.C.F.F.F.F.F.C.F.F.F.C.",
"F.F.F.F.C.F.F.F.F.F.F.F.F.C.F.F./.@.~.&. .*.@.~ T L G G J J W a.H.S.Z.C.F.F.F.F.F.C.F.F.F.F.F.F.F.F.",
"F.F.C.F.F.F.F.F.C.F.C.F.F.C.C.x.*.*.&.&.L L Y T ! { } *.$.&.$.@.P.!.y.N.C.F.F.C.F.F.F.F.C.F.C.F.F.F.",
"F.F.F.F.F.C.F.C.F.F.F.C.F.C.A.Q.' &.*.&.&.&.=.~.*.*.=.$.*.*.&.*.*.#.$.R.e.N.C.C.F.F.F.C.C.F.F.F.F.C.",
"F.C.F.F.F.F.F.F.F.F.F.F.C.C.,.( c &.&.| [ ) _ { &.&.*.*.*.*.*.*.*.*.*.@.} Q.S.Z.F.F.F.F.F.F.F.F.F.F.",
"F.F.F.F.F.F.C.F.F.F.C.F.A.t.e 2 3 / l l x M P $.*.*.*.*.&.} } } T Y K G H $.v.C.F.F.F.F.F.F.F.F.F.F.",
"F.F.F.C.F.F.F.F.C.F.C.C.q.M M ) z z m G Y *.=.&.*.*.*.&.*.} Y L H Z Z G Z  .c.C.F.C.F.F.F.F.F.F.F.F.",
"C.F.F.F.F.F.F.F.C.C.S.e.~.=.=.&.H H Y @.*.*.*.*.*.*.=.&.&.*.=.*.&.{ L Z Z A p.Z.F.F.F.F.C.C.C.C.F.F.",
"F.F.F.C.F.C.C.F.C.S.(.$.&.&.&.G n K *.*.&.=.~.*.@.} ~  .~.=. .*.*.=.@.G J A :.p.M.F.F.F.F.F.C.F.F.F.",
"C.F.C.F.F.F.F.C.C.m.| *.=.&.T H P ..~.=.$.Y n g s i u p Z X.&.*.$.$.}  .$. . .^ w.Z.C.F.F.F.F.F.F.C.",
"C.S.F.C.F.F.C.F.G.d.v c ) Y } *.*.=.@.G s u u u i i p u 8 b =.*.&.X.*.*.*.&.*.&.X.).H.C.C.F.C.F.F.F.",
"F.F.C.F.F.F.F.G.r.3 4 v _ *.*.*.*.~ b 9 u p u i p u i i p u Y =.*.*.*.*.=.*.&.*.K A { H.C.F.C.F.F.F.",
"F.F.F.F.F.C.F.s.4 M ..^.=.*.*.} K Z s i i i p p p i i i u u m =.*.*.&.X.&.*.X.=.R F C E.m.Z.C.C.F.F.",
"C.F.F.F.C.C.G.4.' =.*.*.*.~ L Z F d u i i p 1 % 5 a u p i u g *.*.&.&.*.&.&.&.*.} G Z U /.D.C.C.F.F.",
"F.F.F.F.C.F.H./.#.*.} P K Z G G h u p p p 5 & O % r s i i u p ..=.&.*.*.*.*.X.&.&.H Z K &.b.Z.C.F.C.",
"F.F.F.C.F.e.X.*.*.*.} G G G Z s i i r 5 > O $ $ O < a i u i u g } *.&.&.*.*.*. .*.L Z G @.x.Z.C.F.F.",
"F.C.F.C.v.*.$.&. .=.! F G b p i u , % O O $ % % % # 6 s p u p 9 J =...} ..*.T } =.*.T Z A 9.F.C.F.C.",
"F.F.C.S.Q.@.$.&.=.! G Z d u u s < o $ $ * % % $ % O % 5 a a p u d &.~. .} Y G $.&.=. .Z C Q m.C.F.F.",
"F.F.C.N.I.*.X.=.&.J G g u i a 5 $ $ $ $ % % $ % $ $ % O = 6 p i r J =.*.*.Y L *.*.&.*.Z Z U x.C.F.C.",
"F.F.F.Z.(.*.*.} L Z G p i i a , O $ % % % % $ % $ % $ % o % u i i b *.*.*.! I *.*.~.&.Y Z H c.Z.F.F.",
"F.F.C.H.Q @. .~ Z G b i i i u % $ $ % $ % $ $ % $ $ % $ $ O < s i d  .*.*.} G  .} } =.T F T /.h.F.C.",
"F.Z.J.T.K } =.{ Z J b i p a r % $ % $ % $ % % $ % $ % % $ $ ; i i d *.*.*.@.H  .R Z } I Y *.#.L H.C.",
"C.N.U.%.Y @.*.} Z G F a u p r % $ % $ % % % $ % % % $ $ % % $ 5 a g &.&.&.} ! ..@.F G Z  .*.$.A i.Z.",
"Z.m.X.@.K } =.~ Z G n u u a 6 % $ % % $ * % % $ $ % % $ $ % $ < a s  .*. .} } G ! K Z G ..*.*.E 8.G.",
"C.m.*.*.K ! &. .~ G Z i i p 6 % $ % % % $ % % % % % % * $ $ $ = p u Y *...@...K X.E Z K *.*.=.E <.F.",
"F.a.&.*.! G ~ *.*.K G s u p 6 % # $ $ % $ % $ $ #     . & .   & 8 a Y  .! $.&.! *...Z P *. .*.T J N.",
"m.R.%.*...H &.~.P Z Z s i p 6 + # o o o o   .   - ;.3.5.5.5.3.-.0 } *.&.T *.} @.*.@.G L =.=.*.G C w.",
"v.I.@.*.R  .*.*.J J b i u u h 1 - : q w t y t q 5.K.G.G.G.G.G.t.' =.O.@.U T T *.=.@.Z K X.] E Z B w.",
"F.m.(.U...$.*.} T =.P 7 f T ~.@.q.C.C.G.G.G.G.F.F.F.F.G.F.Z.Z.v.P.U.y.9.o.R J J U K Y $.} 1.u.f.n.C.",
"C.F.Z.B.).$.@.! *.=.] j | ~.&.$.E.S.F.F.F.F.F.F.F.F.F.F.F.C.F.C.n.N.Z.C.(.+.D V g.g.e.X.L.n.Z.C.C.F.",
"F.C.F.C.S.Q.@.E @.#.P ` %.&.=.=.R i.F.F.F.F.C.F.F.F.F.F.F.F.C.F.Z.C.C.Z.h.<.8.f.G.C.F.N.F.C.F.C.C.C.",
"F.F.F.C.M./.+.P.2.2.o.R.R.X.$.R S 7.C.C.C.C.F.C.F.F.F.F.F.C.F.F.F.F.C.C.C.C.Z.Z.F.F.C.C.F.F.F.C.F.F.",
"F.C.F.F.H./.I.e.C.C.F.F.C.z.W :.q.M.C.C.F.F.C.F.F.C.F.F.F.F.F.F.F.F.C.C.F.F.F.C.F.F.F.F.F.F.F.F.F.F.",
"F.F.F.F.C.C.S.F.F.F.C.C.F.b.S.C.C.C.F.C.F.F.C.C.F.F.F.F.F.F.F.F.C.C.F.F.F.F.F.F.F.C.F.F.F.F.F.F.F.F.",
"F.F.C.F.C.F.C.F.F.C.F.F.b.l.C.C.F.F.F.F.C.F.S.C.C.F.C.F.F.F.F.F.F.F.F.F.F.F.F.F.F.F.F.F.F.C.F.F.F.C.",
"F.F.C.F.F.F.F.F.F.C.F.F.F.F.F.F.F.F.F.F.F.F.F.F.F.F.F.F.F.F.F.F.F.F.F.F.F.F.F.F.F.F.F.F.F.C.F.F.F.F.",
"F.F.F.C.F.F.F.F.F.S.C.F.C.C.F.F.F.F.C.F.F.F.F.C.F.F.F.C.F.F.F.F.C.F.F.C.C.C.C.C.F.C.F.F.F.F.F.F.F.F.",
"C.C.C.F.F.F.F.F.F.F.F.F.F.C.F.F.C.C.S.C.F.F.M.F.F.C.F.F.F.F.F.F.F.F.F.F.F.F.F.C.F.F.F.F.F.F.F.F.F.F.",
"C.C.C.S.F.F.F.F.F.F.F.C.C.C.F.C.S.F.F.F.F.C.F.F.F.F.F.F.F.F.F.F.S.F.F.F.F.F.F.F.C.F.C.F.F.F.F.C.F.F.",
"F.F.F.F.F.F.F.F.F.F.F.C.F.F.C.F.F.F.C.F.F.F.F.F.F.F.F.F.F.F.F.F.F.F.F.F.F.F.F.F.F.F.F.F.C.F.F.F.F.F.",
"F.C.F.F.C.F.F.F.F.C.F.F.F.F.F.F.F.F.F.F.F.F.F.F.F.C.F.F.F.C.F.F.F.F.F.F.F.F.F.F.F.F.F.F.F.F.F.F.F.C."
};
