/* XPM */
static char *_1991_760c5490334e0bfcc3a7baf2faebf7303dae97984ab849eaf3211868f600013a[] = {
/* columns rows colors chars-per-pixel */
"50 50 228 2 ",
"   c #050604",
".  c #121711",
"X  c #2E1718",
"o  c #2C140A",
"O  c #4E100A",
"+  c #7A180F",
"@  c #52231B",
"#  c #4D2C2A",
"$  c #3D433F",
"%  c #374545",
"&  c #5B5D5C",
"*  c #7A7270",
"=  c #991815",
"-  c #8A150E",
";  c #BE0A07",
":  c #B91816",
">  c #B21711",
",  c #B71E29",
"<  c #B9293A",
"1  c #AF303B",
"2  c #BB2A2F",
"3  c #CB0301",
"4  c #C60C0B",
"5  c #CD0B0A",
"6  c #C80805",
"7  c #D20202",
"8  c #DC0201",
"9  c #D50B04",
"0  c #D20B09",
"q  c #DD0B0A",
"w  c #D80509",
"e  c #DC1103",
"r  c #D5110B",
"t  c #DA140B",
"y  c #DA1806",
"u  c #C90F1B",
"i  c #C61715",
"p  c #DB1313",
"a  c #D61916",
"s  c #E40302",
"d  c #EB0B03",
"f  c #E30D0A",
"g  c #E70801",
"h  c #FC0B02",
"j  c #F70705",
"k  c #E31204",
"l  c #EC1502",
"z  c #E4140E",
"x  c #ED1509",
"c  c #E41A0B",
"v  c #E91B0F",
"b  c #F31402",
"n  c #FF1401",
"m  c #FE1B04",
"M  c #F6120C",
"N  c #FC150B",
"B  c #F41C0C",
"V  c #FD1C0C",
"C  c #F31D07",
"Z  c #EC1C13",
"A  c #E51814",
"S  c #F31C13",
"D  c #FC1D12",
"F  c #FC1F1B",
"G  c #F61712",
"H  c #DB231A",
"J  c #DC311F",
"K  c #CD2113",
"L  c #EC230C",
"P  c #FD2105",
"I  c #F5230C",
"U  c #FC230D",
"Y  c #FB290F",
"T  c #E7281A",
"R  c #F62215",
"E  c #FD2312",
"W  c #FD2A13",
"Q  c #F52318",
"!  c #FD2319",
"~  c #FD2B1B",
"^  c #F12919",
"/  c #F83A1A",
"(  c #C51C22",
")  c #D41F24",
"_  c #C92023",
"`  c #D72622",
"'  c #D9372C",
"]  c #CC3538",
"[  c #D9353B",
"{  c #C92835",
"}  c #E62822",
"|  c #F82A20",
" . c #E83624",
".. c #E12E31",
"X. c #E43836",
"o. c #FB3A2A",
"O. c #D24333",
"+. c #E8443B",
"@. c #F44435",
"#. c #F2432E",
"$. c #B32D44",
"%. c #AA334B",
"&. c #B63948",
"*. c #BA3E54",
"=. c #AA344F",
"-. c #C63748",
";. c #D63545",
":. c #F53449",
">. c #B94247",
",. c #A3445B",
"<. c #A8475A",
"1. c #BF5059",
"2. c #BC4656",
"3. c #8C597B",
"4. c #925576",
"5. c #96587A",
"6. c #934D6D",
"7. c #A54863",
"8. c #AB5468",
"9. c #B75262",
"0. c #B8556A",
"q. c #A75474",
"w. c #906E7E",
"e. c #BF6D6F",
"r. c #AC637A",
"t. c #B56276",
"y. c #CD464C",
"u. c #D64649",
"i. c #C64955",
"p. c #C75758",
"a. c #DA5455",
"s. c #D85654",
"d. c #DE584C",
"f. c #E54A4A",
"g. c #D16459",
"h. c #EA6B5A",
"j. c #D15666",
"k. c #CE6E6E",
"l. c #E57A6C",
"z. c #EA676D",
"x. c #998C7C",
"c. c #C28070",
"v. c #D28971",
"b. c #E58C7A",
"n. c #7E6B98",
"m. c #7C729C",
"M. c #7F6FA0",
"N. c #7B79A9",
"B. c #8B5D82",
"V. c #A05D80",
"C. c #8A6A8C",
"Z. c #946B8C",
"A. c #976686",
"S. c #856D94",
"D. c #8B749B",
"F. c #977898",
"G. c #9B708E",
"H. c #B36E83",
"J. c #BF7181",
"K. c #A26C8B",
"L. c #837BAD",
"P. c #897AA6",
"I. c #9279A6",
"U. c #C96587",
"Y. c #FD6E9A",
"T. c #3E81AE",
"R. c #7B84B3",
"E. c #7889B8",
"W. c #7490BE",
"Q. c #7585B0",
"!. c #3D95D5",
"~. c #5E9DDA",
"^. c #4592C9",
"/. c #6C8CC5",
"(. c #788DC2",
"). c #6C92CA",
"_. c #6990C6",
"`. c #7596CC",
"'. c #6596D3",
"]. c #679BD9",
"[. c #739DD9",
"{. c #5EA0DB",
"}. c #65A1DC",
"|. c #70A0DE",
" X c #599FE4",
".X c #6799E2",
"XX c #5CA3E3",
"oX c #5CA5E9",
"OX c #55ABEE",
"+X c #5CAAEB",
"@X c #55A6E5",
"#X c #4DADF1",
"$X c #48AEF8",
"%X c #53ADF3",
"&X c #5BABF2",
"*X c #57ADF8",
"=X c #4FB1F6",
"-X c #4FB4FE",
";X c #46BCFE",
":X c #4BBAFE",
">X c #53B2F6",
",X c #50B4FF",
"<X c #52B9FF",
"1X c #5CB3F6",
"2X c #49A6E8",
"3X c #66A4E6",
"4X c #6BB0EB",
"5X c #44C3FE",
"6X c #4AC1FF",
"7X c #938B8E",
"8X c #A59599",
"9X c #A3829F",
"0X c #8A83B4",
"qX c #8786B2",
"wX c #8493BB",
"eX c #9089B5",
"rX c #9CA6A5",
"tX c #B3B1A9",
"yX c #C78B83",
"uX c #F9A895",
"iX c #8094C5",
"pX c #EFD6CA",
"aX c #E3E0CF",
"sX c #F7F4EB",
"dX c #F5FFFF",
"fX c #FFFFFE",
"gX c #EFEAE6",
"hX c #D0D1C9",
/* pixels */
"-X,X,X-X-X,X,X,X,X,X,X,X,X,X,X,X,X,X,X,X,X,X,X,X,X,X,X-X,X,X,X,X,X,X,X,X,X,X,X,X-X,X,X,X-X,X,X,X,X,X",
",X-X,X,X,X>X,X-X,X,X,X,X,X,X,X,X,X-X,X,X,X,X,X-X,X,X,X,X,X,X-X,X,X,X,X-X,X,X,X,X,X,X-X-X,X,X,X,X,X-X",
",X,X,X,X-X,X,X,X,X,X,X,X,X,X,X,X,X,X,X,X,X,X,X,X,X,X,X,X,X,X,X,X-X,X,X,X,X-X,X,X,X,X-X-X,X,X,X-X,X,X",
"-X,X,X-X>X,X,X,X,X,X,X,X,X,X-X,X,X,X,X-X-X,X,X,X,X-X,X,X,X,X,X,X,X,X,X,X,X,X,X,X-X-X-X,X,X,X,X-X,X,X",
",X-X-X-X-X,X,X,X,X,X,X,X,X,X,X,X,X,X,X,X,X,X,X,X-X,X,X,X-X,X,X,X,X,X,X,X,X,X,X,X,X,X,X,X,X,X,X-X,X,X",
"-X-X-X-X,X-X,X-X,X,X-X:X,X,X,X,X-X,X,X,X,X,X,X-X,X,X,X,X,X,X,X,X,X,X-X,X,X,X,X,X,X,X,X,X-X,X,X,X-X,X",
";X/.q.3X-X,X,X,X,X-X,X,X,X,X,X,X,X,X,X-X-X,X,X,X,X,X,X,X,X,X-X,X,X,X,X,X-X,X,X,X,X,X,X-X-X,X,X,X,X,X",
"OX] V (.;X,X,X,X,X-X-X:X,X,X,X,X,X,X,X,X,X,X,X,X,X,X-X,X,X,X,X,X-X,X,X,X,X,X,X,X,X-X-X-X-X-X-X,X,X,X",
"S.M / F.:X,X,X,X-X%Xw.|.:X,X,X,X-X,X,X,X,X,X-X,X,X,X,X,X,X-X,X,X-X,X,X,X-X,X-X,X,X:X@XW.,X;X,X,X,X,X",
"=.| o.l.'.;X,X>X:XoXp f.1X:X,X,X,X-X-X,X-X,X,X-X,X-X,X,X,X,X,X,X,X-X,X=X-X,X-X,X,X;XQ.v H.1X-X,X,X,X",
"f Q @.@.p.E.:X,X;Xm.e n 9X:X-X,X=X,X,X,X-X>X,X,X,X,X,X-X,X,X,X,X,X,X-X-X-X,X,X,X:X:XoXa n j.&X,X,X-X",
"r I R | ~  .C.:X).i V V [ 4X-X,X-X,X-X-X-X,X,X,X,X,X,X,X,X-X,X,X,X,X-X=X,X,X,X:X/.{.<X( P I k.,X-X,X",
"a V I E V V R <., M E Y E iX;X,X-X,X,X,X-X-X-X-X,X,X-X,X,X,X-X,X,X-X-X,X,X>X;XS.z D.OXp V E V eX;X,X",
") N U U I E U l 3 G U I V 0X;X,X,X,X,X,X-X-X-X,X,X,X,X,X,X,X,X,X,X-X,X,X-X:X~.t n 8.M.f D E m u.>X,X",
"5.h E V E E E r 0 S U Y B E.;X,X,X,X,X,X-X-X,X,X,X,X,X,X,X-X,X,X,X,X,X,X-X;X5.b Y R i A U E P R |.,X",
"'.a I U R U I 9 9 ! ! P A oX<X,X,X,X-X#X XOX,X-X,X-X,X,X,X,X,X,X<X<X,X,X-X-X$.m I U +.p D ! E P t.,X",
";X6.j I ! D V w w H S b =.<X,X,X,X-XOX^.^.=X:X,X,X,X-X>X-X-X,X=XT.^.%X-X-X,X{ m U V @.' x E ! P H ,X",
"-X#X$.d l Z z 4 ; r f v ).;X-X,X-X-X<X(.G.}.;X,X,X,X-X-X,X,X-X-X$X#X2X>X,X,X1 C U D | X.f U E m [ ,X",
"-X;X%X4.4 8 3 4 p B P #.4X;X,X-X:X*X9Xd.+.` W.;X,X,X,X,X-X-X;X3XK.H.[.<X-X:X,.g ! ! Q  .z P V m qX-X",
",X,X:X-X'.M., d G D m u.<X-X-X,X-XF.h.gXfXuX1 oX:X,X,X,X-X-X}.] h.v.g.I.,X:XN.8 z L G t t E D T ~.=X",
",X,X,X,X:X5X3.s S Q m r.:X,X,X-X*X] pXfXx.rXl.m.;X-X-X-X-X,X7.b.gXdXaXX.`.;X%X$.3 6 0 3 f B j 5.;X-X",
",X,X-X-X,X:X).0 k z k R.;X,X,X-X%Xp.sX7X  . v.C.;X-X:X-X;X&Xs.tX# tXdXh.S.:X;X<.8 5 5 5 t 9 ,.>X-X-X",
",X-X,X-X,X,X<X4.; 9 l D.;X,X-X-X-XA.pX7X  % c.A.>X%XOX>X#X.Xv.&   o gXl.R.-X:X=.j V S ^  .R.>X:X,X,X",
"-X-X,X-X-X,X-X=X%.M m 9.:X-X,X-X;X.Xk.hX* 8Xs.[ s.a.f.a.s.a.u.rX. % aXi. X:X:XS.s B ~ ~ j.6X<X,X-X,X",
",X*X,X,X-X,X,X-XN.M P u.,X-X-X,X:X;X2.[ l.O.0 Q V m V m m E t k.7XtXh.Z.5X=X,XOX, e D W U.-X-X,X,X,X",
"-X-X,X,X,X,X-X-X<XA.b N Z.;X-X;XXX,.v z c B E U I U U E Y U L c @.] e 1.+X;X,X<X$.3 9 A W.;X,X,X,X,X",
",X-X,X,X-X-X-X;X;X;XD.0 b r.=X-X$.h E E I V E U U E E E E ! U U E S I m 9.>X;X/.0 A e 5.;X;X,X,X,X,X",
"-X-X,X,X-X,X3XwXeX`.&Xn.a h [ ,.d E I V E E I K ! E U E E ! B U U D E I m I.5X/.l V ..3X;X-X,X-X,X,X",
",X-X,X-X-X,X).q. .E T L.@XC.%.0 r E U V E E W + : W E Y E c L Y U P F W n A.;X6.h } qX;X,X-X-X,X,X,X",
">X,X-X,X-X,X:X:X.X9.C T N.5X6X3.s V U V R E Y -   O = = + ; R E U E D E D 7.4.8 ` E.;X,X-X,X>X-X,X,X",
"-X,X-X,X,X,X,X-X;X&Xy.n a XX5X'.u f R P E U D , # # X   O a ! E E D E R x 3 l ` R.;X,X-X,X-X,X,X-X,X",
"-X,X,X,X,X,X,X,X,X;X(.p 8 q.:X;X,.8 G R U U V } z.Y.U.X = E D U U E P B i -.` F.,X,X-X,X-X-X=X,X,X,X",
",X,X,X,X,X,X,X,X-X-X:XS.S k 2.i.q 7 w y S ! Y V :.j.@ = E U U E U U A B.+X].] } 0.eX+X:X,X,X,X,X,X-X",
",X,X,X,X,X,X-X,X,X-X:X&X*.9 b a 6.S.: 8 f S L U B Z a ! R E E E S s C.5X&X&.m r.}.+X>X,X,X,X,X,X,X,X",
",X,X,X-X,X,X,X,X,X,X,X-X>X/.N.#X6XeXp 3 4 w s k M z Z C N M d f 6 ; &.q.-.9 Z.:X:X:X-X=X,X,X,X-X,X,X",
",X,X,X,X,X-X,X,X,X,X,X=X;X:X`.9X-.d w.q.&._.4.< u 6 w 9 : 1 4., 3 [ h._ { qX5X,X-X,X-X,X,X,X,X,X,X,X",
",X,X,X,X,X,X,X,X,X,X,X:X`.y.l } y.5.%X`.` L.6X>X@X)./.).XX>X-Xi. .B  .Z.3X;X:X,X,X,X-X,X,X,X,X,X-X,X",
",X-X,X,X-X,X,X-X,X,X:XE.i.Z.].@X>X;X;X3Xy *.:X-X:X:X:X;X:X;X[.f.qX5.a c J 9.`.:X,X,X-X,X,X-X,X-X,X,X",
",X,X,X-X,X,X,X,X,X,X,XE.XX;X:X,X-X,X;X(.l A.;X,X,X,X,X,X,X:X).k K.;X~.L.Z.8.;.0X:X,X,X,X,X,X-X,X,X,X",
",X,X,X,X,X,X,X,X,X,X-X;X<X,X,X,X,X-X>X0.2 XX:X-X,X,X>X-X-X,X>XV.z i.|.;X5X;X].Z.+X-X,X=X-X,X,X,X,X,X",
",X,X,X,X,X,X-X,X,X,X,X,X,X,X,X,X,X:XK.&.'.:X,X>X,X,X,X,X,X-X-X-Xm.< ] 0X;X-X-X-X,X,X,X,X,X,X,X,X-X,X",
",X,X-X,X,X,X,X,X,X,X,X,X-X,X,X,X:X&X0.3X;X,X,X,X-X,X,X,X,X,X-X-X6X,X'.A.).-X-X,X,X,X,X,X,X,X,X,X,X,X",
",X,X,X,X,X,X,X,X,X,X-X,X,X,X,X,X-X].L.;X,X,X,X,X,X,X-X,X,X,X,X,X<X<X:X>XE.,X,X-X,X,X,X,X,X,X,X,X,X,X",
"-X,X,X,X,X-X,X,X,X,X,X,X,X,X,X-X-X+X].-X,X,X,X,X,X,X,X,X,X,X,X,X<X>X,X-X,X-X,X,X,X,X,X,X,X,X,X,X,X,X",
",X,X,X,X,X,X,X,X,X,X,X,X,X,X,X,X,X,X-X-X,X,X-X-X,X-X,X,X,X,X,X,X-X,X,X-X-X-X,X-X,X,X,X,X,X,X,X,X,X,X",
",X,X,X,X,X,X-X,X,X,X,X,X,X-X,X,X-X-X,X,X,X,X,X,X,X,X,X,X,X,X,X-X-X,X-X-X,X,X=X,X,X,X,X,X,X,X,X,X-X,X",
",X,X-X,X,X,X,X,X-X,X,X-X,X,X,X,X-X,X,X,X,X,X,X,X,X,X,X,X,X,X,X,X-X,X,X-X,X,X,X-X,X,X,X,X,X,X,X,X,X,X",
",X,X,X,X,X-X,X,X,X,X,X,X,X,X-X,X,X-X,X-X,X,X-X,X,X-X,X,X-X,X,X,X,X,X-X,X,X-X-X-X,X,X,X,X,X,X,X,X,X,X",
"-X,X,X,X,X,X,X,X-X,X,X,X,X,X,X,X,X,X,X,X,X-X,X,X,X,X-X,X,X,X,X,X,X,X,X,X,X,X,X,X,X,X,X,X-X,X,X,X-X,X",
",X,X,X,X-X,X,X,X,X,X,X,X,X-X,X,X-X,X,X,X,X,X,X,X,X,X,X,X,X,X-X,X,X,X,X,X,X,X-X,X,X,X,X,X,X,X,X,X,X,X"
};
