/* XPM */
static char *_3300_833911f7664171066bcfb3659214467acc42f22da6ea882bb5375f4b42ef4283[] = {
/* columns rows colors chars-per-pixel */
"50 50 229 2 ",
"   c #010001",
".  c #000E09",
"X  c #11140E",
"o  c #2C1612",
"O  c #3F3323",
"+  c #4E110C",
"@  c #7E160D",
"#  c #52211C",
"$  c #54292F",
"%  c #3A4647",
"&  c gray36",
"*  c #797471",
"=  c #991812",
"-  c #8B140E",
";  c #BD0807",
":  c #AC1A18",
">  c #BE181A",
",  c #BD1107",
"<  c #B61D2A",
"1  c #B9252B",
"2  c #AE303C",
"3  c #B42F3D",
"4  c #CA0300",
"5  c #CC0B01",
"6  c #CE0709",
"7  c #CC0C0B",
"8  c #C60C09",
"9  c #D30202",
"0  c #DB0302",
"q  c #DD0B06",
"w  c #D20609",
"e  c #DF0C0C",
"r  c #D50A07",
"t  c #C2100E",
"y  c #DD1103",
"u  c #D5130C",
"i  c #DB130B",
"p  c #DA170A",
"a  c #C91617",
"s  c #DE1413",
"d  c #D81714",
"f  c #C70510",
"g  c #E30201",
"h  c #E40C04",
"j  c #EC0C02",
"k  c #E80806",
"l  c #FB0B03",
"z  c #F60801",
"x  c #E41203",
"c  c #ED1401",
"v  c #E2120D",
"b  c #E51A0C",
"n  c #EC1B0D",
"m  c #EC1907",
"M  c #F41401",
"N  c #FE1503",
"B  c #FE1B04",
"V  c #F5110A",
"C  c #FB160E",
"Z  c #F41B0B",
"A  c #FD1C0C",
"S  c #F61C04",
"D  c #E61916",
"F  c #F31C14",
"G  c #FC1D12",
"H  c #FB1F19",
"J  c #E10A11",
"K  c #DA231C",
"L  c #CE2214",
"P  c #FD2105",
"I  c #F5220D",
"U  c #FC230D",
"Y  c #FA2809",
"T  c #E6271A",
"R  c #F42215",
"E  c #FC2313",
"W  c #FC231A",
"Q  c #FC2B15",
"!  c #FB351B",
"~  c #E92B15",
"^  c #C81A22",
"/  c #D31E23",
"(  c #D72A23",
")  c #DA372C",
"_  c #C62835",
"`  c #CB323B",
"'  c #D63539",
"]  c #C82E29",
"[  c #E52B23",
"{  c #E62B24",
"}  c #EA3527",
"|  c #F83726",
" . c #E33935",
".. c #F7362A",
"X. c #D24335",
"o. c #E74339",
"O. c #F24430",
"+. c #AE2F4D",
"@. c #B22D44",
"#. c #AD354A",
"$. c #BC3C44",
"%. c #B73848",
"&. c #A73C57",
"*. c #BB3D54",
"=. c #C53845",
"-. c #D53843",
";. c #F53449",
":. c #A4425B",
">. c #AA485B",
",. c #B84552",
"<. c #8D5878",
"1. c #94597B",
"2. c #955777",
"3. c #944D6E",
"4. c #AA5168",
"5. c #B75566",
"6. c #A75676",
"7. c #B1536B",
"8. c #926D7F",
"9. c #AB6479",
"0. c #BA6775",
"q. c #BE727E",
"w. c #C94649",
"e. c #D6464A",
"r. c #C64955",
"t. c #DF4E51",
"y. c #D55455",
"u. c #DC5954",
"i. c #D0554C",
"p. c #E54A48",
"a. c #D06359",
"s. c #EB6A5E",
"d. c #C85D64",
"f. c #D65164",
"g. c #C17F71",
"h. c #CE6E70",
"j. c #E37F70",
"k. c #E96C6C",
"l. c #9B8B7C",
"z. c #D28972",
"x. c #E78B7E",
"c. c #7D6F9A",
"v. c #7B719B",
"b. c #7F6FA0",
"n. c #7A79AB",
"m. c #797FB2",
"M. c #8B5B83",
"N. c #A25B83",
"B. c #8A6789",
"V. c #936A8C",
"C. c #976484",
"Z. c #9A718C",
"A. c #856D93",
"S. c #897299",
"D. c #987999",
"F. c #966C90",
"G. c #A86383",
"H. c #B16E85",
"J. c #A37591",
"K. c #8778A7",
"L. c #917FA5",
"P. c #CC6583",
"I. c #FF6D9A",
"U. c #3E82B1",
"Y. c #7789B9",
"T. c #7B90BF",
"R. c #7486B3",
"E. c #3E96D5",
"W. c #5E9BDB",
"Q. c #4592C9",
"!. c #6D8ECC",
"~. c #6A8CC3",
"^. c #758DC2",
"/. c #7C8DC5",
"(. c #6B92CA",
"). c #6893C6",
"_. c #7395CB",
"`. c #7594CA",
"'. c #6595D3",
"]. c #6A9EDB",
"[. c #679BD8",
"{. c #759BD6",
"}. c #5CA0DE",
"|. c #63A1DD",
" X c #6EA2DE",
".X c #70A0DE",
"XX c #5E9FE1",
"oX c #669DE1",
"OX c #4CA5E4",
"+X c #5CA3E4",
"@X c #5AA9ED",
"#X c #57A8EA",
"$X c #4CADF3",
"%X c #52AEF4",
"&X c #59ACF1",
"*X c #51ADF8",
"=X c #4FB4FE",
"-X c #46BDFE",
";X c #4BBAFE",
":X c #4EB4F5",
">X c #53B1F6",
",X c #50B4FF",
"<X c #52B9FF",
"1X c #5BB3F5",
"2X c #60A5E4",
"3X c #64A8E8",
"4X c #6DB0E7",
"5X c #44C3FF",
"6X c #4AC1FE",
"7X c #938C8F",
"8X c #A79498",
"9X c #8B84B3",
"0X c #8686B3",
"qX c #8694BB",
"wX c #A381A2",
"eX c #98A9A3",
"rX c #B2B1A8",
"tX c #C78B83",
"yX c #FAA795",
"uX c #8196C4",
"iX c #828DC3",
"pX c #EFD9CE",
"aX c #F3CEC6",
"sX c #E0E2CD",
"dX c #F9F3EA",
"fX c #F6FFFF",
"gX c #FFFFFE",
"hX c #EDE9E5",
"jX c #D0D2C7",
/* pixels */
",X,X,X,X=X=X,X,X,X=X,X,X,X=X=X,X,X,X,X=X,X,X,X=X,X,X,X,X,X,X,X,X=X,X,X,X,X=X,X,X=X,X=X,X,X,X,X,X,X,X",
",X,X,X,X,X,X=X,X,X,X,X,X,X,X,X,X,X,X,X,X=X,X,X,X,X,X,X=X,X=X,X,X,X,X,X,X,X,X,X,X,X=X,X,X=X,X,X,X,X,X",
"=X,X,X,X,X,X=X,X,X,X,X,X,X,X=X,X,X,X,X,X,X,X=X,X,X,X,X,X,X,X,X=X,X,X,X,X,X=X=X=X=X,X,X,X,X,X,X=X,X,X",
",X=X=X,X,X=X=X=X=X,X,X,X,X,X,X,X,X,X=X,X,X,X,X,X=X,X,X,X=X,X,X,X,X=X,X,X,X,X,X,X,X,X=X,X,X=X=X,X,X,X",
",X,X,X,X,X,X=X=X,X,X,X,X,X,X,X,X,X,X,X=X,X,X,X,X,X=X,X,X,X,X,X,X,X,X,X,X,X,X,X,X,X,X=X=X,X,X,X,X,X,X",
",X,X,X,X,X,X,X,X,X=X,X=X=X,X,X=X,X=X,X,X,X,X,X=X,X,X,X,X,X,X,X=X,X,X=X,X,X=X,X,X=X,X,X=X,X,X,X=X,X,X",
"=X,X,X,X=X=X=X,X,X,X,X=X,X,X,X,X,X,X=X,X,X,X,X,X,X,X,X=X,X,X,X,X,X=X,X=X=X=X=X,X=X=X,X,X=X+X6.).=X=X",
"=X,X,X,X;X=X=X,X,X,X,X,X,X,X,X,X,X,X,X,X=X,X,X,X,X,X,X,X,X=X,X,X,X,X,X<X=X=X=X;X,X,X,X,X-XT.C ` #X=X",
"=X,X=X=X<X^.+X;X=X,X=X,X=X,X=X,X,X,X=X,X,X,X,X,X=X=X=X,X,X,X,X,X,X=X,X,X=X XC.>X=X,X=X=X;XD.! V c.=X",
"=X,X=X1XH.b R.-X=X=X,X=X>X,X=X=X,X,X,X=X*X=X=X,X,X=X,X,X,X=X,X,X,X=X,X=X1Xt.p }.;X,X=X6X'.z.| W #.=X",
"=X;X1Xd.B d +X;X;X,X=X,X,X,X=X,X*X=X,X=X=X=X,X,X=X=X,X,X,X,X,X,X,X,X,X;XwXB y v.;X;X;XR.d...O.E h ,X",
"=X=Xh.B P ^ =X|.~.;X=X,X,X=X=X,X,X=X=X,X,X,X,X,X,X,X,X=X=X=X,X,X,X=X=X3Xo.S C a (.;XF.[ Q | Q Z u =X",
"-X9XA U C d &XS.v A.;X,X=X,X=X,X,X,X,X=X=X,X,X,X=X=X=X=X,X,X,X,X=X,X;XiXE Y E V < >.R A C E Y E d ,X",
"<Xe.B E G J v.4.N u W.;X,X=X,X,X=X=X,X,X,X,X,X,X,X,X=X=X,X,X,X,X=X=X-X0XN Y U F 4 j P E I U Y C ^ ,X",
".XE B H U b a R Y M 2.;X,X,X=X=X,X=X=X,X,X,X,X,X=X=X=X=X=X,X,X=X=X=X;X/.G Y E R r u E E E E U l 1.,X",
"0.U U H E v o.U E A %.=X=X,X=X,X,X=X*X,X,X=X,X,X,X=X*X#XOX$X=X,X=X=X;X+XD U E R r y I E E U P a '.,X",
"T P W U x ' O.A A B _ ,X,X,X$XQ.U.*X=X=X,X=X,X,X,X,X<X$XQ.Q.:X<X,X=X=X=X:.M R D w r A W E I z 3.;X,X",
"' B U U h  .| G E S 2 =X:X,XOX$X$X=X=X=X,X=X=X,X,X,X-X|.Z./.,X;X=X,X=X;X).b h 7 f f v n c k +.@X;X=X",
"0XM G U v { W E E k :.-X,X=X{.H.Z.+X;X=X=X,X,X,X,X;XY.K o.t.D.1X,X=X,X=X4XO.A Z s t 4 0 t 2.%X;X,X,X",
"W.T G U i i H ~ v 0 K.6X,XL.a.z.s.` [.;X,X,X,X=X=X#X,.yXfXdXs.D.;X=X,X=X,Xe.B U C k 1 c.'.<X,X,X=X,X",
";X2.V S e 4 w 8 4 @.%X;X(. .pXgXdXx.>.=X=X=X,X,X5XS.k.eXl.gXpX` %X=X,X=X;X9.B R n g <.6X;X;X,X,X,X,X",
"=X>X:.i i 7 7 r 9 &.;X;XS.s.fXrXO rXy.@X;X;X=X=X5XA.z.X X 7XdXi.@X;X=X=X;XY.x b h w !.;X,X,X=X,X,X,X",
"=X<X>XR.} R R Z z &.;X-Xm.j.hXo   & tXXX$X>X@X*X:XC.z.%   R.aXC.=X=X=X=X;XL.h r ; 2.;X;X<X,X,X=X,X,X",
",X,X;X<Xd.! W A g S.;X=XXXi.sX% X rXe.e.y.u.p.y.i.) i.8X* jXh.oX=X,X,X,X;X5.A l #.$X=X,X,X,X,X=X,X=X",
"=X=X=X;Xq.Q E y < @X=X=X-XB.a.rX7Xg.p G B B A B B R i X.h.' ,.;X;X=X=X;X=Xe.B V n.-X,X,X,X,X,X,X,X,X",
",X,X=X;X^.s r 4 2 ,X=X=X@Xr.q ' O.b n U Y U E E Y A R B m D b >.+X=X;X;XV.V N C.:X=X,X,X,X,X=X,X,X=X",
"=X=X,X,X;X2.x D u !.-X1X5.B I R U U E E E W E E U E G G Y E E l @.=X%X0.M 7 K.-X-X;X=X,X=X,X=X,X,X,X",
",X,X,X,X;X+X{ A c ~.5XK.B Y E U U U Z W G Q U E H L F U E U U G k :.' M a A.@XuXqXqX2X*X=X,X,X,X,X,X",
",X=X,X=X,X;XY.{ l 3.6XN.B Y G U U E n b W Q E E : @ Q E G U U E i 6 #.B.OXK.[ E } 9._.=X,X,X,X,X,X,X",
",X=X,X,X,X=X;XY./ 9 2.>.G U G E U E R , @ = = + . - E E E G R B g M.5X5XK.T S 5.2X,X;X,X=X,X,X=X,X=X",
",X=X=X,X,X,X,X;Xm./ j 4 m E E G E E E s + . o $ $ : E U G A R x a '.-XW.^ N -.>X;X,X,X=X,X,X,X=X,X,X",
"=X,X,X,X,X,X,X<X=XD.[ %.^ Z P U U E E E = o P.I.k.T A Y U E D 0 :.;X=X6.0 d ^.;X,X=X,X,X=X,X=X,X,X=X",
",X,X,X=X,X;X@X9X5.~ ` |.+X1.T U A E U U E = # f.;.U Y E F p q 4 0 r.,.h F A.;X=X=X=X,X=X,X,X,X=X,X,X",
",X,X,X,X,X=X>X#X|.H.N $.&X5XB.0 n H E E Q R D D F E I F e r > A.3.K M 7 *.@X=X=X=X=X,X,X,X,X,X,X,X,X",
"=X,X,X,X,X=X,X,X;X-XV.x =.6.#.; 7 e z M V n D n Z h g w , 4 s 9X6X$Xn.Y.%X=X,X,X=X,X=X,X,X,X,X,X=X,X",
",X=X,X=X=X,X>X,X,X=X-XR._ ( u. .9 > <.3 > 5 0 6 ^ 1 2.).%.4.C.M w.wX_.;X;X,X,X,X,X,X,X,X,X=X,X,X,X,X",
",X,X,X,X=X,X,X=X,X,X;X6X2XZ.} Z o.r.=X:X+X(.~.).XX*X6Xn.( `.$X1.w.{ c w.`.;X,X=X,X,X,X=X,X,X,X,X,X,X",
",X,X,X,X=X=X,X,X,X<X{.5.T D a 2.9Xp.|.;X;X;X;X;X=X=X;X*.x 3X;X;X=XXX[.V.w.T.;X=X,X,X,X,X,X=X,X,X,X,X",
"=X,X,X=X,X,X=X=X;X9X' 4.A.K.}.6XG.p (.;X,X,X,X,X=X=X;XB.m /.5X,X=X;X;X;X+XY.<X=X=X,X,X,X,X,X,X=X,X=X",
",X=X,X,X,X=X=X,X2XF.'.-X-X6X Xr.s 6.>X,X=X=X,X,X,X,X=X}.1 5.1X;X,X=X,X,X;X;X,X,X,X,X,X,X=X,X,X,X,X,X",
",X=X,X,X,X,X=X,X>X,X;X,X<XwX` 3 A.=X;X=X,X,X,X=X,X=X=X;X'.%.J.=X=X,X,X,X,X,X=X=X,X,X,X=X,X,X,X,X,X,X",
",X,X,X,X,X,X,X,X,X,X,X;X_.V.W.;X-X=X,X,X,X,X=X=X,X=X,X,X;XoX7.&X,X=X=X,X,X,X,X,X,X=X,X,X,X,X,X=X=X,X",
",X,X,X,X,X,X,X,X=X,X,X,XY.>X;X,X,X=X,X,X=X,X,X,X,X,X=X,X=X6XK.].;X,X=X,X=X,X,X,X,X,X,X,X,X,X,X,X,X,X",
",X,X,X=X,X,X,X,X,X=X,X,X,X,X;X=X,X,X,X=X,X=X,X,X,X,X,X,X=X=X+X+X=X,X=X,X,X,X,X=X,X,X=X,X,X=X,X,X,X,X",
",X=X,X,X,X,X,X,X=X,X=X,X=X=X=X,X=X,X,X,X=X=X,X,X,X=X=X=X=X*X=X=X,X,X,X,X,X,X,X,X,X,X=X,X,X=X,X,X=X,X",
",X,X,X,X,X,X=X,X,X=X>X,X,X=X,X,X>X,X=X,X,X,X,X,X,X=X,X,X=X,X,X,X,X,X=X,X=X,X,X,X,X,X,X,X,X,X,X,X,X,X",
",X=X,X,X,X=X,X,X,X,X,X=X,X,X,X,X=X,X=X=X,X=X,X,X,X,X=X,X,X=X,X,X,X=X,X,X,X,X,X,X=X,X,X,X,X,X,X=X,X,X",
",X,X,X,X,X,X,X=X,X,X=X,X,X,X,X,X,X,X,X=X,X,X,X,X,X,X,X=X,X,X=X=X,X,X,X,X,X,X=X,X,X,X,X=X,X,X,X,X,X=X",
",X,X=X,X,X,X,X,X,X,X,X,X,X,X,X,X,X,X,X,X,X=X,X,X=X,X,X,X=X,X,X=X,X,X,X,X,X,X,X,X,X,X,X=X,X,X,X,X,X,X",
",X,X,X,X,X,X,X,X,X=X,X,X,X=X,X,X=X,X,X,X,X,X,X,X,X,X,X,X,X,X,X,X=X,X,X,X,X=X,X,X,X=X,X,X,X,X=X,X,X,X"
};
