/* XPM */
static char *_0377_58f059751b47c1f8b9752181d892c32959e45a4108a26dfc35073f54b8bf93a5[] = {
/* columns rows colors chars-per-pixel */
"50 50 218 2 ",
"   c #040801",
".  c #091706",
"X  c #0E2409",
"o  c #0D2A0C",
"O  c #112A0C",
"+  c #113107",
"@  c #153B0E",
"#  c #15370C",
"$  c #0E2C12",
"%  c #152714",
"&  c #143213",
"*  c #163D15",
"=  c #193C1A",
"-  c #173618",
";  c #0F1D20",
":  c #112529",
">  c #193A26",
",  c #1A393C",
"<  c #0F2824",
"1  c #1B440D",
"2  c #194808",
"3  c #1B590B",
"4  c #164415",
"5  c #1B4214",
"6  c #164319",
"7  c #1C431B",
"8  c #1C4B1B",
"9  c #194E16",
"0  c #1B5514",
"q  c #1E5C13",
"w  c #1C541C",
"e  c #1E591D",
"r  c #20450F",
"t  c #25570D",
"y  c #214D1B",
"u  c #224A15",
"i  c #23541B",
"p  c #235D1C",
"a  c #245615",
"s  c #1F641A",
"d  c #21630F",
"f  c #23710E",
"g  c #23641D",
"h  c #2B651D",
"j  c #246C1C",
"k  c #2D6D1E",
"l  c #246415",
"z  c #24731B",
"x  c #31741E",
"c  c #1C4A23",
"v  c #1D442C",
"b  c #1D4D2E",
"n  c #1C4323",
"m  c #1D5122",
"M  c #1E5B21",
"N  c #1E552C",
"B  c #1C4432",
"V  c #1F4B3B",
"C  c #1C4739",
"Z  c #1E5434",
"A  c #224C24",
"S  c #264B28",
"D  c #235522",
"F  c #245C24",
"G  c #245B2B",
"H  c #2A5929",
"J  c #214C38",
"K  c #245B33",
"L  c #265839",
"P  c #1F6123",
"I  c #236423",
"U  c #2B6323",
"Y  c #246C24",
"T  c #2B6C25",
"R  c #25642B",
"E  c #2A642A",
"W  c #2B6B2B",
"Q  c #256C2A",
"!  c #306E2B",
"~  c #257225",
"^  c #2C7223",
"/  c #277927",
"(  c #2D732B",
")  c #277F2B",
"_  c #2B7D2A",
"`  c #267228",
"'  c #327425",
"]  c #327A24",
"[  c #32752B",
"{  c #337C2B",
"}  c #2A6334",
"|  c #2B633B",
" . c #2C683A",
".. c #256238",
"X. c #336939",
"o. c #2F7431",
"O. c #337D31",
"+. c #317234",
"@. c #436F34",
"#. c #1B3E47",
"$. c #1B3F59",
"%. c #1F434F",
"&. c #1E4854",
"*. c #234C4C",
"=. c #265C4D",
"-. c #265948",
";. c #214B56",
":. c #235253",
">. c #2A5C5B",
",. c #275A57",
"<. c #2B6245",
"1. c #2F6A4A",
"2. c #327541",
"3. c #2A6454",
"4. c #376C5A",
"5. c #337656",
"6. c #234C63",
"7. c #255664",
"8. c #285D63",
"9. c #2B5D6A",
"0. c #255966",
"q. c #2A5C74",
"w. c #275778",
"e. c #276264",
"r. c #2C6465",
"t. c #2C6964",
"y. c #2C646C",
"u. c #2D6B6A",
"i. c #336C6A",
"p. c #30676C",
"a. c #2E6B72",
"s. c #2C637B",
"d. c #2F697C",
"f. c #2F727B",
"g. c #337676",
"h. c #447973",
"j. c #2C832C",
"k. c #2D882B",
"l. c #34842B",
"z. c #358427",
"x. c #358533",
"c. c #398536",
"v. c #388736",
"b. c #3D943C",
"n. c #3F9A3C",
"m. c #3C9436",
"M. c #419D3A",
"N. c #3F9841",
"B. c #439D41",
"V. c #285F86",
"C. c #2F6888",
"Z. c #336E83",
"A. c #316C8C",
"S. c #337485",
"D. c #33738A",
"F. c #367B8C",
"G. c #377D88",
"H. c #2E6894",
"J. c #316B94",
"K. c #356E99",
"L. c #337594",
"P. c #357B94",
"I. c #3B7B92",
"U. c #34749A",
"Y. c #3A7C9B",
"T. c #367B9E",
"R. c #3575A2",
"E. c #367CA2",
"W. c #3A7BA5",
"Q. c #377AA9",
"!. c #377BB2",
"~. c #40798D",
"^. c #398399",
"/. c #3B818B",
"(. c #3984A1",
"). c #3B84AB",
"_. c #3B89AD",
"`. c #3681A1",
"'. c #3C84B4",
"]. c #3E8AB2",
"[. c #3D87BB",
"{. c #478EAB",
"}. c #4293AE",
"|. c #438BBF",
" X c #4089B2",
".X c #3E8DC3",
"XX c #3D85C6",
"oX c #3F90C8",
"OX c #418DC3",
"+X c #428EC9",
"@X c #4293C4",
"#X c #4393CC",
"$X c #459AC5",
"%X c #408FD1",
"&X c #4395D3",
"*X c #4697D9",
"=X c #449BDC",
"-X c #469BD2",
";X c #47A5DF",
":X c #47A4CF",
">X c #469FE3",
",X c #479EE8",
"<X c #46A1E7",
"1X c #49A2E5",
"2X c #4AA4EB",
"3X c #4CA9EC",
"4X c #4DACF4",
"5X c #4CADFA",
"6X c #4AA6F8",
"7X c #4EB2F6",
"8X c #4FB4FE",
"9X c #4FB8FC",
"0X c #50B2F6",
"qX c #50B4FF",
"wX c #53BBFE",
"eX c #56C3FF",
"rX c #58C2FE",
"tX c #59C8FF",
/* pixels */
"qXqXqX8XqXqXqX8XqXqXqXqXqXqXqX8XqXqXqX8X8XqXqXqXqXqX8XqXqX8X8XqX8X8XqX8XqXqXqXqXqXqXqXqXqXqXqXqXqXqX",
"qXqXqXqXqXqXqXqXqX8XqX8X8XqXqXqX8X8XqXqXqXqX8X8X8X8XqXqXqXqX8X8X8XqXqX8XqX8XqXqXqXqXqXqXqXqX8XqXqX8X",
"8XqXqXqXqXqXqXqXqXqX8XqXqXqXqXqXqX8XqXqX8X8XqX8XqXqXqX8XqXqX8X8XqX8XqX8XqX8X8XqXqXqXqXqXqX8XqX8XqXqX",
"qXqX8XqXqXqXqX8XqXqXqXqXqXqX8XqXqXqXqXqXqX8XqXqXqXqXqX7XqXqX8XqXqXqXqXqX8XqX8X8X8XqXqX8XqXqXqXqXqXqX",
"qXqXqXqX8XqXqXqXqXqXqXqXqXqX8XqXqXqXqXqX8XqX8X8X8XqXqXqXqX8XqXqXqX8XqXwXwXqXqX8XqXqXqXqX8XqXqXqXqXqX",
"qXqX8XqXqXqXqX8XqXqX8XqXqXqXqXqX8XqX8XqXqX8X9XwXwXqXqXqXqXqXqX8X8X8X-X=XW.1X4XqXqXqXqXqXqXqXqX8XqX8X",
"8XqXqXqXqXqXqXqXqX8X8XqX8XqXqXqX8X8XqXqXqX7XL.9._.1XqXqX8X8X8X8XqX7X*.G & > _.wXqXqXqX8XqXqXqXqXqXqX",
"qXqX8XqXqXqX8XqXqXqXqXqXqXqXqXqXqXqXqXqXqX4X| t -.-XqXqXqXqX8X8X8X8X>X4.] h @XwX8XqXqXqXqX8XqXqXqX8X",
"qXqXqXqX8XqXqXqX8X8XqX8XqXqXqX8X8X8X8X4XwX*Xh g.7XqXqX8XqXqX8XqXqXqXwX=XX.F |.wXqXqX0XqX8XqXqXqXqX8X",
"qX8XqXqXqXqXqXqX8XqXqX8X8XqXqXqXqXwX1Xs.wXD.K 3XwX7X8X8X8XqX8X8X8X8XqXqXi.a =XwXwXwXqX5X8XqXqXqXqXqX",
"qX8X8XqXqXqXqXqX8X8XqXqXqXqX8XqXqXqXwXa.r.7 ].wXqX9XqXqX8XqX8XqXqXqXqXwX].1 U.rXOXJ.wXqX9XqXqXqXqXqX",
"qXqXqXqX8XqXqXqXqXqXwXwXwXqXqX8XqX8XwX Xt =.8XqXqXqX8XqXqXqX8XqX8X9X8XwX4Xb -.OX> Q.wXqXqXqXqXqXqXqX",
"qXqX8XqXqXqXqX8X8X0X[.J.S.@XwXqX8XqXwX XD :XwX8XqXqX8XqXqXqXqX8XqX8X8XqXqX>.u S u.wXqXqXqXqXqXqXqX8X",
"8XqXqXqXqXqXqXqXwXOXn a -.;XwXqXqXqX4XV c L.I.4XqX8XqX8XqX8X8X8X8XwXqXwXwXL.h E *XwXqXqXqXqXqXqXqXqX",
"qXqX8XqX8XqXqXqXqX2X .' @XwX8XwX4X7.w.* & & |.rXwXqX8XqXqXqXqXwXwX1XqX+X0X-Xp :.qX8X8X8XqX8XqXqXqXqX",
"qXqXqXqXqXqX8XqXqX8X-. .4XqXqXwX+X* 2 Y ~ I u.T.1XwXwXqXqXwX4X>X-X8.s.% ^.3XD :.wXqXqXqX8XqXqX5XqX8X",
"8XqX8X8XqXqX8XqXwXwX>.3.qXqXqX8XqX$X,.1 c R f s b U.R.oXwX_.4.E l d 3 1 A J.G S 6XwXqX9XqXqX8XqXqXqX",
"qX8X8X8XqXqXwXY.Z.4XJ d.wXqXqXqXqXtX-XU -.#Xf.c l e . e.Z.# H h.^.Y.P.S.-.w [ > XXs.'.wX8XqXqXqXqX8X",
"qXqXqXqXqXqXqX3X,.-.y A.wXqX8X8XqX|.@XH i.tXtX[.: 0 8 0 # . !.rXwXwXwXrXE.] O.> 8 J 1X8XqXqXqXqXqXqX",
"qXqX7XqXqXqXqXwX3XL l (.wX8X8XqXqXi.Z.E D.1X'.3.P X w * # $ L.;XqXqXqXwX+XE O.l.G #XwX8XqXqXqXqXqX8X",
"qX8XqXqXqXqXqXqXeXQ.r $X#XI.wXqXwX{.D H 3.J X 0 N w.6 7 * 6 , @XwXqXqXwX&XH ] L +XwXqXqXqX8XqXqXqX8X",
"qX8XqX8XqXqXqX8XwXoX5 ^.p.(.qX8XqX3X .[ { * * + = :.e w l -.7XoX=XwXqXwX.XD h R.tXqXqXqX8X8XqXqXqXqX",
"qXqXqXqXqX8XqXqXwXOXi K L 1XeXA.:.qXq.@ E 5 B '.e.1 / Q j C.0X> '.wXwXrX'.i D >X4X4X8XqX8XqX8XqXqXqX",
"qX8XqXqXqXwXqX1X9.s.> z.5.5XwXE.2 Z.J.# = 5 :  XZ.+ 9 Y 9 Q.U.* 1XwXA.+X).t i.+X, ,XwXqXqXqX8XqXqXqX",
"qX5X8XqXqXqXqXqXI.y ' O.5.5X7XD.e 0 w.Z 7 e 6 n & n 7.s e &.Z y.wXqX3.C :.h 7.J ,.9XqXqXqXqXqXqXqX8X",
"qXqXqXqXqXqXqXqXwXOX1.[ L 2X,X( ( # H.C z ~ e c > > V Y F 0 m =XwXwX XU [ E y  .=XqX8XqXqXqXqXqXqXqX",
"qXqXqXqX8XqXqXqXqXrX1XK h [.eX/.{ + s.-.0 P q...e q.c Y Y j L.wXqXwX,X+.{ v.' W.eXwXqX8XqXqX8X5XqX8X",
"qXqXqXqXqXqXqXqXqX3X0XL.t F.2Xs. .e 8 > 9 Y Z.> 4 q...e Y 8 oX#XH.wX6X1.[ l.r.qXqX2X8XqX9XqXqXqXqXqX",
"qX8XqXqXqXqX8XqXwX&X#.Q.} <.y.r x.Q 9 8 I ( 9 $ X :...m w 1 H.,.9.wX1X .'  .2X4X8.: ,XqX8XqX8X8XqXqX",
"qXqXqXqXqXqXqX8XqXwXF.D S W ' y.N.o.K *.~ R #.c R * 9 & 6 m w.6 `.eX).U k D.!.:.3 S 2XqXqXqXqX8XqXqX",
"8X8XqX8X8XqXqX8XqXwXqXF.] { ] ).~.i 4 > e n ; I O.` _ i 8 m G D *XwX3.' | H.o q i (.wXqXqXqX8XqX8XqX",
"8X8XqXqXqXqXqXqXqXwXwXwXD._ ' g.{.@.6 w 6 5 & o.( _ Y 7 c E T 7.wX&XG ] r.J.j ` A a.3XqX8X8X8XqXqXqX",
"qXqXqXqX8XqXqXqXwX+X&.].qXg.k } =XI.y y = F n.b.Q _ m % 6 ` X.,XrXA.x h _.S.z T n.U =XwXqXqXqX8XqXqX",
"qXqX8XqXqXqXqXqXwX#X* i ;.H.1.k p.qXW.H Y = x.b.Y ) w n e s J qX2X| { } XX=.s x.T L.qXqXqXqXqXqXqXqX",
"qX8XqXqXqXqXqXqX8XwXY.w s -.U.T h ).rXY.l M D N.T / _ Y I Y B 5XA.^ ' >.&.0 W ! U.wXwX8X8XqX5XqX8XqX",
"qXqXqXqXqX8XqXqX8X5Xi.W Y Y .X5.x L 2X3Xc 8 H M.` / ) j.D I b XX| { H C.Q ~ ( H ).wX8X8X8XqX8XqXqXqX",
"qXqX8XqXqXqXqX8XqXqXS.] { Y 9.U.T ] r.6XB 8 N.n.+.` j.F $ Y N ;.{ T S.L.j Q M.] ].wXqX8X8XqX8XqXqXqX",
"8XqXqXqXqXqXqXqXqXwXqXY.+.W q ,.9.^ ' J.<.@ +.N.x.Y j.& . Y 7 7 [ -.w.b Y v.[ G.qX0X8X8X8X8XqX8X8XqX",
"qXqX8XqX8XqXqXqXqXqXqXqX=.z.T z U.t.^ } > I & c.b.W _ ` * e 9 W H &.Y p v.T s.qXqX8X8XqXqX8XqX8XqXqX",
"qXqXqXqXqXqX8XqXqX9XwXqXF.z.x.Y K s.-.( 6 P $ D B.[ ` j.I m 8 W . 6 Y x.M.' L.wX8XqXqXqXqXqXqXqXqXqX",
"8XqXqXqXqX8XqXqX8X8XqXqXqX).} x.U g B = E 6 8 v.N.O.` j.w F 7 = $ T z.{ K I.0XqXqXqXqX8XqXqX8XqXqX8X",
"qXqXqX8XqXqXqXqX8X8XqX8XqXwXr.z.m.{ s o = = 6 { n.c.Y j.w * . # p [ 1.A.*XwXqXqX8XqXqXqXqXqXqXqXqXqX",
"qXqXqXqXqXqXqX8X8X8X8X8XqXqX3XI.3.+.+.p @ . . X ( n.R j.w   X L G.$X4XwXwX8XqX8XqXqXqXqXqXqXqXqXqXqX",
"qXqXqXqX8XqXqXqX8XqXqX8XqXwXqXwX5X,X$X}./.,.$.3.& h a s a.J.[.3XwXwXqX8X8XqXqXqXqXqX8XqXqXqXqX8X8XqX",
"8XqXqX8XqXqXqXqXqX8XqXqXqX8XqX9XqXqXwXwXqXwXeXqX&XC.L..XqXwXwXwX8XqX8XqXqX8XqXqXqXqX8XqX8XqXqX8XqXqX",
"qXqXqXqXqX8XqX8X8XqXqX8XqXqXqXqX8X8XqXqXqXqXqXqXqXwXwXwXqX8XqXqXqXqXqXqXqXqXqXqXqXqXqXqXqXqXqXqXqX8X",
"qXqXqXqXqXqX8XqXqXqXqXqXqXqX8XqXqX8XqX8XqXqX8XqXqX8XqXqX8XqXqXqXqX8XqXqX5XqXqX8X8XqXqXqXqXqXqXqXqXqX",
"qXqX8XqXqXqXqXqX8XqX5XqXqX8XqX8XqXqXqXqXqXqX8XqX8XqX8XqX8XqXqXqXqX8XqXqXqX8X8XqXqXqXqX8XqXqX8XqXqXqX",
"8XqX8XqXqXqX8XqXqXqXqX8XqXqXqXqXqXqXqXqX8XqXqXqXqX8XqXqXqX8XqX8XqXqXqXqXqXqXqXqXqXqXqX8XqXqXqXqXqXqX",
"qXqXqXqXqXqXqXqX8XqXqXqXqXqX8XqXqX8XqXqXqXqXqX8XqXqXqXqXqXqXqXqXqXqXqXqXqXqXqXqX8XqXqXqXqXqX8XqXqX8X"
};
