/* XPM */
static char *_7415_47a9cfa8b835ee40c649749e0f5f6df960608df5dfbdd1b537aff7e8393e3807[] = {
/* columns rows colors chars-per-pixel */
"50 50 221 2 ",
"   c #010002",
".  c #0A1606",
"X  c #0E240D",
"o  c #0F2C0C",
"O  c #0D2705",
"+  c #102C0D",
"@  c #12330A",
"#  c #15370B",
"$  c #0F2C10",
"%  c #152B14",
"&  c #143414",
"*  c #153D14",
"=  c #1A3F14",
"-  c #163A19",
";  c #1A3C1B",
":  c #133119",
">  c #0D1F21",
",  c #122525",
"<  c #1A3B24",
"1  c #183A2A",
"2  c #1A3B3A",
"3  c #15430D",
"4  c #1F440F",
"5  c #184A05",
"6  c #1B550C",
"7  c #164414",
"8  c #1B4415",
"9  c #1C4D15",
"0  c #164219",
"q  c #1C441A",
"w  c #1B4B1B",
"e  c #174B1A",
"r  c #1A5515",
"t  c #1C5A15",
"y  c #1C531D",
"u  c #1E5B1D",
"i  c #24570B",
"p  c #224E1C",
"a  c #204816",
"s  c #23541C",
"d  c #235D1C",
"f  c #265617",
"g  c #1F641C",
"h  c #1E620B",
"j  c #23630F",
"k  c #206414",
"l  c #29631C",
"z  c #246C1B",
"x  c #25691B",
"c  c #2E731D",
"v  c #237116",
"b  c #31771F",
"n  c #1B4323",
"m  c #1D4B22",
"M  c #1C4A2E",
"N  c #1B442B",
"B  c #1D532C",
"V  c #1F5B23",
"C  c #1E4534",
"Z  c #1E4A3A",
"A  c #1F5837",
"S  c #234B27",
"D  c #235522",
"F  c #245B24",
"G  c #2B5D24",
"H  c #26592C",
"J  c #295D29",
"K  c #2B532B",
"L  c #214A37",
"P  c #235A33",
"I  c #265738",
"U  c #1F6123",
"Y  c #226423",
"T  c #2A6523",
"R  c #246B23",
"E  c #2C6B24",
"W  c #2A642A",
"Q  c #266B29",
"!  c #2B6C2A",
"~  c #276228",
"^  c #306827",
"/  c #257324",
"(  c #2D7324",
")  c #2C7B27",
"_  c #2D732D",
"`  c #297D2B",
"'  c #277929",
"]  c #307225",
"[  c #327B25",
"{  c #31752B",
"}  c #317A2B",
"|  c #266234",
" . c #2A6336",
".. c #2C6A34",
"X. c #2C643C",
"o. c #27663A",
"O. c #32683E",
"+. c #307431",
"@. c #347D32",
"#. c #2E733D",
"$. c #446D33",
"%. c #1A3D44",
"&. c #1C3E57",
"*. c #1E444F",
"=. c #1E4A54",
"-. c #214C4D",
";. c #255547",
":. c #265A49",
">. c #204D52",
",. c #235253",
"<. c #2B5D5B",
"1. c #275A54",
"2. c #29644C",
"3. c #2C6749",
"4. c #2A6255",
"5. c #386C5A",
"6. c #317254",
"7. c #347344",
"8. c #234B64",
"9. c #265B61",
"0. c #2A5B67",
"q. c #2A5C6A",
"w. c #275668",
"e. c #295B74",
"r. c #285679",
"t. c #2B6364",
"y. c #2E6965",
"u. c #2B6669",
"i. c #36676A",
"p. c #2E6673",
"a. c #2B637B",
"s. c #2E6C72",
"d. c #316C7C",
"f. c #316C74",
"g. c #337776",
"h. c #307271",
"j. c #417872",
"k. c #2D832D",
"l. c #338123",
"z. c #34832A",
"x. c #36892F",
"c. c #368434",
"v. c #388335",
"b. c #388836",
"n. c #3D953C",
"m. c #3D983D",
"M. c #3C9534",
"N. c #419A3C",
"B. c #36804F",
"V. c #419C40",
"C. c #43A143",
"Z. c #2C5B84",
"A. c #2D5F90",
"S. c #2E6B82",
"D. c #2E6587",
"F. c #336D8B",
"G. c #326C85",
"H. c #317986",
"J. c #31728B",
"K. c #3C7D8B",
"L. c #347687",
"P. c #2F6B93",
"I. c #2D6593",
"U. c #326C93",
"Y. c #326D9C",
"T. c #347595",
"R. c #367A93",
"E. c #34739B",
"W. c #357B9B",
"Q. c #397E9A",
"!. c #387B96",
"~. c #3576A1",
"^. c #367AA4",
"/. c #397BAA",
"(. c #387AB4",
"). c #417B8F",
"_. c #388188",
"`. c #398696",
"'. c #3B83A4",
"]. c #3C83AC",
"[. c #3B8AAD",
"{. c #3B85B2",
"}. c #3D8AB5",
"|. c #3D8ABC",
" X c #478FAA",
".X c #418ABF",
"XX c #4191B2",
"oX c #3D84C1",
"OX c #3E8CC2",
"+X c #3D8BCA",
"@X c #418EC3",
"#X c #418FC9",
"$X c #4295C5",
"%X c #4293CC",
"&X c #459BC8",
"*X c #408FD1",
"=X c #4395D3",
"-X c #459ADC",
";X c #459CD3",
":X c #48A1DB",
">X c #459DE2",
",X c #499DE5",
"<X c #46A1E1",
"1X c #49A3E4",
"2X c #46A2EA",
"3X c #4BA5EA",
"4X c #4CABED",
"5X c #4BA9E7",
"6X c #4CACF4",
"7X c #4DADFA",
"8X c #4BA5F6",
"9X c #50ADFB",
"0X c #4EB1F4",
"qX c #4FB4FE",
"wX c #4EB9FD",
"eX c #51B2F6",
"rX c #50B4FF",
"tX c #53BBFE",
"yX c #55C2FE",
"uX c #58C3FE",
"iX c #57C9FF",
/* pixels */
"rXrXqXrXrXqXrXrXrXrXqXrXrXqXrXrXrXqXrXqXqXrXqXqXrX7XrXrXqXqXrXeXrXrXrXrXrXrXrXrXrXrXrXrXrXrXrXrXrXrX",
"rXrXrXrXrXrXrXrXqXrXrXqXqXrXqXqXqXqXqXrXrXqXrXrXrXrXrXrXqXrXqXrXqXrXrXqXqXrXqXrXrXqXqXrXqXrXrXqXqXrX",
"qXrXrXrXrXqXqXrXrXqXqXrXrXqX9XrXrXrXrXrXrXqXrXrXqXqXqXqXrXrXrXqXrXrXrXrXrXrXqXrXrXrXrXrXrXrXrXrXrXrX",
"rXrXqXrXrXrXrXrXrXqXrXrXqXrXqXrXrXrXrXqXqXrXqXrXrXrXqXrXrXrXrXrXrXqXrXrXrXrXrXrXrXqXrXrXrXqXrXrXrXrX",
"rXrXqXrXrXrXrXrXqXrXqXtXtXtXtXtXrXrXqXqXrXrXqXrXrXqXrXrXqXqXqXqXqXrXrXqXrXrXqXrXrXqXrXrXqXrXrXqXrXrX",
"qXrXrXrXrXqXqXrXrXrXrX6X,X~.>X;XqXrXrXrXqXrXrXrXwXtXtXwXrXrXrXqXrXrXrXrXqXrXrXrXrXrXrXrXrXrXrXrXrXqX",
"rXrXrXrXrXrXrXrXqXqXtX].N % D -.7XrXqXrXqXrXrXrX1X[.q.T.rXqXrXqXrXrXrXrXrXrXrXrXrXrXrXqXrXrXrXrXrXqX",
"rXrXqXrXrXqXrXrXrXqXtX$XT [ 5.1XrXrXqXrXrXrXqXrX%X:.i X.6XtXqXrXqXrXrXqXrXrXqXrXrXqXrXrXqXrXrXqXrXrX",
"qXrXqXrXqXrXrXqXqXrXtXOXT ..-XtXqXqXrXrXrXqXrXrXtX0Xg.T -XtX0XeXrXrXrXrXqXqXqXqXqXqXeXrXrXrXqXrXrXrX",
"rXqXqXqXrXrXqXrXrXtXtX%Xd i.rXrXqXrXrXrXqXqXrXrXrXtX3XI L.tXe.1XrXrXqXqXrXrXrXqXrXqXqXrX9XrXqXrXrXqX",
"rXrXrXqXrX7XrXtXY.@XiX^.= [.tXrXrXqXrXrXrXrXqXrXrXrXtX[.a t.f.tXqXrXrXqXrXqXrXrXrXrXrXrXqXrXqXrXrXrX",
"rXrXrXqXrXrXrXtX^.1 @X;.M 6XtXqXqXrXqXqXqXrXqXrXrXqXrXrX1.i }.tXqXrXrXqXtXtXtXtXtXrXrXqXrXrXqXqXqXrX",
"qXqXrXqXrXrXqXrXtXi.S p 1.rXrXqXrXrXrXqXrXrXrXqXqXrXrXtX:XD }.tXrXrXrXtX$XG.F.@XqXwXqXqXqXrXqXrXrXrX",
"rXqXrX7XrXrXqXrXtX=XJ l T.yXtXrXtXrXrXrXrXrXqXqXrXrX0XR.U.S -.4XwXqXqXtX:X2.a n .XtXrXeXwXqXrXqXrXrX",
"rXrXqXrXqXrXrXrXrXtX-.T ;X0X+XrX1XtXtXrXqXrXrXrXrXtXuX$X% # # q.w.6XrXqXtX$X_ ..3XtXqXrXrXrXrXrXrXrX",
"rXrXqXrXrXrXqXqXrXtX,.D 4XQ.% p.9.;X:X7XtXrXtXtXtX,X^.u.Y R Q 6 - %XtXqXtX4XX.2.7XrXrXrXqXrXqXrXqXrX",
"rXrXrXrXqXrXqXrXtX7XC J I.S a 6 k g T 5.[.tX%XE.E.B k v Y V 8 <.$XtXrXrXrXeX4.<.tXtXrXrXrXrXrXrXrXqX",
"rXqXrXqXrXqXtX|.a.oX< ! s :.H.R.W.`.j.K # S.t.. y g m d.+X:.^ &XuXrXrXrXrXtXp.M 7XF.^.tXrXrXrXrXrXrX",
"qXqXrXrXrXrXeX1XL w ; @.) ~.yXtXtXtXuX(.. # r e t , oXiXuXs.K $X@XrXrXqXrXtXJ.p ;.1.5XrXrXrXrXrXrXrX",
"qXqXrXrXrXqXrXtX%XJ x.{ ! $XtXrXrXtX5XT.o & - y X ~ 2.{.1XK.J G.i.tXrXqXwXtX'.l  .4XtXqXrXrX9XqXrXqX",
"rXrXrXwXrXqXrXrXtX%XI } J =XtXqX9XtX@X2 7 0 8 0 r.B 6 O L 4.G K  XtXqXwXT.$X&Xa ^.tXrXrXqXqXqXrXrXqX",
"rXrXrXqXrXrXqXqXrXuX~.l s OXtXqXtX-X#X9X;.x D u =.0 + - = { { ..4XqXqXtX'.s.`.4 OXtXrXrXrXqXqXrXrXrX",
"rXqXqXqXrXqXrXrX7X6X<XD s {.uXrXtX].1 0XS.g / ' 5 t.{.Z 7 ~ 8 q.tX,.F.uX1XI I p %XyXrXrXrXqXqXqXrXrX",
"qXrXrXrXrXrXrXtX-X2 %Xy.f '.%XU.tX1X= W./.9 R e @ G.{., 8 q @ P.G.5 W.tX7X6.l.< a.q.:XtXrXrXrXrXrXrX",
"qXrXqXrXrXrXqXqXqX<.I w.l ,.L <.rXtXt.P 8.r x w.N : N 8 V e H r.t D H.6XrX6.@.] p !.tXrXrXqXrXrXqXrX",
"rXrXrXqXrXqXrXrXtX-X .S T _ l }.tXtX-Xm t V R Z ; < m t R / Z I.& ] _ 1X3XP { 3..XtXwXrXqXqXrXqXrXrX",
"rX7XqXqXrXqXrXrXtXyX^.{ v.@.#.1XrXrXyXJ.x Y R w e.u P p.g r ;.a.@ [ _.tX|.d I 1XyXqXrXrXqXrXrXrXrXrX",
"qXrXrXqXrXrXqXeX3XqXwXt.z.] 3.8XyXD.%X@Xe R V | e.0 1 d.R 0 < m s ..a.5X`.i R.6X4XrXqXqXrXrXrXrXqXrX",
"rXrXrXrXrXrXtX2X, <.4X4X..]  .1XyX0.9.A.3 D u | 8.X X w ' U r w { b.4 q.3.| /.2 =XtXrXrXrXrXqXrXqXrX",
"rXrXqXrXrXrXrX4XN 6 ,.(.J.E T ].uX'.0 r.y q & e 7 F s %.| z >.U l.6.f.[ E L D R.tXqXrXqXrXrXqXqXrXrX",
"rXrXrXqXrXrXrXtX/.f t o I.X.( t.tX;XD H V n y ` ' @.d > < V 1 0 d ).].] } [ K.tXrXrXrXrXrXqXrXqXrXrX",
"qXrXrXqXrXrXrX3Xs.S / x U.y.[ J +XtXw.( ~ w q R ` _ _ & 0 e w 8 $. Xg.] ] L.tXtXrXrXqXrXrXrXrXqXqXrX",
"rXqXrXrXqXqXtX-XH M.W v H.].T c F.uX,XO.E q % y ` E n.B.D 7 9 S ).-XJ ] g.qX}.>.@XtXrXqXqXrXqXrXrXrX",
"rXrXrXrXrXqXrXtXT.] c.x :.+X .) X.2XrXL z y q y ` Q m.M.= / J /.tXy.c 3.I.=.y * =XtXrXrXqXrXqXrXrXqX",
"qXrXqXrXrXrXqXqXrXT.! ! t >.9.} E F.7XM x Y R ' ' E m.F d u Q.iX(.T ^ E.;.h r !.tXrXrXrXrXrXqXqXrXrX",
"9XrXrXrXrXrXqXqXtX].F +./ Q Z.~ } 3.oXB R V ` k.' _ m.d w N 4X1XP c 5.@XR ! E h.7XrXrXrXrXqXrXqXrXrX",
"rXrXqXrXrXrXrXrXtX{.[ m.W z W.d.c { >.B Q X D k.' _ n.N.w C 8Xu.[ E E.t.x } [ L.rXrXqXrXrXrXqXrXrXqX",
"rXrXrXrXqXqXqXrXrXrXH.@.b.R B Z.:.} < 8 Q X % k.R v.V._ * 2.U.( ] t.1.t Q 7.!.rXrXrXrXrXrXrXqXqXrXrX",
"qXrXqXqXrXqXqXqXqXtXtXe.( b.d Y *.H W w y = / ` ! n.v.& x 1 P [ y.E./ Q l.1.rXtXrXrXqXrXqXrXqXqXqXrX",
"rXqXqXrXrXrXqXrXqXqXtXT.c m.c.R m . ! m y Q k.' +.C.S o U 8 ] :.e.I R x.z._.rXrXqXrXrXrXrX7XrXqXrXrX",
"rXrXrXrXrXrXrXrXqXrXrXrXR.K [ x.R o ; q F y ` / @.n.b.p q ~ ; 2 Y x c. .].rXtXrXrXrXrXrXrXrXrXrXrXrX",
"rXrXqXrXrXqXrXrXrXrX9XtXtX-XF.3.! d # . 0 e k.! c.V.@.q - = X x z.M.l.t.tXrXrXrXrXrXrXqXqXrXrXqXqXrX",
"qXrXqXrXrXqXrXqXrXrXrXrXqXtXtX7X$XK.I O   r z.Q B.l.O . . # l _ O.4.!.4XrXeXrXrXrXqXrXrXrXrXrXrXrXrX",
"rXrXrXrXrXrXrXrXrXrXrXrXqXrXrXqXtXtX6X|.Y.u.g t E & 4.&.1._.XX$X1X7XtXtXrXqXqXqXrXrXrXrXrXrXqXrXrXqX",
"rXrXrXrXrXrXrXrXrXrXrXrXqXrXrXrXqXrXqXtXuXwX@XT.D.%XrXtXtXtXtXrXwXqXqXrXrXtXqXrXrXqXrXrXqXrXrXqXrXrX",
"qXrXrXqXqXrXrXqXrXrXrXrXqXqXrXqXrXqXrXrXrXqXtXtXtXtXrXrXrXqXrXqXqXqXrXrXrXqXqXqXrXrXrXqXrXrXrXrXrXrX",
"rXrXrXrXrXrXrXrXrXqXqXrXrXrXrXrXrXqXrXqXqXrXqXqXrXrXtXrXrXqXrXrXrXrXrXqXqXqXrXrXrXrXrXrXrXrXrXrXrXqX",
"rXrXqXrXrXqXrXrXqXrXqXqXrXrXrXqXqXqXqXqXrXrXrXqXrXqXrXeXrXrXrXrXrXrXqXrXqXrXqXrXrXqXrXrXqXrXrXqXrXrX",
"qXrXrXrXrXrXrXrXrXrXqXrXrXqXqXrXrXrXrXrXrXrXrXrXrXqXrXrXqXrXrXrXrXrXrXrXqXrXrXrXrXqXrXrXqXrXrXrXrXrX",
"rXrXqXrXrXqXqXrXrXrXrXrXrXrXrXrXqXrXrXrXqXrXrXqXrXrXrXrXrXrXqXrXrXrXrXrXrXrXrXqXrXrXrXrXrXrXqXrXrXqX"
};
