/* XPM */
static char *_876_c7a99af9d84d27dcb06a1cced9ac7b05a5dae31ad773bb382aedce56d7c55622[] = {
/* columns rows colors chars-per-pixel */
"50 50 243 2 ",
"   c #D99907",
".  c #DA9A14",
"X  c #E49C02",
"o  c #EA9B01",
"O  c #E29D0D",
"+  c #E89505",
"@  c #F09C06",
"#  c #DFA202",
"$  c #DCA80A",
"%  c #D7A808",
"&  c #DBA512",
"*  c #D4A81A",
"=  c #DCB714",
"-  c #DAB50E",
";  c #E6A300",
":  c #EBA401",
">  c #E4AC04",
",  c #ECAB03",
"<  c #E5A40D",
"1  c #ECAC0A",
"2  c #E9A90B",
"3  c #F4A904",
"4  c #FAAD02",
"5  c #F1A400",
"6  c #EEB403",
"7  c #E4B50A",
"8  c #E8B10C",
"9  c #F3B403",
"0  c #FBB302",
"q  c #F4BA02",
"w  c #FCBC02",
"e  c #F6BA0B",
"r  c #F8B60B",
"t  c #E1A613",
"y  c #E6AD17",
"u  c #E5B413",
"i  c #EBB416",
"p  c #ECBB14",
"a  c #E3B41B",
"s  c #EBBD1B",
"d  c #E6B919",
"f  c #F7BD17",
"g  c #CE9E2B",
"h  c #D4A62B",
"j  c #D7A825",
"k  c #D9B426",
"l  c #C4A33A",
"z  c #CAA238",
"x  c #C7AA39",
"c  c #D9BC32",
"v  c #CEAA34",
"b  c #E2BC24",
"n  c #EABD27",
"m  c #E1BC35",
"M  c #DEC417",
"N  c #EAC809",
"B  c #F5C205",
"V  c #FCC203",
"C  c #FECB06",
"Z  c #F4C30B",
"A  c #FCC40B",
"S  c #FCCA0D",
"D  c #F6CE0A",
"F  c #E7D70B",
"G  c #FBD501",
"H  c #FBDD02",
"J  c #F6D50E",
"K  c #FED10C",
"L  c #FCDA0B",
"P  c #F4DB0A",
"I  c #EDC414",
"U  c #ECC81C",
"Y  c #FDC512",
"T  c #F5CB13",
"R  c #FCCB14",
"E  c #F3C41C",
"W  c #F5CC1B",
"Q  c #FCCB1B",
"!  c #FAC418",
"~  c #EBD71B",
"^  c #F2D415",
"/  c #FDD513",
"(  c #FCDC13",
")  c #F3D31B",
"_  c #FDD31C",
"`  c #F4DC1D",
"'  c #FBDC1B",
"]  c #F5D913",
"[  c #FCE503",
"{  c #FDEA02",
"}  c #FCE40B",
"|  c #FCEA0A",
" . c #F6E602",
".. c #FBF007",
"X. c #FDE412",
"o. c #FCEA13",
"O. c #FCE41C",
"+. c #FCEB1A",
"@. c #F4E71A",
"#. c #DEC725",
"$. c #DDC836",
"%. c #DFD339",
"&. c #DBD236",
"*. c #DFD22C",
"=. c #E6C224",
"-. c #E8C928",
";. c #F3C522",
":. c #FCCD22",
">. c #FCCD2A",
",. c #F4C921",
"<. c #E2D32A",
"1. c #EAD828",
"2. c #F4D323",
"3. c #FCD325",
"4. c #FDDB24",
"5. c #F5D52D",
"6. c #FDD42A",
"7. c #FBDD2A",
"8. c #F4D929",
"9. c #E7C939",
"0. c #EBD53B",
"q. c #E9D837",
"w. c #F3DC34",
"e. c #F7D837",
"r. c #EDE328",
"t. c #FDE324",
"y. c #FCEC24",
"u. c #FBE42C",
"i. c #FCEC2B",
"p. c #F5E625",
"a. c #FCF22C",
"s. c #E8E037",
"d. c #FDED33",
"f. c #FEEE3C",
"g. c #F8E433",
"h. c #FCF638",
"j. c #B9A749",
"k. c #BAA552",
"l. c #B6A855",
"z. c #BABD54",
"x. c #9CA97B",
"c. c #9DAB76",
"v. c #9EB77E",
"b. c #AAA96A",
"n. c #A2AE74",
"m. c #A3A573",
"M. c #A3BA7E",
"N. c #A4B977",
"B. c #B4B46D",
"V. c #C2A544",
"C. c #CEB950",
"Z. c #C7B644",
"A. c #BFC557",
"S. c #BDC968",
"D. c #ACC47E",
"F. c #B8C473",
"G. c #CDC449",
"H. c #D9C747",
"J. c #DFD043",
"K. c #D0CC51",
"L. c #C6C85B",
"P. c #E6CB45",
"I. c #E7D548",
"U. c #F4DB41",
"Y. c #F5DE49",
"T. c #EADB56",
"R. c #F0DF51",
"E. c #ECE545",
"W. c #FBE545",
"Q. c #FDEC43",
"!. c #FDED4D",
"~. c #F8E848",
"^. c #FEF243",
"/. c #FEF34A",
"(. c #F2F048",
"). c #ECE35A",
"_. c #E3E456",
"`. c #F6E554",
"'. c #F4E855",
"]. c #F7F359",
"[. c #C4C362",
"{. c #D7CF6C",
"}. c #F1E366",
"|. c #FDF462",
" X c #FEF768",
".X c #7DACAB",
"XX c #76ADB8",
"oX c #7AB4B7",
"OX c #6EB1BA",
"+X c #3FAFFE",
"@X c #3DB4FE",
"#X c #37B7FF",
"$X c #5DB4DC",
"%X c #5DAADE",
"&X c #6AAEC6",
"*X c #71AFC1",
"=X c #6DB3CA",
"-X c #74B3C5",
";X c #71B2CA",
":X c #79B4C2",
">X c #6AAED5",
",X c #64B2D5",
"<X c #6CB5D3",
"1X c #64B2DA",
"2X c #6AB2DB",
"3X c #69B9DC",
"4X c #59ADE3",
"5X c #55AEE9",
"6X c #5BB5EE",
"7X c #59B4E9",
"8X c #45AFFF",
"9X c #4AAEFE",
"0X c #55AFF3",
"qX c #44B4FE",
"wX c #4EB4FE",
"eX c #49B3F6",
"rX c #56B4F4",
"tX c #50B4FF",
"yX c #5AB4F4",
"uX c #62B4E5",
"iX c #64B9E2",
"pX c #9AAD84",
"aX c #92AE8B",
"sX c #99A982",
"dX c #9CB486",
"fX c #8BAC9D",
"gX c #8EAC97",
"hX c #91AD94",
"jX c #8BB497",
"kX c #93B393",
"lX c #97BA99",
"zX c #A4BC88",
"xX c #A0BB90",
"cX c #A0AE8A",
"vX c #83ACA1",
"bX c #8EA9A4",
"nX c #84B3A3",
"mX c #88B4A8",
"MX c #82B4B4",
"NX c #8ABCB3",
"BX c #83AEB7",
"VX c #A1BEA0",
"CX c #A5C190",
/* pixels */
"tXtXtXwXtXtXtXtXtXtXtXtXtXtXtXtXtXtXtXwXtXwXtXtXwXtXwXtXwXtXtXtXtXtXtXtXtXtXtXtXtXtXtXtXtXwXtXtXtXtX",
"tXtXtXtXtXtXtXtXtXtXwXtXtXtXtXtXwXtXwXtXqXtXdXzX6XwXwXwXtXtXtXtXwXtXtXtXwXtXwXtXtXtXtXtXtXtXtXtXtXtX",
"tXtXtXtXtXtXtXwXtXtXwXtXtXwXtXtXtXwXtXtXqX-X<.} zXrXqXwXtXwXtXwXtXtXtXtXtXtXtXtXtXtXwXtXtXtXtXwXtXtX",
"wXtXtXtXtXtXtXtXtXtXtXtXtXtXtXtXtXtXtXtXqXvXT.f.2.mXqXwXtXtXtXtXtXtXtXtXtXtXtXtXtXtXtXtXtXtXtXtXtXtX",
"tXtXtXtXtXwXtXtXtXtXtXtXtXtXtXtXwXwXtXtXqXnXT.W.3.B.1XeXtXtXtXtXtXtXtXwXwXtXtXtXtXtXtXtXtXtXtXtXtXtX",
"tXwXtXtXtXtXtXtXtXwXtXtXtXtXtXtXtXtXtXtX@XnX).I.s Y zXqXqXtXtXtXtXtXtXtXtXtXtXtXtXwXtXwXtXtXtXtXtXtX",
"tXtXtXtXwXtXtXtXtXtXtXtXtXtXtXwXtXtXtXwX@XnX).|.7.K H.&X9XtXtXtXtXtXtXtXtXtXtXtXtXtXtXtXtXwXtXtXtXtX",
"tXtXtXtXtXtXtXtXtXtXtXtXtXwXtXtXtXtXtXtX8XkX!.`.k I Y N.wXtXtXtXtXwXtXtXtXtXtXwXtXtXtXtXtXtXtXtXtXtX",
"tXwXtXtXtXtXtXtXtXtXtXwXwXtXtXtXtXtXtXqXwXzX!.'.M W C v <XqXtXtXtXwXtXtXtXtXtXtXtXtXtXtXtXtXtXtXtXtX",
"tXtXtXwXtXtXtXtXtXtXtXtXtXtXtXtXtXtXtXwX9XD.W.|.U.>.K u nXqXtXtXtXtXtXtXtXtXtXtXtXtXtXtXtXwXtXtXtXtX",
"tXwXtXtXtXtXtXtXtXtXwXwXtXtXtXtXtXtXwXqX5XS./.'.9.n T w n.wXwXtXtXtXtXwXtXtXtXtXtXwXtXwXtXtXtXtXtXtX",
"wXrXtXtXtXtXtXtXtXtXwXtXtXtXwXtXwXtXwX8XoXT.^.(.=.= S w x <XeXwXtXtXtXtXwXtXtXtXtXtXtXtXtXtXtXtXtXtX",
"wXqXqXqXtXtXwXtXwXtXwXtXtXtXtXtXwXtXtX8XkXR.^.h.U.) / w & fXqXwXtXtXtXtXtXtXtXtXtXtXtXtXtXtXtXtXwXwX",
"tX,X&X0XqXwXwXwX9XtXwXtXtXwXwXtXtXtX9XeXN.`.^.r.I.,.3.e < gXqXwXtXtXtXtXtXtXtXtXtXtXwXtXtXtXtXwXtXwX",
"MXP.&.CXOX5X@XqXtXtXtXtXwXtXtXtXtXtXqX%XL.Q.d.F =.b ;.Y & bXqXwXwXtXtXtXwXtXwXtXtXtXtXtXtXtXtXtXwXwX",
"xXS +.d.T.F.&X0X8XqXwXtXtXtXtXtXtXwXqXnXI.i.@.@.n y 2.A 2 fXqXwXtXtXtXtXtXtXtXtXtXtXtXtXtXwXtXtXqXqX",
"hXA 3.E u.a._.F.nX,XqX@XqXqXwXtXwX@XeX[.+.o.[ y.8.Q 3.S 9 sXqXwXtXtXtXtXtXtXwXtXtXtXtXtXwXwXqXqX<XoX",
",Xk S a E O.!.!.E.{.VXoXOX,X9X+X9X5XdX) { { H q.%.W :.R w Z.$X@XwXwXtXtXwXtXtXtXtXwXtXqXqXwX=XdX&.$.",
"wXhXq W ) - =.g.f./.(._.{.{.CXNXlXG.` [  .{ G 0.'.b s Y V e M.eXqXwXtXtXrXwXtXqXwXqXqX6X&XmX%.t.G a ",
"qX6Xk.V / d p E -.@.a.^.!.Q.'.).g.[ { [ [ |  .-.k & p C V V s v.4XqX@XqXqX8XqX9X0X,XoXS.*.2.d.5.w b.",
"tXwX>Xx w S 3.n * I 2.w.d.a.+.+.} [ { [ { [ { ` a u ^ C A A H ^ G.M.oX-X-X:XoXlXA.&.1.H ..h.0.u 1 XX",
"tXtXwX-XV.4 C T U ;.9.0.1.u.a.+.[ [ [ [ [ [ { O.6.3.R B T ( { [ [ L <.<.<.<.1.~ [ [ | f.E.Y.Z , V.rX",
"tXtXwXqX;Xj.: B _ Q n k u 3.e.0.r.+.|  .[ [ | O.6.3.! A ( | { [ | [ { { { { { { } g.~.E.b y 0 ; fXwX",
"wXtXwXwXeX2Xk.o 4 S D y Y Q -.).I.5.y.+.X.| { ( >.3._ / } [ [ [ { [ [ { { { } i.f.P.P.T q @ o l.6XtX",
"wXtXwXtXwXwX,Xl.X , N W 3.3.M P.j s 7.7.u.` } ' 6.6.` } { [ [ {  .F ] } p.r.q.Y.e.U > 9 3 o l <XwXwX",
"tXtXwXtXtXwXqX7Xx.g ; 0 Q 8.U $ O I / :.3.:.3.;.I W 3.} { { o.| ~ q.0.2.~.I.$.u Y 9 , o + l -XqXwXwX",
"wXtXtXtXwXtXwXwXwXMXz o 4 Y / N ;.6._ 3.:.:.E P.P.I ,.4.( ( t.t.8.9.c u 4.f y : 9 5 X . b.-XqXtXtXtX",
"tXtXtXtXwXwXwXwXeXqX-Xl.o 4 V C _ 6.e.5.6.:.= T. Xs i 6.>.>.Q _ T $ X 9 B q , : o   j.fXrXqXwXwXtXwX",
"tXtXtXwXtXtXtXtXtXtXqX3Xx.t w S J L ` ' ' _ N <.-.& i _ 3.:.Y A C w 6 3 : #   z b.gX1XqXwXwXwXtXtXtX",
"eXwXtXtXtXtXwXtXtXwXwXqXqXn.f ( | [ [ [ { { X.u . $ / X.' _ R B V r ;   g m.aX-XwXqXqXwXtXtXtXtXwXtX",
"tXtXtXtXwXtXtXtXtXtXtXtX@XXX#.O.o. .[ [ | p.t.:.s J o.+.[ ( 3.S V 3 + j.oXwXqXqXwXtXtXtXtXtXtXtXwXtX",
"tXtXtXtXwXtXtXwXtXtXtXtX@X.XP.h.o.{ { o.i.4.Q 6.6.} +.y.{ { ( R w 5 j oX#XqXwXwXwXtXwXtXwXtXtXtXtXtX",
"tXtXtXtXtXtXtXwXtXtXtXwXqXaX_.Q.} G X.d.u.S D >.3.H | f.i.[ } _ C 6 z <XqXwXwXtXtXtXtXtXtXtXtXtXtXwX",
"tXtXtXtXwXtXtXtXwXtXwXeX%X[.|.i.D 1.q.5.R e A :.3.}  .(.!. . .L R 0 V.yXeXwXtXtXtXwXwXtXtXtXwXtXtXtX",
"tXtXtXwXtXtXtXtXtXtXwXeXB.}./.| N }.P.8 B V A :.3.} { t.W.1.F ^ :.0 l yXwXwXtXtXtXtXtXtXtXtXtXtXtXtX",
"wXtXtXtXtXtXwXwXtXwX8XvX0.].u.+.w.M % 1 V V V Y _ ( [  .1.R.#.I _ w h 1XqXtXtXtXtXtXtXtXtXtXtXtXtXtX",
"tXtXtXtXtXtXtXtXtXqX&XK.|.i.@.].W.i 1 q w : : 9 A _ X. .N b = I 4.C k XXqXwXtXtXtXtXwXtXtXtXtXtXtXtX",
"tXtXtXtXtXtXwXwXwX5Xz.!.^.] I.J.E C V , X   . . 1 V / { P = M ( ' C a vXqXwXtXtXtXtXtXtXwXtXtXtXtXwX",
"tXwXtXtXwXtXwXwXrXN.E./.f.0.9.= q q X + O l.kXdXb.* A / } y.~.~ W R e dX@XwXqXtXtXtXtXtXtXtXtXtXtXtX",
"wXtXtXtXwXtXwXeXzXr.^.s.`.e.2 ; 1 X X h cX6XqX#XwXc.9 Y /  .<.H.u / e l.wXwXtXtXtXtXtXtXtXwXtXtXtXtX",
"wXtXtXwXtXtX9XmXq.^.W.9.d ! Y 6 % O j.;XwXqXtXtXqX4Xl.0 S X.N % M [ V v ,XqXtXwXwXtXtXwXtXtXtXtXtXtX",
"wXtXtXwXwXeXMX1.Q.`.Y.d > e 1   l.kXuXqXwXwXtXtXwX@X$Xj.w :.4.( p.` R i vXqXtXwXtXtXwXtXtXtXtXtXtXtX",
"tXtXtXwXwXOXq.h.W.k 7 w 9 < z v.iX@XwXtXwXtXtXwXwXtXeXOXh w _ o.) m B Z sXwXwXwXtXtXtXwXtXwXtXtXwXtX",
"tXwXwXwX;XK.d.5.W 1 9 2 V.cX3XqXeXtXwXtXwXwXtXtXtXtXwXwXMXj q R E - ~ R h 2XwXwXtXwXtXwXwXtXtXtXtXtX",
"tXtXwXuXC.L J ; 3 3 j m.<XqXqXtXwXtXtXtXtXtXtXtXtXwXtXwXqX;XV.9 R ' ~ p i aXqXwXtXtXtXwXtXtXtXwXtXtX",
"tXwXqXkXr q 7 3 z aXoXtXwXwXtXtXwXwXtXwXtXwXtXtXwXtXtXwXwXwX<Xl., B p 8 e V.yXwXwXwXtXtXtXtXtXtXtXtX",
"tXtXwX2Xb.k.x.fXiXtXqXtXtXtXtXtXtXtXrXtXtXtXtXwXtXtXwXtXtXtXqXiXm.* 4 f f t gXqXwXwXtXtXtXwXtXtXtXtX",
"wXtXwXwXwXwXwXqXtXtXtXtXtXtXtXtXtXwXwXwXtXtXtXtXtXwXtXtXtXwXwXwXwXoXj.: @ @ g :XqXwXtXtXtXtXwXtXtXwX",
"tXtXtXwXwXwXtXtXtXtXtXtXtXtXtXtXtXtXtXtXtXtXtXtXtXtXtXtXtXtXtXtXwXqXuXn.$ @ @ j.tXwXtXtXwXtXwXtXtXtX",
"tXtXwXtXtXtXtXtXtXtXtXtXtXtXtXtXtXtXtXtXtXtXtXtXtXtXtXtXtXtXtXtXtXtXqX6XOXjXB..XrXwXtXtXtXtXtXtXtXtX"
};
